%TF.GenerationSoftware,KiCad,Pcbnew,(6.0.0)*%
%TF.CreationDate,2022-05-11T10:24:23+02:00*%
%TF.ProjectId,speed_sensor,73706565-645f-4736-956e-736f722e6b69,v0.04*%
%TF.SameCoordinates,Original*%
%TF.FileFunction,Copper,L2,Inr*%
%TF.FilePolarity,Positive*%
%FSLAX46Y46*%
G04 Gerber Fmt 4.6, Leading zero omitted, Abs format (unit mm)*
G04 Created by KiCad (PCBNEW (6.0.0)) date 2022-05-11 10:24:23*
%MOMM*%
%LPD*%
G01*
G04 APERTURE LIST*
%TA.AperFunction,ComponentPad*%
%ADD10C,1.600000*%
%TD*%
%TA.AperFunction,ComponentPad*%
%ADD11O,1.727200X2.032000*%
%TD*%
%TA.AperFunction,ComponentPad*%
%ADD12O,1.600000X1.600000*%
%TD*%
%TA.AperFunction,ComponentPad*%
%ADD13R,0.850000X0.850000*%
%TD*%
%TA.AperFunction,ComponentPad*%
%ADD14R,1.600000X1.600000*%
%TD*%
%TA.AperFunction,ComponentPad*%
%ADD15C,2.000000*%
%TD*%
%TA.AperFunction,ComponentPad*%
%ADD16R,1.350000X1.350000*%
%TD*%
%TA.AperFunction,ComponentPad*%
%ADD17O,1.350000X1.350000*%
%TD*%
%TA.AperFunction,ViaPad*%
%ADD18C,0.800000*%
%TD*%
G04 APERTURE END LIST*
D10*
%TO.N,GNDA*%
%TO.C,C7*%
X145872200Y-111368200D03*
%TO.N,+5V*%
X145872200Y-116368200D03*
%TD*%
%TO.N,Net-(C6-Pad1)*%
%TO.C,C6*%
X146721200Y-86817200D03*
%TO.N,Net-(C6-Pad2)*%
X141721200Y-86817200D03*
%TD*%
%TO.N,/v_cm*%
%TO.C,C4*%
X139395200Y-113853600D03*
%TO.N,GNDA*%
X139395200Y-108853600D03*
%TD*%
%TO.N,Net-(C3-Pad1)*%
%TO.C,C3*%
X126238000Y-83185000D03*
%TO.N,Net-(C3-Pad2)*%
X126238000Y-88185000D03*
%TD*%
D11*
%TO.N,unconnected-(P1-Pad1)*%
%TO.C,P1*%
X138938000Y-123825000D03*
%TO.N,/IOREF*%
X141478000Y-123825000D03*
%TO.N,/Reset*%
X144018000Y-123825000D03*
%TO.N,unconnected-(P1-Pad4)*%
X146558000Y-123825000D03*
%TO.N,+5V*%
X149098000Y-123825000D03*
%TO.N,GND*%
X151638000Y-123825000D03*
X154178000Y-123825000D03*
%TO.N,/Vin*%
X156718000Y-123825000D03*
%TD*%
%TO.N,/A0*%
%TO.C,P2*%
X161798000Y-123825000D03*
%TO.N,/A1*%
X164338000Y-123825000D03*
%TO.N,/A2*%
X166878000Y-123825000D03*
%TO.N,/A3*%
X169418000Y-123825000D03*
%TO.N,unconnected-(P2-Pad5)*%
X171958000Y-123825000D03*
%TO.N,unconnected-(P2-Pad6)*%
X174498000Y-123825000D03*
%TD*%
%TO.N,unconnected-(P3-Pad1)*%
%TO.C,P3*%
X129794000Y-75565000D03*
%TO.N,unconnected-(P3-Pad2)*%
X132334000Y-75565000D03*
%TO.N,/AREF*%
X134874000Y-75565000D03*
%TO.N,unconnected-(P3-Pad4)*%
X137414000Y-75565000D03*
%TO.N,/D13(SCK)*%
X139954000Y-75565000D03*
%TO.N,/D12(MISO)*%
X142494000Y-75565000D03*
%TO.N,/D11(\u002A\u002A{slash}MOSI)*%
X145034000Y-75565000D03*
%TO.N,/D10(\u002A\u002A{slash}SS)*%
X147574000Y-75565000D03*
%TO.N,/D9*%
X150114000Y-75565000D03*
%TO.N,/D8*%
X152654000Y-75565000D03*
%TD*%
%TO.N,/D7*%
%TO.C,P4*%
X156718000Y-75565000D03*
%TO.N,/D6*%
X159258000Y-75565000D03*
%TO.N,/D5*%
X161798000Y-75565000D03*
%TO.N,/D4*%
X164338000Y-75565000D03*
%TO.N,/D3*%
X166878000Y-75565000D03*
%TO.N,/D2*%
X169418000Y-75565000D03*
%TO.N,/D1(Tx)*%
X171958000Y-75565000D03*
%TO.N,/D0(Rx)*%
X174498000Y-75565000D03*
%TD*%
D10*
%TO.N,Net-(C6-Pad1)*%
%TO.C,R6*%
X150571200Y-81178400D03*
D12*
%TO.N,Net-(C6-Pad2)*%
X140411200Y-81178400D03*
%TD*%
%TO.N,Net-(C6-Pad1)*%
%TO.C,R5*%
X115443000Y-80645000D03*
D10*
%TO.N,Net-(C5-Pad2)*%
X115443000Y-90805000D03*
%TD*%
D12*
%TO.N,Net-(C3-Pad1)*%
%TO.C,R3*%
X135204200Y-103708200D03*
D10*
%TO.N,Net-(C1-Pad1)*%
X125044200Y-103708200D03*
%TD*%
%TO.N,+5V*%
%TO.C,R1*%
X132816600Y-108153200D03*
D12*
%TO.N,/v_cm*%
X132816600Y-118313200D03*
%TD*%
D13*
%TO.N,/V_IN*%
%TO.C,sensor_out*%
X122301000Y-107950000D03*
%TD*%
D14*
%TO.N,/v_cm*%
%TO.C,C2*%
X143383000Y-106248200D03*
D10*
%TO.N,GNDA*%
X145883000Y-106248200D03*
%TD*%
D14*
%TO.N,Net-(C3-Pad2)*%
%TO.C,U1*%
X136662000Y-99812000D03*
D12*
%TO.N,Net-(C3-Pad1)*%
X139202000Y-99812000D03*
%TO.N,/v_cm*%
X141742000Y-99812000D03*
%TO.N,GNDA*%
X144282000Y-99812000D03*
%TO.N,/v_cm*%
X144282000Y-92192000D03*
%TO.N,Net-(C6-Pad1)*%
X141742000Y-92192000D03*
%TO.N,Net-(C6-Pad2)*%
X139202000Y-92192000D03*
%TO.N,+5V*%
X136662000Y-92192000D03*
%TD*%
D15*
%TO.N,GNDD*%
%TO.C,SW1*%
X174319000Y-84673000D03*
X167819000Y-84673000D03*
%TO.N,/D7*%
X167819000Y-80173000D03*
X174319000Y-80173000D03*
%TD*%
D10*
%TO.N,Net-(C6-Pad2)*%
%TO.C,R7*%
X150977600Y-97155000D03*
D12*
%TO.N,/A0*%
X150977600Y-107315000D03*
%TD*%
D13*
%TO.N,GNDA*%
%TO.C,GNDA*%
X133985000Y-83566000D03*
%TD*%
%TO.N,Net-(C6-Pad2)*%
%TO.C,OP2_out*%
X132334000Y-93472000D03*
%TD*%
D14*
%TO.N,Net-(C1-Pad1)*%
%TO.C,C1*%
X124776113Y-97322000D03*
D10*
%TO.N,/V_IN*%
X122276113Y-97322000D03*
%TD*%
D14*
%TO.N,Net-(C3-Pad2)*%
%TO.C,C5*%
X117156113Y-97282000D03*
D10*
%TO.N,Net-(C5-Pad2)*%
X114656113Y-97282000D03*
%TD*%
D16*
%TO.N,GNDA*%
%TO.C,sensor*%
X119098200Y-105950000D03*
D17*
%TO.N,/V_IN*%
X119098200Y-107950000D03*
%TO.N,+5V*%
X119098200Y-109950000D03*
%TD*%
D13*
%TO.N,Net-(C3-Pad2)*%
%TO.C,OP1_out*%
X132334000Y-99685000D03*
%TD*%
D10*
%TO.N,GNDA*%
%TO.C,R2*%
X127965200Y-108000800D03*
D12*
%TO.N,/v_cm*%
X127965200Y-118160800D03*
%TD*%
D13*
%TO.N,/v_cm*%
%TO.C,v_d_out*%
X140335000Y-118237000D03*
%TD*%
%TO.N,GNDD*%
%TO.C,GNDD*%
X169545000Y-106059700D03*
%TD*%
%TO.N,GNDA*%
%TO.C,GNDA*%
X133985000Y-88519000D03*
%TD*%
D12*
%TO.N,Net-(C3-Pad2)*%
%TO.C,R4*%
X120523000Y-90805000D03*
D10*
%TO.N,Net-(C3-Pad1)*%
X120523000Y-80645000D03*
%TD*%
D18*
%TO.N,GNDA*%
X151765000Y-119126000D03*
%TO.N,Net-(C3-Pad1)*%
X129413000Y-90170000D03*
%TO.N,+5V*%
X174447200Y-103784400D03*
%TO.N,/A0*%
X159029400Y-118770400D03*
X154000200Y-113868200D03*
%TO.N,Net-(C6-Pad2)*%
X144526000Y-95885000D03*
%TD*%
%TA.AperFunction,Conductor*%
%TO.N,GNDA*%
G36*
X153891597Y-78099602D02*
G01*
X153938090Y-78153258D01*
X153949476Y-78205524D01*
X153960351Y-96182151D01*
X153969971Y-112082556D01*
X153970431Y-112843622D01*
X153950470Y-112911755D01*
X153896843Y-112958280D01*
X153870628Y-112966945D01*
X153717912Y-112999406D01*
X153711882Y-113002091D01*
X153711881Y-113002091D01*
X153549478Y-113074397D01*
X153549476Y-113074398D01*
X153543448Y-113077082D01*
X153388947Y-113189334D01*
X153261160Y-113331256D01*
X153165673Y-113496644D01*
X153106658Y-113678272D01*
X153105968Y-113684833D01*
X153105968Y-113684835D01*
X153087655Y-113859075D01*
X153086696Y-113868200D01*
X153106658Y-114058128D01*
X153165673Y-114239756D01*
X153261160Y-114405144D01*
X153265578Y-114410051D01*
X153265579Y-114410052D01*
X153355887Y-114510349D01*
X153388947Y-114547066D01*
X153543448Y-114659318D01*
X153549476Y-114662002D01*
X153549478Y-114662003D01*
X153711881Y-114734309D01*
X153717912Y-114736994D01*
X153871868Y-114769719D01*
X153934340Y-114803446D01*
X153968662Y-114865596D01*
X153971670Y-114892889D01*
X153974534Y-119626219D01*
X153974800Y-120065800D01*
X153982339Y-120073339D01*
X153989718Y-120098414D01*
X153988324Y-120098824D01*
X154000669Y-120128600D01*
X154001358Y-120139061D01*
X154022934Y-121030464D01*
X154004586Y-121099049D01*
X153952071Y-121146827D01*
X153896965Y-121159513D01*
X127076200Y-121158000D01*
X112140074Y-121158000D01*
X112071953Y-121137998D01*
X112025460Y-121084342D01*
X112014074Y-121031926D01*
X112014601Y-120139061D01*
X112015767Y-118160800D01*
X126651702Y-118160800D01*
X126671657Y-118388887D01*
X126730916Y-118610043D01*
X126733239Y-118615024D01*
X126733239Y-118615025D01*
X126825351Y-118812562D01*
X126825354Y-118812567D01*
X126827677Y-118817549D01*
X126959002Y-119005100D01*
X127120900Y-119166998D01*
X127125408Y-119170155D01*
X127125411Y-119170157D01*
X127125901Y-119170500D01*
X127308451Y-119298323D01*
X127313433Y-119300646D01*
X127313438Y-119300649D01*
X127510975Y-119392761D01*
X127515957Y-119395084D01*
X127521265Y-119396506D01*
X127521267Y-119396507D01*
X127731798Y-119452919D01*
X127731800Y-119452919D01*
X127737113Y-119454343D01*
X127965200Y-119474298D01*
X128193287Y-119454343D01*
X128198600Y-119452919D01*
X128198602Y-119452919D01*
X128409133Y-119396507D01*
X128409135Y-119396506D01*
X128414443Y-119395084D01*
X128419425Y-119392761D01*
X128616962Y-119300649D01*
X128616967Y-119300646D01*
X128621949Y-119298323D01*
X128804499Y-119170500D01*
X128804989Y-119170157D01*
X128804992Y-119170155D01*
X128809500Y-119166998D01*
X128971398Y-119005100D01*
X129102723Y-118817549D01*
X129105046Y-118812567D01*
X129105049Y-118812562D01*
X129197161Y-118615025D01*
X129197161Y-118615024D01*
X129199484Y-118610043D01*
X129258743Y-118388887D01*
X129265365Y-118313200D01*
X131503102Y-118313200D01*
X131523057Y-118541287D01*
X131582316Y-118762443D01*
X131584639Y-118767424D01*
X131584639Y-118767425D01*
X131676751Y-118964962D01*
X131676754Y-118964967D01*
X131679077Y-118969949D01*
X131810402Y-119157500D01*
X131972300Y-119319398D01*
X131976808Y-119322555D01*
X131976811Y-119322557D01*
X132054989Y-119377298D01*
X132159851Y-119450723D01*
X132164833Y-119453046D01*
X132164838Y-119453049D01*
X132362375Y-119545161D01*
X132367357Y-119547484D01*
X132372665Y-119548906D01*
X132372667Y-119548907D01*
X132583198Y-119605319D01*
X132583200Y-119605319D01*
X132588513Y-119606743D01*
X132816600Y-119626698D01*
X133044687Y-119606743D01*
X133050000Y-119605319D01*
X133050002Y-119605319D01*
X133260533Y-119548907D01*
X133260535Y-119548906D01*
X133265843Y-119547484D01*
X133270825Y-119545161D01*
X133468362Y-119453049D01*
X133468367Y-119453046D01*
X133473349Y-119450723D01*
X133578211Y-119377298D01*
X133656389Y-119322557D01*
X133656392Y-119322555D01*
X133660900Y-119319398D01*
X133822798Y-119157500D01*
X133954123Y-118969949D01*
X133956446Y-118964967D01*
X133956449Y-118964962D01*
X134048561Y-118767425D01*
X134048561Y-118767424D01*
X134050884Y-118762443D01*
X134064900Y-118710134D01*
X139401500Y-118710134D01*
X139408255Y-118772316D01*
X139459385Y-118908705D01*
X139546739Y-119025261D01*
X139663295Y-119112615D01*
X139799684Y-119163745D01*
X139861866Y-119170500D01*
X140808134Y-119170500D01*
X140870316Y-119163745D01*
X141006705Y-119112615D01*
X141123261Y-119025261D01*
X141210615Y-118908705D01*
X141261745Y-118772316D01*
X141268500Y-118710134D01*
X141268500Y-117763866D01*
X141261745Y-117701684D01*
X141210615Y-117565295D01*
X141123261Y-117448739D01*
X141006705Y-117361385D01*
X140870316Y-117310255D01*
X140808134Y-117303500D01*
X139861866Y-117303500D01*
X139799684Y-117310255D01*
X139663295Y-117361385D01*
X139546739Y-117448739D01*
X139459385Y-117565295D01*
X139408255Y-117701684D01*
X139401500Y-117763866D01*
X139401500Y-118710134D01*
X134064900Y-118710134D01*
X134110143Y-118541287D01*
X134130098Y-118313200D01*
X134110143Y-118085113D01*
X134050884Y-117863957D01*
X134048561Y-117858975D01*
X133956449Y-117661438D01*
X133956446Y-117661433D01*
X133954123Y-117656451D01*
X133822798Y-117468900D01*
X133660900Y-117307002D01*
X133656392Y-117303845D01*
X133656389Y-117303843D01*
X133531503Y-117216397D01*
X133473349Y-117175677D01*
X133468367Y-117173354D01*
X133468362Y-117173351D01*
X133270825Y-117081239D01*
X133270824Y-117081239D01*
X133265843Y-117078916D01*
X133260535Y-117077494D01*
X133260533Y-117077493D01*
X133050002Y-117021081D01*
X133050000Y-117021081D01*
X133044687Y-117019657D01*
X132816600Y-116999702D01*
X132588513Y-117019657D01*
X132583200Y-117021081D01*
X132583198Y-117021081D01*
X132372667Y-117077493D01*
X132372665Y-117077494D01*
X132367357Y-117078916D01*
X132362376Y-117081239D01*
X132362375Y-117081239D01*
X132164838Y-117173351D01*
X132164833Y-117173354D01*
X132159851Y-117175677D01*
X132101697Y-117216397D01*
X131976811Y-117303843D01*
X131976808Y-117303845D01*
X131972300Y-117307002D01*
X131810402Y-117468900D01*
X131679077Y-117656451D01*
X131676754Y-117661433D01*
X131676751Y-117661438D01*
X131584639Y-117858975D01*
X131582316Y-117863957D01*
X131523057Y-118085113D01*
X131503102Y-118313200D01*
X129265365Y-118313200D01*
X129278698Y-118160800D01*
X129258743Y-117932713D01*
X129199484Y-117711557D01*
X129176256Y-117661743D01*
X129105049Y-117509038D01*
X129105046Y-117509033D01*
X129102723Y-117504051D01*
X128971398Y-117316500D01*
X128809500Y-117154602D01*
X128804992Y-117151445D01*
X128804989Y-117151443D01*
X128699377Y-117077493D01*
X128621949Y-117023277D01*
X128616967Y-117020954D01*
X128616962Y-117020951D01*
X128419425Y-116928839D01*
X128419424Y-116928839D01*
X128414443Y-116926516D01*
X128409135Y-116925094D01*
X128409133Y-116925093D01*
X128198602Y-116868681D01*
X128198600Y-116868681D01*
X128193287Y-116867257D01*
X127965200Y-116847302D01*
X127737113Y-116867257D01*
X127731800Y-116868681D01*
X127731798Y-116868681D01*
X127521267Y-116925093D01*
X127521265Y-116925094D01*
X127515957Y-116926516D01*
X127510976Y-116928839D01*
X127510975Y-116928839D01*
X127313438Y-117020951D01*
X127313433Y-117020954D01*
X127308451Y-117023277D01*
X127231023Y-117077493D01*
X127125411Y-117151443D01*
X127125408Y-117151445D01*
X127120900Y-117154602D01*
X126959002Y-117316500D01*
X126827677Y-117504051D01*
X126825354Y-117509033D01*
X126825351Y-117509038D01*
X126754144Y-117661743D01*
X126730916Y-117711557D01*
X126671657Y-117932713D01*
X126651702Y-118160800D01*
X112015767Y-118160800D01*
X112016824Y-116368200D01*
X144558702Y-116368200D01*
X144578657Y-116596287D01*
X144637916Y-116817443D01*
X144640239Y-116822424D01*
X144640239Y-116822425D01*
X144732351Y-117019962D01*
X144732354Y-117019967D01*
X144734677Y-117024949D01*
X144866002Y-117212500D01*
X145027900Y-117374398D01*
X145032408Y-117377555D01*
X145032411Y-117377557D01*
X145110589Y-117432298D01*
X145215451Y-117505723D01*
X145220433Y-117508046D01*
X145220438Y-117508049D01*
X145417975Y-117600161D01*
X145422957Y-117602484D01*
X145428265Y-117603906D01*
X145428267Y-117603907D01*
X145638798Y-117660319D01*
X145638800Y-117660319D01*
X145644113Y-117661743D01*
X145872200Y-117681698D01*
X146100287Y-117661743D01*
X146105600Y-117660319D01*
X146105602Y-117660319D01*
X146316133Y-117603907D01*
X146316135Y-117603906D01*
X146321443Y-117602484D01*
X146326425Y-117600161D01*
X146523962Y-117508049D01*
X146523967Y-117508046D01*
X146528949Y-117505723D01*
X146633811Y-117432298D01*
X146711989Y-117377557D01*
X146711992Y-117377555D01*
X146716500Y-117374398D01*
X146878398Y-117212500D01*
X147009723Y-117024949D01*
X147012046Y-117019967D01*
X147012049Y-117019962D01*
X147104161Y-116822425D01*
X147104161Y-116822424D01*
X147106484Y-116817443D01*
X147165743Y-116596287D01*
X147185698Y-116368200D01*
X147165743Y-116140113D01*
X147106484Y-115918957D01*
X147104161Y-115913975D01*
X147012049Y-115716438D01*
X147012046Y-115716433D01*
X147009723Y-115711451D01*
X146878398Y-115523900D01*
X146716500Y-115362002D01*
X146711992Y-115358845D01*
X146711989Y-115358843D01*
X146633811Y-115304102D01*
X146528949Y-115230677D01*
X146523967Y-115228354D01*
X146523962Y-115228351D01*
X146326425Y-115136239D01*
X146326424Y-115136239D01*
X146321443Y-115133916D01*
X146316135Y-115132494D01*
X146316133Y-115132493D01*
X146105602Y-115076081D01*
X146105600Y-115076081D01*
X146100287Y-115074657D01*
X145872200Y-115054702D01*
X145644113Y-115074657D01*
X145638800Y-115076081D01*
X145638798Y-115076081D01*
X145428267Y-115132493D01*
X145428265Y-115132494D01*
X145422957Y-115133916D01*
X145417976Y-115136239D01*
X145417975Y-115136239D01*
X145220438Y-115228351D01*
X145220433Y-115228354D01*
X145215451Y-115230677D01*
X145110589Y-115304102D01*
X145032411Y-115358843D01*
X145032408Y-115358845D01*
X145027900Y-115362002D01*
X144866002Y-115523900D01*
X144734677Y-115711451D01*
X144732354Y-115716433D01*
X144732351Y-115716438D01*
X144640239Y-115913975D01*
X144637916Y-115918957D01*
X144578657Y-116140113D01*
X144558702Y-116368200D01*
X112016824Y-116368200D01*
X112018307Y-113853600D01*
X138081702Y-113853600D01*
X138101657Y-114081687D01*
X138160916Y-114302843D01*
X138163239Y-114307824D01*
X138163239Y-114307825D01*
X138255351Y-114505362D01*
X138255354Y-114505367D01*
X138257677Y-114510349D01*
X138260834Y-114514857D01*
X138363867Y-114662003D01*
X138389002Y-114697900D01*
X138550900Y-114859798D01*
X138555408Y-114862955D01*
X138555411Y-114862957D01*
X138633589Y-114917698D01*
X138738451Y-114991123D01*
X138743433Y-114993446D01*
X138743438Y-114993449D01*
X138916564Y-115074178D01*
X138945957Y-115087884D01*
X138951265Y-115089306D01*
X138951267Y-115089307D01*
X139161798Y-115145719D01*
X139161800Y-115145719D01*
X139167113Y-115147143D01*
X139395200Y-115167098D01*
X139623287Y-115147143D01*
X139628600Y-115145719D01*
X139628602Y-115145719D01*
X139839133Y-115089307D01*
X139839135Y-115089306D01*
X139844443Y-115087884D01*
X139873836Y-115074178D01*
X140046962Y-114993449D01*
X140046967Y-114993446D01*
X140051949Y-114991123D01*
X140156811Y-114917698D01*
X140234989Y-114862957D01*
X140234992Y-114862955D01*
X140239500Y-114859798D01*
X140401398Y-114697900D01*
X140426534Y-114662003D01*
X140529566Y-114514857D01*
X140532723Y-114510349D01*
X140535046Y-114505367D01*
X140535049Y-114505362D01*
X140627161Y-114307825D01*
X140627161Y-114307824D01*
X140629484Y-114302843D01*
X140688743Y-114081687D01*
X140708698Y-113853600D01*
X140688743Y-113625513D01*
X140687319Y-113620198D01*
X140630907Y-113409667D01*
X140630906Y-113409665D01*
X140629484Y-113404357D01*
X140593108Y-113326348D01*
X140535049Y-113201838D01*
X140535046Y-113201833D01*
X140532723Y-113196851D01*
X140401398Y-113009300D01*
X140239500Y-112847402D01*
X140234992Y-112844245D01*
X140234989Y-112844243D01*
X140156811Y-112789502D01*
X140051949Y-112716077D01*
X140046967Y-112713754D01*
X140046962Y-112713751D01*
X139849425Y-112621639D01*
X139849424Y-112621639D01*
X139844443Y-112619316D01*
X139839135Y-112617894D01*
X139839133Y-112617893D01*
X139628602Y-112561481D01*
X139628600Y-112561481D01*
X139623287Y-112560057D01*
X139395200Y-112540102D01*
X139167113Y-112560057D01*
X139161800Y-112561481D01*
X139161798Y-112561481D01*
X138951267Y-112617893D01*
X138951265Y-112617894D01*
X138945957Y-112619316D01*
X138940976Y-112621639D01*
X138940975Y-112621639D01*
X138743438Y-112713751D01*
X138743433Y-112713754D01*
X138738451Y-112716077D01*
X138633589Y-112789502D01*
X138555411Y-112844243D01*
X138555408Y-112844245D01*
X138550900Y-112847402D01*
X138389002Y-113009300D01*
X138257677Y-113196851D01*
X138255354Y-113201833D01*
X138255351Y-113201838D01*
X138197292Y-113326348D01*
X138160916Y-113404357D01*
X138159494Y-113409665D01*
X138159493Y-113409667D01*
X138103081Y-113620198D01*
X138101657Y-113625513D01*
X138081702Y-113853600D01*
X112018307Y-113853600D01*
X112019132Y-112454262D01*
X145150693Y-112454262D01*
X145159989Y-112466277D01*
X145211194Y-112502131D01*
X145220689Y-112507614D01*
X145418147Y-112599690D01*
X145428439Y-112603436D01*
X145638888Y-112659825D01*
X145649681Y-112661728D01*
X145866725Y-112680717D01*
X145877675Y-112680717D01*
X146094719Y-112661728D01*
X146105512Y-112659825D01*
X146315961Y-112603436D01*
X146326253Y-112599690D01*
X146523711Y-112507614D01*
X146533206Y-112502131D01*
X146585248Y-112465691D01*
X146593624Y-112455212D01*
X146586556Y-112441766D01*
X145885012Y-111740222D01*
X145871068Y-111732608D01*
X145869235Y-111732739D01*
X145862620Y-111736990D01*
X145157123Y-112442487D01*
X145150693Y-112454262D01*
X112019132Y-112454262D01*
X112019769Y-111373675D01*
X144559683Y-111373675D01*
X144578672Y-111590719D01*
X144580575Y-111601512D01*
X144636964Y-111811961D01*
X144640710Y-111822253D01*
X144732786Y-112019711D01*
X144738269Y-112029206D01*
X144774709Y-112081248D01*
X144785188Y-112089624D01*
X144798634Y-112082556D01*
X145500178Y-111381012D01*
X145506556Y-111369332D01*
X146236608Y-111369332D01*
X146236739Y-111371165D01*
X146240990Y-111377780D01*
X146946487Y-112083277D01*
X146958262Y-112089707D01*
X146970277Y-112080411D01*
X147006131Y-112029206D01*
X147011614Y-112019711D01*
X147103690Y-111822253D01*
X147107436Y-111811961D01*
X147163825Y-111601512D01*
X147165728Y-111590719D01*
X147184717Y-111373675D01*
X147184717Y-111362725D01*
X147165728Y-111145681D01*
X147163825Y-111134888D01*
X147107436Y-110924439D01*
X147103690Y-110914147D01*
X147011614Y-110716689D01*
X147006131Y-110707194D01*
X146969691Y-110655152D01*
X146959212Y-110646776D01*
X146945766Y-110653844D01*
X146244222Y-111355388D01*
X146236608Y-111369332D01*
X145506556Y-111369332D01*
X145507792Y-111367068D01*
X145507661Y-111365235D01*
X145503410Y-111358620D01*
X144797913Y-110653123D01*
X144786138Y-110646693D01*
X144774123Y-110655989D01*
X144738269Y-110707194D01*
X144732786Y-110716689D01*
X144640710Y-110914147D01*
X144636964Y-110924439D01*
X144580575Y-111134888D01*
X144578672Y-111145681D01*
X144559683Y-111362725D01*
X144559683Y-111373675D01*
X112019769Y-111373675D01*
X112020627Y-109918887D01*
X117910037Y-109918887D01*
X117924263Y-110135933D01*
X117925684Y-110141529D01*
X117925685Y-110141534D01*
X117949237Y-110234269D01*
X117977805Y-110346753D01*
X118068868Y-110544285D01*
X118194404Y-110721914D01*
X118350209Y-110873692D01*
X118531063Y-110994536D01*
X118536371Y-110996817D01*
X118536372Y-110996817D01*
X118725609Y-111078119D01*
X118725612Y-111078120D01*
X118730912Y-111080397D01*
X118736542Y-111081671D01*
X118834664Y-111103874D01*
X118943060Y-111128402D01*
X118948831Y-111128629D01*
X118948833Y-111128629D01*
X119021820Y-111131496D01*
X119160405Y-111136941D01*
X119375666Y-111105730D01*
X119381130Y-111103875D01*
X119381135Y-111103874D01*
X119576163Y-111037671D01*
X119576168Y-111037669D01*
X119581635Y-111035813D01*
X119638813Y-111003792D01*
X119661072Y-110991326D01*
X119771413Y-110929532D01*
X119938646Y-110790446D01*
X120077732Y-110623213D01*
X120184013Y-110433435D01*
X120185869Y-110427968D01*
X120185871Y-110427963D01*
X120235694Y-110281188D01*
X145150776Y-110281188D01*
X145157844Y-110294634D01*
X145859388Y-110996178D01*
X145873332Y-111003792D01*
X145875165Y-111003661D01*
X145881780Y-110999410D01*
X146587277Y-110293913D01*
X146593707Y-110282138D01*
X146584411Y-110270123D01*
X146533206Y-110234269D01*
X146523711Y-110228786D01*
X146326253Y-110136710D01*
X146315961Y-110132964D01*
X146105512Y-110076575D01*
X146094719Y-110074672D01*
X145877675Y-110055683D01*
X145866725Y-110055683D01*
X145649681Y-110074672D01*
X145638888Y-110076575D01*
X145428439Y-110132964D01*
X145418147Y-110136710D01*
X145220689Y-110228786D01*
X145211194Y-110234269D01*
X145159152Y-110270709D01*
X145150776Y-110281188D01*
X120235694Y-110281188D01*
X120252074Y-110232935D01*
X120252075Y-110232930D01*
X120253930Y-110227466D01*
X120285141Y-110012205D01*
X120286770Y-109950000D01*
X120285820Y-109939662D01*
X138673693Y-109939662D01*
X138682989Y-109951677D01*
X138734194Y-109987531D01*
X138743689Y-109993014D01*
X138941147Y-110085090D01*
X138951439Y-110088836D01*
X139161888Y-110145225D01*
X139172681Y-110147128D01*
X139389725Y-110166117D01*
X139400675Y-110166117D01*
X139617719Y-110147128D01*
X139628512Y-110145225D01*
X139838961Y-110088836D01*
X139849253Y-110085090D01*
X140046711Y-109993014D01*
X140056206Y-109987531D01*
X140108248Y-109951091D01*
X140116624Y-109940612D01*
X140109556Y-109927166D01*
X139408012Y-109225622D01*
X139394068Y-109218008D01*
X139392235Y-109218139D01*
X139385620Y-109222390D01*
X138680123Y-109927887D01*
X138673693Y-109939662D01*
X120285820Y-109939662D01*
X120266867Y-109733400D01*
X120207826Y-109524055D01*
X120111623Y-109328974D01*
X120099932Y-109313317D01*
X119984933Y-109159315D01*
X119984932Y-109159314D01*
X119981480Y-109154691D01*
X119959888Y-109134731D01*
X119908103Y-109086862D01*
X127243693Y-109086862D01*
X127252989Y-109098877D01*
X127304194Y-109134731D01*
X127313689Y-109140214D01*
X127511147Y-109232290D01*
X127521439Y-109236036D01*
X127731888Y-109292425D01*
X127742681Y-109294328D01*
X127959725Y-109313317D01*
X127970675Y-109313317D01*
X128187719Y-109294328D01*
X128198512Y-109292425D01*
X128408961Y-109236036D01*
X128419253Y-109232290D01*
X128616711Y-109140214D01*
X128626206Y-109134731D01*
X128678248Y-109098291D01*
X128686624Y-109087812D01*
X128679556Y-109074366D01*
X127978012Y-108372822D01*
X127964068Y-108365208D01*
X127962235Y-108365339D01*
X127955620Y-108369590D01*
X127250123Y-109075087D01*
X127243693Y-109086862D01*
X119908103Y-109086862D01*
X119859278Y-109041729D01*
X119822833Y-108980800D01*
X119825114Y-108909840D01*
X119864238Y-108852330D01*
X119934208Y-108794137D01*
X119938646Y-108790446D01*
X120077732Y-108623213D01*
X120184013Y-108433435D01*
X120185869Y-108427968D01*
X120185871Y-108427963D01*
X120187510Y-108423134D01*
X121367500Y-108423134D01*
X121374255Y-108485316D01*
X121425385Y-108621705D01*
X121512739Y-108738261D01*
X121629295Y-108825615D01*
X121765684Y-108876745D01*
X121827866Y-108883500D01*
X122774134Y-108883500D01*
X122836316Y-108876745D01*
X122972705Y-108825615D01*
X123089261Y-108738261D01*
X123176615Y-108621705D01*
X123227745Y-108485316D01*
X123234500Y-108423134D01*
X123234500Y-108006275D01*
X126652683Y-108006275D01*
X126671672Y-108223319D01*
X126673575Y-108234112D01*
X126729964Y-108444561D01*
X126733710Y-108454853D01*
X126825786Y-108652311D01*
X126831269Y-108661806D01*
X126867709Y-108713848D01*
X126878188Y-108722224D01*
X126891634Y-108715156D01*
X127593178Y-108013612D01*
X127599556Y-108001932D01*
X128329608Y-108001932D01*
X128329739Y-108003765D01*
X128333990Y-108010380D01*
X129039487Y-108715877D01*
X129051262Y-108722307D01*
X129063277Y-108713011D01*
X129099131Y-108661806D01*
X129104614Y-108652311D01*
X129196690Y-108454853D01*
X129200436Y-108444561D01*
X129256825Y-108234112D01*
X129258728Y-108223319D01*
X129264863Y-108153200D01*
X131503102Y-108153200D01*
X131523057Y-108381287D01*
X131524481Y-108386600D01*
X131524481Y-108386602D01*
X131567450Y-108546961D01*
X131582316Y-108602443D01*
X131584639Y-108607424D01*
X131584639Y-108607425D01*
X131676751Y-108804962D01*
X131676754Y-108804967D01*
X131679077Y-108809949D01*
X131730320Y-108883131D01*
X131798709Y-108980800D01*
X131810402Y-108997500D01*
X131972300Y-109159398D01*
X131976808Y-109162555D01*
X131976811Y-109162557D01*
X132054989Y-109217298D01*
X132159851Y-109290723D01*
X132164833Y-109293046D01*
X132164838Y-109293049D01*
X132362375Y-109385161D01*
X132367357Y-109387484D01*
X132372665Y-109388906D01*
X132372667Y-109388907D01*
X132583198Y-109445319D01*
X132583200Y-109445319D01*
X132588513Y-109446743D01*
X132816600Y-109466698D01*
X133044687Y-109446743D01*
X133050000Y-109445319D01*
X133050002Y-109445319D01*
X133260533Y-109388907D01*
X133260535Y-109388906D01*
X133265843Y-109387484D01*
X133270825Y-109385161D01*
X133468362Y-109293049D01*
X133468367Y-109293046D01*
X133473349Y-109290723D01*
X133578211Y-109217298D01*
X133656389Y-109162557D01*
X133656392Y-109162555D01*
X133660900Y-109159398D01*
X133822798Y-108997500D01*
X133834492Y-108980800D01*
X133902880Y-108883131D01*
X133919724Y-108859075D01*
X138082683Y-108859075D01*
X138101672Y-109076119D01*
X138103575Y-109086912D01*
X138159964Y-109297361D01*
X138163710Y-109307653D01*
X138255786Y-109505111D01*
X138261269Y-109514606D01*
X138297709Y-109566648D01*
X138308188Y-109575024D01*
X138321634Y-109567956D01*
X139023178Y-108866412D01*
X139029556Y-108854732D01*
X139759608Y-108854732D01*
X139759739Y-108856565D01*
X139763990Y-108863180D01*
X140469487Y-109568677D01*
X140481262Y-109575107D01*
X140493277Y-109565811D01*
X140529131Y-109514606D01*
X140534614Y-109505111D01*
X140626690Y-109307653D01*
X140630436Y-109297361D01*
X140686825Y-109086912D01*
X140688728Y-109076119D01*
X140707717Y-108859075D01*
X140707717Y-108848125D01*
X140688728Y-108631081D01*
X140686825Y-108620288D01*
X140630436Y-108409839D01*
X140626690Y-108399547D01*
X140534614Y-108202089D01*
X140529131Y-108192594D01*
X140492691Y-108140552D01*
X140482212Y-108132176D01*
X140468766Y-108139244D01*
X139767222Y-108840788D01*
X139759608Y-108854732D01*
X139029556Y-108854732D01*
X139030792Y-108852468D01*
X139030661Y-108850635D01*
X139026410Y-108844020D01*
X138320913Y-108138523D01*
X138309138Y-108132093D01*
X138297123Y-108141389D01*
X138261269Y-108192594D01*
X138255786Y-108202089D01*
X138163710Y-108399547D01*
X138159964Y-108409839D01*
X138103575Y-108620288D01*
X138101672Y-108631081D01*
X138082683Y-108848125D01*
X138082683Y-108859075D01*
X133919724Y-108859075D01*
X133954123Y-108809949D01*
X133956446Y-108804967D01*
X133956449Y-108804962D01*
X134048561Y-108607425D01*
X134048561Y-108607424D01*
X134050884Y-108602443D01*
X134065751Y-108546961D01*
X134108719Y-108386602D01*
X134108719Y-108386600D01*
X134110143Y-108381287D01*
X134130098Y-108153200D01*
X134110143Y-107925113D01*
X134067666Y-107766588D01*
X138673776Y-107766588D01*
X138680844Y-107780034D01*
X139382388Y-108481578D01*
X139396332Y-108489192D01*
X139398165Y-108489061D01*
X139404780Y-108484810D01*
X140110277Y-107779313D01*
X140116707Y-107767538D01*
X140107411Y-107755523D01*
X140056206Y-107719669D01*
X140046711Y-107714186D01*
X139849253Y-107622110D01*
X139838961Y-107618364D01*
X139628512Y-107561975D01*
X139617719Y-107560072D01*
X139400675Y-107541083D01*
X139389725Y-107541083D01*
X139172681Y-107560072D01*
X139161888Y-107561975D01*
X138951439Y-107618364D01*
X138941147Y-107622110D01*
X138743689Y-107714186D01*
X138734194Y-107719669D01*
X138682152Y-107756109D01*
X138673776Y-107766588D01*
X134067666Y-107766588D01*
X134058773Y-107733400D01*
X134052307Y-107709267D01*
X134052306Y-107709265D01*
X134050884Y-107703957D01*
X134015828Y-107628778D01*
X133956449Y-107501438D01*
X133956446Y-107501433D01*
X133954123Y-107496451D01*
X133848970Y-107346277D01*
X133825957Y-107313411D01*
X133825955Y-107313408D01*
X133822798Y-107308900D01*
X133660900Y-107147002D01*
X133656392Y-107143845D01*
X133656389Y-107143843D01*
X133588539Y-107096334D01*
X142074500Y-107096334D01*
X142081255Y-107158516D01*
X142132385Y-107294905D01*
X142219739Y-107411461D01*
X142336295Y-107498815D01*
X142472684Y-107549945D01*
X142534866Y-107556700D01*
X144231134Y-107556700D01*
X144293316Y-107549945D01*
X144429705Y-107498815D01*
X144546261Y-107411461D01*
X144604119Y-107334262D01*
X145161493Y-107334262D01*
X145170789Y-107346277D01*
X145221994Y-107382131D01*
X145231489Y-107387614D01*
X145428947Y-107479690D01*
X145439239Y-107483436D01*
X145649688Y-107539825D01*
X145660481Y-107541728D01*
X145877525Y-107560717D01*
X145888475Y-107560717D01*
X146105519Y-107541728D01*
X146116312Y-107539825D01*
X146326761Y-107483436D01*
X146337053Y-107479690D01*
X146534511Y-107387614D01*
X146544006Y-107382131D01*
X146596048Y-107345691D01*
X146604424Y-107335212D01*
X146597356Y-107321766D01*
X146590590Y-107315000D01*
X149664102Y-107315000D01*
X149684057Y-107543087D01*
X149685481Y-107548400D01*
X149685481Y-107548402D01*
X149735052Y-107733400D01*
X149743316Y-107764243D01*
X149745639Y-107769224D01*
X149745639Y-107769225D01*
X149837751Y-107966762D01*
X149837754Y-107966767D01*
X149840077Y-107971749D01*
X149913502Y-108076611D01*
X149967131Y-108153200D01*
X149971402Y-108159300D01*
X150133300Y-108321198D01*
X150137808Y-108324355D01*
X150137811Y-108324357D01*
X150215989Y-108379098D01*
X150320851Y-108452523D01*
X150325833Y-108454846D01*
X150325838Y-108454849D01*
X150523375Y-108546961D01*
X150528357Y-108549284D01*
X150533665Y-108550706D01*
X150533667Y-108550707D01*
X150744198Y-108607119D01*
X150744200Y-108607119D01*
X150749513Y-108608543D01*
X150977600Y-108628498D01*
X151205687Y-108608543D01*
X151211000Y-108607119D01*
X151211002Y-108607119D01*
X151421533Y-108550707D01*
X151421535Y-108550706D01*
X151426843Y-108549284D01*
X151431825Y-108546961D01*
X151629362Y-108454849D01*
X151629367Y-108454846D01*
X151634349Y-108452523D01*
X151739211Y-108379098D01*
X151817389Y-108324357D01*
X151817392Y-108324355D01*
X151821900Y-108321198D01*
X151983798Y-108159300D01*
X151988070Y-108153200D01*
X152041698Y-108076611D01*
X152115123Y-107971749D01*
X152117446Y-107966767D01*
X152117449Y-107966762D01*
X152209561Y-107769225D01*
X152209561Y-107769224D01*
X152211884Y-107764243D01*
X152220149Y-107733400D01*
X152269719Y-107548402D01*
X152269719Y-107548400D01*
X152271143Y-107543087D01*
X152291098Y-107315000D01*
X152271143Y-107086913D01*
X152260374Y-107046722D01*
X152213307Y-106871067D01*
X152213306Y-106871065D01*
X152211884Y-106865757D01*
X152199958Y-106840181D01*
X152117449Y-106663238D01*
X152117446Y-106663233D01*
X152115123Y-106658251D01*
X151983798Y-106470700D01*
X151821900Y-106308802D01*
X151817392Y-106305645D01*
X151817389Y-106305643D01*
X151731117Y-106245235D01*
X151634349Y-106177477D01*
X151629367Y-106175154D01*
X151629362Y-106175151D01*
X151431825Y-106083039D01*
X151431824Y-106083039D01*
X151426843Y-106080716D01*
X151421535Y-106079294D01*
X151421533Y-106079293D01*
X151211002Y-106022881D01*
X151211000Y-106022881D01*
X151205687Y-106021457D01*
X150977600Y-106001502D01*
X150749513Y-106021457D01*
X150744200Y-106022881D01*
X150744198Y-106022881D01*
X150533667Y-106079293D01*
X150533665Y-106079294D01*
X150528357Y-106080716D01*
X150523376Y-106083039D01*
X150523375Y-106083039D01*
X150325838Y-106175151D01*
X150325833Y-106175154D01*
X150320851Y-106177477D01*
X150224083Y-106245235D01*
X150137811Y-106305643D01*
X150137808Y-106305645D01*
X150133300Y-106308802D01*
X149971402Y-106470700D01*
X149840077Y-106658251D01*
X149837754Y-106663233D01*
X149837751Y-106663238D01*
X149755242Y-106840181D01*
X149743316Y-106865757D01*
X149741894Y-106871065D01*
X149741893Y-106871067D01*
X149694826Y-107046722D01*
X149684057Y-107086913D01*
X149664102Y-107315000D01*
X146590590Y-107315000D01*
X145895812Y-106620222D01*
X145881868Y-106612608D01*
X145880035Y-106612739D01*
X145873420Y-106616990D01*
X145167923Y-107322487D01*
X145161493Y-107334262D01*
X144604119Y-107334262D01*
X144633615Y-107294905D01*
X144684745Y-107158516D01*
X144691500Y-107096334D01*
X144691500Y-107093015D01*
X144715153Y-107026090D01*
X144761156Y-106990396D01*
X144760141Y-106988466D01*
X144771000Y-106982758D01*
X144771245Y-106982568D01*
X144771403Y-106982547D01*
X144809434Y-106962556D01*
X145510978Y-106261012D01*
X145517356Y-106249332D01*
X146247408Y-106249332D01*
X146247539Y-106251165D01*
X146251790Y-106257780D01*
X146957287Y-106963277D01*
X146969062Y-106969707D01*
X146981077Y-106960411D01*
X147016931Y-106909206D01*
X147022414Y-106899711D01*
X147114490Y-106702253D01*
X147118236Y-106691961D01*
X147174625Y-106481512D01*
X147176528Y-106470719D01*
X147195517Y-106253675D01*
X147195517Y-106242725D01*
X147176528Y-106025681D01*
X147174625Y-106014888D01*
X147118236Y-105804439D01*
X147114490Y-105794147D01*
X147022414Y-105596689D01*
X147016931Y-105587194D01*
X146980491Y-105535152D01*
X146970012Y-105526776D01*
X146956566Y-105533844D01*
X146255022Y-106235388D01*
X146247408Y-106249332D01*
X145517356Y-106249332D01*
X145518592Y-106247068D01*
X145518461Y-106245235D01*
X145514210Y-106238620D01*
X144808713Y-105533123D01*
X144766971Y-105510329D01*
X144756971Y-105508153D01*
X144706773Y-105457947D01*
X144691549Y-105404386D01*
X144691500Y-105403481D01*
X144691500Y-105400066D01*
X144684745Y-105337884D01*
X144633615Y-105201495D01*
X144603407Y-105161188D01*
X145161576Y-105161188D01*
X145168644Y-105174634D01*
X145870188Y-105876178D01*
X145884132Y-105883792D01*
X145885965Y-105883661D01*
X145892580Y-105879410D01*
X146598077Y-105173913D01*
X146604507Y-105162138D01*
X146595211Y-105150123D01*
X146544006Y-105114269D01*
X146534511Y-105108786D01*
X146337053Y-105016710D01*
X146326761Y-105012964D01*
X146116312Y-104956575D01*
X146105519Y-104954672D01*
X145888475Y-104935683D01*
X145877525Y-104935683D01*
X145660481Y-104954672D01*
X145649688Y-104956575D01*
X145439239Y-105012964D01*
X145428947Y-105016710D01*
X145231489Y-105108786D01*
X145221994Y-105114269D01*
X145169952Y-105150709D01*
X145161576Y-105161188D01*
X144603407Y-105161188D01*
X144546261Y-105084939D01*
X144429705Y-104997585D01*
X144293316Y-104946455D01*
X144231134Y-104939700D01*
X142534866Y-104939700D01*
X142472684Y-104946455D01*
X142336295Y-104997585D01*
X142219739Y-105084939D01*
X142132385Y-105201495D01*
X142081255Y-105337884D01*
X142074500Y-105400066D01*
X142074500Y-107096334D01*
X133588539Y-107096334D01*
X133552691Y-107071233D01*
X133473349Y-107015677D01*
X133468367Y-107013354D01*
X133468362Y-107013351D01*
X133270825Y-106921239D01*
X133270824Y-106921239D01*
X133265843Y-106918916D01*
X133260535Y-106917494D01*
X133260533Y-106917493D01*
X133050002Y-106861081D01*
X133050000Y-106861081D01*
X133044687Y-106859657D01*
X132816600Y-106839702D01*
X132588513Y-106859657D01*
X132583200Y-106861081D01*
X132583198Y-106861081D01*
X132372667Y-106917493D01*
X132372665Y-106917494D01*
X132367357Y-106918916D01*
X132362376Y-106921239D01*
X132362375Y-106921239D01*
X132164838Y-107013351D01*
X132164833Y-107013354D01*
X132159851Y-107015677D01*
X132080509Y-107071233D01*
X131976811Y-107143843D01*
X131976808Y-107143845D01*
X131972300Y-107147002D01*
X131810402Y-107308900D01*
X131807245Y-107313408D01*
X131807243Y-107313411D01*
X131784230Y-107346277D01*
X131679077Y-107496451D01*
X131676754Y-107501433D01*
X131676751Y-107501438D01*
X131617372Y-107628778D01*
X131582316Y-107703957D01*
X131580894Y-107709265D01*
X131580893Y-107709267D01*
X131574427Y-107733400D01*
X131523057Y-107925113D01*
X131503102Y-108153200D01*
X129264863Y-108153200D01*
X129277717Y-108006275D01*
X129277717Y-107995325D01*
X129258728Y-107778281D01*
X129256825Y-107767488D01*
X129200436Y-107557039D01*
X129196690Y-107546747D01*
X129104614Y-107349289D01*
X129099131Y-107339794D01*
X129062691Y-107287752D01*
X129052212Y-107279376D01*
X129038766Y-107286444D01*
X128337222Y-107987988D01*
X128329608Y-108001932D01*
X127599556Y-108001932D01*
X127600792Y-107999668D01*
X127600661Y-107997835D01*
X127596410Y-107991220D01*
X126890913Y-107285723D01*
X126879138Y-107279293D01*
X126867123Y-107288589D01*
X126831269Y-107339794D01*
X126825786Y-107349289D01*
X126733710Y-107546747D01*
X126729964Y-107557039D01*
X126673575Y-107767488D01*
X126671672Y-107778281D01*
X126652683Y-107995325D01*
X126652683Y-108006275D01*
X123234500Y-108006275D01*
X123234500Y-107476866D01*
X123227745Y-107414684D01*
X123176615Y-107278295D01*
X123089261Y-107161739D01*
X122972705Y-107074385D01*
X122836316Y-107023255D01*
X122774134Y-107016500D01*
X121827866Y-107016500D01*
X121765684Y-107023255D01*
X121629295Y-107074385D01*
X121512739Y-107161739D01*
X121425385Y-107278295D01*
X121374255Y-107414684D01*
X121367500Y-107476866D01*
X121367500Y-108423134D01*
X120187510Y-108423134D01*
X120252074Y-108232935D01*
X120252075Y-108232930D01*
X120253930Y-108227466D01*
X120285141Y-108012205D01*
X120286770Y-107950000D01*
X120266867Y-107733400D01*
X120262995Y-107719669D01*
X120215128Y-107549945D01*
X120207826Y-107524055D01*
X120111623Y-107328974D01*
X120108167Y-107324346D01*
X120108164Y-107324341D01*
X120032366Y-107222834D01*
X120007634Y-107156285D01*
X120022809Y-107086929D01*
X120057759Y-107046620D01*
X120128924Y-106993285D01*
X120141485Y-106980724D01*
X120191651Y-106913788D01*
X127243776Y-106913788D01*
X127250844Y-106927234D01*
X127952388Y-107628778D01*
X127966332Y-107636392D01*
X127968165Y-107636261D01*
X127974780Y-107632010D01*
X128680277Y-106926513D01*
X128686707Y-106914738D01*
X128677411Y-106902723D01*
X128626206Y-106866869D01*
X128616711Y-106861386D01*
X128419253Y-106769310D01*
X128408961Y-106765564D01*
X128198512Y-106709175D01*
X128187719Y-106707272D01*
X127970675Y-106688283D01*
X127959725Y-106688283D01*
X127742681Y-106707272D01*
X127731888Y-106709175D01*
X127521439Y-106765564D01*
X127511147Y-106769310D01*
X127313689Y-106861386D01*
X127304194Y-106866869D01*
X127252152Y-106903309D01*
X127243776Y-106913788D01*
X120191651Y-106913788D01*
X120217986Y-106878649D01*
X120226524Y-106863054D01*
X120271678Y-106742606D01*
X120275305Y-106727351D01*
X120280831Y-106676486D01*
X120281200Y-106669672D01*
X120281200Y-106222115D01*
X120276725Y-106206876D01*
X120275335Y-106205671D01*
X120267652Y-106204000D01*
X117933316Y-106204000D01*
X117918077Y-106208475D01*
X117916872Y-106209865D01*
X117915201Y-106217548D01*
X117915201Y-106669669D01*
X117915571Y-106676490D01*
X117921095Y-106727352D01*
X117924721Y-106742604D01*
X117969876Y-106863054D01*
X117978414Y-106878649D01*
X118054915Y-106980724D01*
X118067475Y-106993284D01*
X118138778Y-107046722D01*
X118181294Y-107103581D01*
X118186320Y-107174400D01*
X118162164Y-107225555D01*
X118114163Y-107286444D01*
X118101381Y-107302658D01*
X118098693Y-107307767D01*
X118084254Y-107335212D01*
X118000105Y-107495154D01*
X117992740Y-107518872D01*
X117956290Y-107636261D01*
X117935603Y-107702882D01*
X117910037Y-107918887D01*
X117924263Y-108135933D01*
X117925684Y-108141529D01*
X117925685Y-108141534D01*
X117970325Y-108317301D01*
X117977805Y-108346753D01*
X117980222Y-108351996D01*
X118043470Y-108489192D01*
X118068868Y-108544285D01*
X118072201Y-108549001D01*
X118188704Y-108713848D01*
X118194404Y-108721914D01*
X118198546Y-108725949D01*
X118337941Y-108861741D01*
X118372779Y-108923602D01*
X118368642Y-108994478D01*
X118333099Y-109046726D01*
X118236042Y-109131842D01*
X118232470Y-109136373D01*
X118113279Y-109287566D01*
X118101381Y-109302658D01*
X118000105Y-109495154D01*
X117935603Y-109702882D01*
X117910037Y-109918887D01*
X112020627Y-109918887D01*
X112023128Y-105677885D01*
X117915200Y-105677885D01*
X117919675Y-105693124D01*
X117921065Y-105694329D01*
X117928748Y-105696000D01*
X118826085Y-105696000D01*
X118841324Y-105691525D01*
X118842529Y-105690135D01*
X118844200Y-105682452D01*
X118844200Y-105677885D01*
X119352200Y-105677885D01*
X119356675Y-105693124D01*
X119358065Y-105694329D01*
X119365748Y-105696000D01*
X120263084Y-105696000D01*
X120278323Y-105691525D01*
X120279528Y-105690135D01*
X120281199Y-105682452D01*
X120281199Y-105230331D01*
X120280829Y-105223510D01*
X120275305Y-105172648D01*
X120271679Y-105157396D01*
X120226524Y-105036946D01*
X120217986Y-105021351D01*
X120141485Y-104919276D01*
X120128924Y-104906715D01*
X120026849Y-104830214D01*
X120011254Y-104821676D01*
X119890806Y-104776522D01*
X119875551Y-104772895D01*
X119824686Y-104767369D01*
X119817872Y-104767000D01*
X119370315Y-104767000D01*
X119355076Y-104771475D01*
X119353871Y-104772865D01*
X119352200Y-104780548D01*
X119352200Y-105677885D01*
X118844200Y-105677885D01*
X118844200Y-104785116D01*
X118839725Y-104769877D01*
X118838335Y-104768672D01*
X118830652Y-104767001D01*
X118378531Y-104767001D01*
X118371710Y-104767371D01*
X118320848Y-104772895D01*
X118305596Y-104776521D01*
X118185146Y-104821676D01*
X118169551Y-104830214D01*
X118067476Y-104906715D01*
X118054915Y-104919276D01*
X117978414Y-105021351D01*
X117969876Y-105036946D01*
X117924722Y-105157394D01*
X117921095Y-105172649D01*
X117915569Y-105223514D01*
X117915200Y-105230328D01*
X117915200Y-105677885D01*
X112023128Y-105677885D01*
X112024289Y-103708200D01*
X123730702Y-103708200D01*
X123750657Y-103936287D01*
X123809916Y-104157443D01*
X123812239Y-104162424D01*
X123812239Y-104162425D01*
X123904351Y-104359962D01*
X123904354Y-104359967D01*
X123906677Y-104364949D01*
X124038002Y-104552500D01*
X124199900Y-104714398D01*
X124204408Y-104717555D01*
X124204411Y-104717557D01*
X124275023Y-104767000D01*
X124387451Y-104845723D01*
X124392433Y-104848046D01*
X124392438Y-104848049D01*
X124589778Y-104940069D01*
X124594957Y-104942484D01*
X124600265Y-104943906D01*
X124600267Y-104943907D01*
X124810798Y-105000319D01*
X124810800Y-105000319D01*
X124816113Y-105001743D01*
X125044200Y-105021698D01*
X125272287Y-105001743D01*
X125277600Y-105000319D01*
X125277602Y-105000319D01*
X125488133Y-104943907D01*
X125488135Y-104943906D01*
X125493443Y-104942484D01*
X125498622Y-104940069D01*
X125695962Y-104848049D01*
X125695967Y-104848046D01*
X125700949Y-104845723D01*
X125813377Y-104767000D01*
X125883989Y-104717557D01*
X125883992Y-104717555D01*
X125888500Y-104714398D01*
X126050398Y-104552500D01*
X126181723Y-104364949D01*
X126184046Y-104359967D01*
X126184049Y-104359962D01*
X126276161Y-104162425D01*
X126276161Y-104162424D01*
X126278484Y-104157443D01*
X126337743Y-103936287D01*
X126357698Y-103708200D01*
X133890702Y-103708200D01*
X133910657Y-103936287D01*
X133969916Y-104157443D01*
X133972239Y-104162424D01*
X133972239Y-104162425D01*
X134064351Y-104359962D01*
X134064354Y-104359967D01*
X134066677Y-104364949D01*
X134198002Y-104552500D01*
X134359900Y-104714398D01*
X134364408Y-104717555D01*
X134364411Y-104717557D01*
X134435023Y-104767000D01*
X134547451Y-104845723D01*
X134552433Y-104848046D01*
X134552438Y-104848049D01*
X134749778Y-104940069D01*
X134754957Y-104942484D01*
X134760265Y-104943906D01*
X134760267Y-104943907D01*
X134970798Y-105000319D01*
X134970800Y-105000319D01*
X134976113Y-105001743D01*
X135204200Y-105021698D01*
X135432287Y-105001743D01*
X135437600Y-105000319D01*
X135437602Y-105000319D01*
X135648133Y-104943907D01*
X135648135Y-104943906D01*
X135653443Y-104942484D01*
X135658622Y-104940069D01*
X135855962Y-104848049D01*
X135855967Y-104848046D01*
X135860949Y-104845723D01*
X135973377Y-104767000D01*
X136043989Y-104717557D01*
X136043992Y-104717555D01*
X136048500Y-104714398D01*
X136210398Y-104552500D01*
X136341723Y-104364949D01*
X136344046Y-104359967D01*
X136344049Y-104359962D01*
X136436161Y-104162425D01*
X136436161Y-104162424D01*
X136438484Y-104157443D01*
X136497743Y-103936287D01*
X136517698Y-103708200D01*
X136497743Y-103480113D01*
X136438484Y-103258957D01*
X136436161Y-103253975D01*
X136344049Y-103056438D01*
X136344046Y-103056433D01*
X136341723Y-103051451D01*
X136210398Y-102863900D01*
X136048500Y-102702002D01*
X136043992Y-102698845D01*
X136043989Y-102698843D01*
X135965811Y-102644102D01*
X135860949Y-102570677D01*
X135855967Y-102568354D01*
X135855962Y-102568351D01*
X135658425Y-102476239D01*
X135658424Y-102476239D01*
X135653443Y-102473916D01*
X135648135Y-102472494D01*
X135648133Y-102472493D01*
X135437602Y-102416081D01*
X135437600Y-102416081D01*
X135432287Y-102414657D01*
X135204200Y-102394702D01*
X134976113Y-102414657D01*
X134970800Y-102416081D01*
X134970798Y-102416081D01*
X134760267Y-102472493D01*
X134760265Y-102472494D01*
X134754957Y-102473916D01*
X134749976Y-102476239D01*
X134749975Y-102476239D01*
X134552438Y-102568351D01*
X134552433Y-102568354D01*
X134547451Y-102570677D01*
X134442589Y-102644102D01*
X134364411Y-102698843D01*
X134364408Y-102698845D01*
X134359900Y-102702002D01*
X134198002Y-102863900D01*
X134066677Y-103051451D01*
X134064354Y-103056433D01*
X134064351Y-103056438D01*
X133972239Y-103253975D01*
X133969916Y-103258957D01*
X133910657Y-103480113D01*
X133890702Y-103708200D01*
X126357698Y-103708200D01*
X126337743Y-103480113D01*
X126278484Y-103258957D01*
X126276161Y-103253975D01*
X126184049Y-103056438D01*
X126184046Y-103056433D01*
X126181723Y-103051451D01*
X126050398Y-102863900D01*
X125888500Y-102702002D01*
X125883992Y-102698845D01*
X125883989Y-102698843D01*
X125805811Y-102644102D01*
X125700949Y-102570677D01*
X125695967Y-102568354D01*
X125695962Y-102568351D01*
X125498425Y-102476239D01*
X125498424Y-102476239D01*
X125493443Y-102473916D01*
X125488135Y-102472494D01*
X125488133Y-102472493D01*
X125277602Y-102416081D01*
X125277600Y-102416081D01*
X125272287Y-102414657D01*
X125044200Y-102394702D01*
X124816113Y-102414657D01*
X124810800Y-102416081D01*
X124810798Y-102416081D01*
X124600267Y-102472493D01*
X124600265Y-102472494D01*
X124594957Y-102473916D01*
X124589976Y-102476239D01*
X124589975Y-102476239D01*
X124392438Y-102568351D01*
X124392433Y-102568354D01*
X124387451Y-102570677D01*
X124282589Y-102644102D01*
X124204411Y-102698843D01*
X124204408Y-102698845D01*
X124199900Y-102702002D01*
X124038002Y-102863900D01*
X123906677Y-103051451D01*
X123904354Y-103056433D01*
X123904351Y-103056438D01*
X123812239Y-103253975D01*
X123809916Y-103258957D01*
X123750657Y-103480113D01*
X123730702Y-103708200D01*
X112024289Y-103708200D01*
X112026086Y-100660134D01*
X135353500Y-100660134D01*
X135360255Y-100722316D01*
X135411385Y-100858705D01*
X135498739Y-100975261D01*
X135615295Y-101062615D01*
X135751684Y-101113745D01*
X135813866Y-101120500D01*
X137510134Y-101120500D01*
X137572316Y-101113745D01*
X137708705Y-101062615D01*
X137825261Y-100975261D01*
X137912615Y-100858705D01*
X137963745Y-100722316D01*
X137964917Y-100711526D01*
X137965803Y-100709394D01*
X137966425Y-100706778D01*
X137966848Y-100706879D01*
X137992155Y-100645965D01*
X138050517Y-100605537D01*
X138121471Y-100603078D01*
X138182490Y-100639371D01*
X138189489Y-100648031D01*
X138192643Y-100651789D01*
X138195802Y-100656300D01*
X138357700Y-100818198D01*
X138362208Y-100821355D01*
X138362211Y-100821357D01*
X138403542Y-100850297D01*
X138545251Y-100949523D01*
X138550233Y-100951846D01*
X138550238Y-100951849D01*
X138746765Y-101043490D01*
X138752757Y-101046284D01*
X138758065Y-101047706D01*
X138758067Y-101047707D01*
X138968598Y-101104119D01*
X138968600Y-101104119D01*
X138973913Y-101105543D01*
X139202000Y-101125498D01*
X139430087Y-101105543D01*
X139435400Y-101104119D01*
X139435402Y-101104119D01*
X139645933Y-101047707D01*
X139645935Y-101047706D01*
X139651243Y-101046284D01*
X139657235Y-101043490D01*
X139853762Y-100951849D01*
X139853767Y-100951846D01*
X139858749Y-100949523D01*
X140000458Y-100850297D01*
X140041789Y-100821357D01*
X140041792Y-100821355D01*
X140046300Y-100818198D01*
X140208198Y-100656300D01*
X140234925Y-100618131D01*
X140272990Y-100563767D01*
X140339523Y-100468749D01*
X140341846Y-100463767D01*
X140341849Y-100463762D01*
X140357805Y-100429543D01*
X140404722Y-100376258D01*
X140472999Y-100356797D01*
X140540959Y-100377339D01*
X140586195Y-100429543D01*
X140602151Y-100463762D01*
X140602154Y-100463767D01*
X140604477Y-100468749D01*
X140671010Y-100563767D01*
X140709076Y-100618131D01*
X140735802Y-100656300D01*
X140897700Y-100818198D01*
X140902208Y-100821355D01*
X140902211Y-100821357D01*
X140943542Y-100850297D01*
X141085251Y-100949523D01*
X141090233Y-100951846D01*
X141090238Y-100951849D01*
X141286765Y-101043490D01*
X141292757Y-101046284D01*
X141298065Y-101047706D01*
X141298067Y-101047707D01*
X141508598Y-101104119D01*
X141508600Y-101104119D01*
X141513913Y-101105543D01*
X141742000Y-101125498D01*
X141970087Y-101105543D01*
X141975400Y-101104119D01*
X141975402Y-101104119D01*
X142185933Y-101047707D01*
X142185935Y-101047706D01*
X142191243Y-101046284D01*
X142197235Y-101043490D01*
X142393762Y-100951849D01*
X142393767Y-100951846D01*
X142398749Y-100949523D01*
X142540458Y-100850297D01*
X142581789Y-100821357D01*
X142581792Y-100821355D01*
X142586300Y-100818198D01*
X142748198Y-100656300D01*
X142774925Y-100618131D01*
X142812990Y-100563767D01*
X142879523Y-100468749D01*
X142881846Y-100463767D01*
X142881849Y-100463762D01*
X142898081Y-100428951D01*
X142944998Y-100375666D01*
X143013275Y-100356205D01*
X143081235Y-100376747D01*
X143126471Y-100428951D01*
X143142586Y-100463511D01*
X143148069Y-100473007D01*
X143273028Y-100651467D01*
X143280084Y-100659875D01*
X143434125Y-100813916D01*
X143442533Y-100820972D01*
X143620993Y-100945931D01*
X143630489Y-100951414D01*
X143827947Y-101043490D01*
X143838239Y-101047236D01*
X144010503Y-101093394D01*
X144024599Y-101093058D01*
X144028000Y-101085116D01*
X144028000Y-101079967D01*
X144536000Y-101079967D01*
X144539973Y-101093498D01*
X144548522Y-101094727D01*
X144725761Y-101047236D01*
X144736053Y-101043490D01*
X144933511Y-100951414D01*
X144943007Y-100945931D01*
X145121467Y-100820972D01*
X145129875Y-100813916D01*
X145283916Y-100659875D01*
X145290972Y-100651467D01*
X145415931Y-100473007D01*
X145421414Y-100463511D01*
X145513490Y-100266053D01*
X145517236Y-100255761D01*
X145563394Y-100083497D01*
X145563058Y-100069401D01*
X145555116Y-100066000D01*
X144554115Y-100066000D01*
X144538876Y-100070475D01*
X144537671Y-100071865D01*
X144536000Y-100079548D01*
X144536000Y-101079967D01*
X144028000Y-101079967D01*
X144028000Y-99539885D01*
X144536000Y-99539885D01*
X144540475Y-99555124D01*
X144541865Y-99556329D01*
X144549548Y-99558000D01*
X145549967Y-99558000D01*
X145563498Y-99554027D01*
X145564727Y-99545478D01*
X145517236Y-99368239D01*
X145513490Y-99357947D01*
X145421414Y-99160489D01*
X145415931Y-99150993D01*
X145290972Y-98972533D01*
X145283916Y-98964125D01*
X145129875Y-98810084D01*
X145121467Y-98803028D01*
X144943007Y-98678069D01*
X144933511Y-98672586D01*
X144736053Y-98580510D01*
X144725761Y-98576764D01*
X144553497Y-98530606D01*
X144539401Y-98530942D01*
X144536000Y-98538884D01*
X144536000Y-99539885D01*
X144028000Y-99539885D01*
X144028000Y-98544033D01*
X144024027Y-98530502D01*
X144015478Y-98529273D01*
X143838239Y-98576764D01*
X143827947Y-98580510D01*
X143630489Y-98672586D01*
X143620993Y-98678069D01*
X143442533Y-98803028D01*
X143434125Y-98810084D01*
X143280084Y-98964125D01*
X143273028Y-98972533D01*
X143148069Y-99150993D01*
X143142586Y-99160489D01*
X143126471Y-99195049D01*
X143079554Y-99248334D01*
X143011277Y-99267795D01*
X142943317Y-99247253D01*
X142898081Y-99195049D01*
X142881849Y-99160238D01*
X142881846Y-99160233D01*
X142879523Y-99155251D01*
X142786763Y-99022776D01*
X142751357Y-98972211D01*
X142751355Y-98972208D01*
X142748198Y-98967700D01*
X142586300Y-98805802D01*
X142581792Y-98802645D01*
X142581789Y-98802643D01*
X142503611Y-98747902D01*
X142398749Y-98674477D01*
X142393767Y-98672154D01*
X142393762Y-98672151D01*
X142196225Y-98580039D01*
X142196224Y-98580039D01*
X142191243Y-98577716D01*
X142185935Y-98576294D01*
X142185933Y-98576293D01*
X141975402Y-98519881D01*
X141975400Y-98519881D01*
X141970087Y-98518457D01*
X141742000Y-98498502D01*
X141513913Y-98518457D01*
X141508600Y-98519881D01*
X141508598Y-98519881D01*
X141298067Y-98576293D01*
X141298065Y-98576294D01*
X141292757Y-98577716D01*
X141287776Y-98580039D01*
X141287775Y-98580039D01*
X141090238Y-98672151D01*
X141090233Y-98672154D01*
X141085251Y-98674477D01*
X140980389Y-98747902D01*
X140902211Y-98802643D01*
X140902208Y-98802645D01*
X140897700Y-98805802D01*
X140735802Y-98967700D01*
X140732645Y-98972208D01*
X140732643Y-98972211D01*
X140697237Y-99022776D01*
X140604477Y-99155251D01*
X140602154Y-99160233D01*
X140602151Y-99160238D01*
X140586195Y-99194457D01*
X140539278Y-99247742D01*
X140471001Y-99267203D01*
X140403041Y-99246661D01*
X140357805Y-99194457D01*
X140341849Y-99160238D01*
X140341846Y-99160233D01*
X140339523Y-99155251D01*
X140246763Y-99022776D01*
X140211357Y-98972211D01*
X140211355Y-98972208D01*
X140208198Y-98967700D01*
X140046300Y-98805802D01*
X140041792Y-98802645D01*
X140041789Y-98802643D01*
X139963611Y-98747902D01*
X139858749Y-98674477D01*
X139853767Y-98672154D01*
X139853762Y-98672151D01*
X139656225Y-98580039D01*
X139656224Y-98580039D01*
X139651243Y-98577716D01*
X139645935Y-98576294D01*
X139645933Y-98576293D01*
X139435402Y-98519881D01*
X139435400Y-98519881D01*
X139430087Y-98518457D01*
X139202000Y-98498502D01*
X138973913Y-98518457D01*
X138968600Y-98519881D01*
X138968598Y-98519881D01*
X138758067Y-98576293D01*
X138758065Y-98576294D01*
X138752757Y-98577716D01*
X138747776Y-98580039D01*
X138747775Y-98580039D01*
X138550238Y-98672151D01*
X138550233Y-98672154D01*
X138545251Y-98674477D01*
X138440389Y-98747902D01*
X138362211Y-98802643D01*
X138362208Y-98802645D01*
X138357700Y-98805802D01*
X138195802Y-98967700D01*
X138192643Y-98972211D01*
X138189108Y-98976424D01*
X138187974Y-98975473D01*
X138137929Y-99015471D01*
X138067310Y-99022776D01*
X138003951Y-98990742D01*
X137967970Y-98929538D01*
X137964918Y-98912483D01*
X137963745Y-98901684D01*
X137912615Y-98765295D01*
X137825261Y-98648739D01*
X137708705Y-98561385D01*
X137572316Y-98510255D01*
X137510134Y-98503500D01*
X135813866Y-98503500D01*
X135751684Y-98510255D01*
X135615295Y-98561385D01*
X135498739Y-98648739D01*
X135411385Y-98765295D01*
X135360255Y-98901684D01*
X135353500Y-98963866D01*
X135353500Y-100660134D01*
X112026086Y-100660134D01*
X112026382Y-100158134D01*
X131400500Y-100158134D01*
X131407255Y-100220316D01*
X131458385Y-100356705D01*
X131545739Y-100473261D01*
X131662295Y-100560615D01*
X131798684Y-100611745D01*
X131860866Y-100618500D01*
X132807134Y-100618500D01*
X132869316Y-100611745D01*
X133005705Y-100560615D01*
X133122261Y-100473261D01*
X133209615Y-100356705D01*
X133260745Y-100220316D01*
X133267500Y-100158134D01*
X133267500Y-99211866D01*
X133260745Y-99149684D01*
X133209615Y-99013295D01*
X133122261Y-98896739D01*
X133005705Y-98809385D01*
X132869316Y-98758255D01*
X132807134Y-98751500D01*
X131860866Y-98751500D01*
X131798684Y-98758255D01*
X131662295Y-98809385D01*
X131545739Y-98896739D01*
X131458385Y-99013295D01*
X131407255Y-99149684D01*
X131400500Y-99211866D01*
X131400500Y-100158134D01*
X112026382Y-100158134D01*
X112028078Y-97282000D01*
X113342615Y-97282000D01*
X113362570Y-97510087D01*
X113421829Y-97731243D01*
X113424152Y-97736224D01*
X113424152Y-97736225D01*
X113516264Y-97933762D01*
X113516267Y-97933767D01*
X113518590Y-97938749D01*
X113563717Y-98003197D01*
X113637432Y-98108472D01*
X113649915Y-98126300D01*
X113811813Y-98288198D01*
X113816321Y-98291355D01*
X113816324Y-98291357D01*
X113857655Y-98320297D01*
X113999364Y-98419523D01*
X114004346Y-98421846D01*
X114004351Y-98421849D01*
X114201888Y-98513961D01*
X114206870Y-98516284D01*
X114212178Y-98517706D01*
X114212180Y-98517707D01*
X114422711Y-98574119D01*
X114422713Y-98574119D01*
X114428026Y-98575543D01*
X114656113Y-98595498D01*
X114884200Y-98575543D01*
X114889513Y-98574119D01*
X114889515Y-98574119D01*
X115100046Y-98517707D01*
X115100048Y-98517706D01*
X115105356Y-98516284D01*
X115110338Y-98513961D01*
X115307875Y-98421849D01*
X115307880Y-98421846D01*
X115312862Y-98419523D01*
X115454571Y-98320297D01*
X115495902Y-98291357D01*
X115495905Y-98291355D01*
X115500413Y-98288198D01*
X115646113Y-98142498D01*
X115708425Y-98108472D01*
X115779240Y-98113537D01*
X115836076Y-98156084D01*
X115853245Y-98192737D01*
X115854368Y-98192316D01*
X115905498Y-98328705D01*
X115992852Y-98445261D01*
X116109408Y-98532615D01*
X116245797Y-98583745D01*
X116307979Y-98590500D01*
X118004247Y-98590500D01*
X118066429Y-98583745D01*
X118202818Y-98532615D01*
X118319374Y-98445261D01*
X118406728Y-98328705D01*
X118457858Y-98192316D01*
X118464613Y-98130134D01*
X118464613Y-97322000D01*
X120962615Y-97322000D01*
X120982570Y-97550087D01*
X121041829Y-97771243D01*
X121044152Y-97776224D01*
X121044152Y-97776225D01*
X121136264Y-97973762D01*
X121136267Y-97973767D01*
X121138590Y-97978749D01*
X121152980Y-97999300D01*
X121266343Y-98161198D01*
X121269915Y-98166300D01*
X121431813Y-98328198D01*
X121436321Y-98331355D01*
X121436324Y-98331357D01*
X121477655Y-98360297D01*
X121619364Y-98459523D01*
X121624346Y-98461846D01*
X121624351Y-98461849D01*
X121789555Y-98538884D01*
X121826870Y-98556284D01*
X121832178Y-98557706D01*
X121832180Y-98557707D01*
X122042711Y-98614119D01*
X122042713Y-98614119D01*
X122048026Y-98615543D01*
X122276113Y-98635498D01*
X122504200Y-98615543D01*
X122509513Y-98614119D01*
X122509515Y-98614119D01*
X122720046Y-98557707D01*
X122720048Y-98557706D01*
X122725356Y-98556284D01*
X122762671Y-98538884D01*
X122927875Y-98461849D01*
X122927880Y-98461846D01*
X122932862Y-98459523D01*
X123074571Y-98360297D01*
X123115902Y-98331357D01*
X123115905Y-98331355D01*
X123120413Y-98328198D01*
X123266113Y-98182498D01*
X123328425Y-98148472D01*
X123399240Y-98153537D01*
X123456076Y-98196084D01*
X123473245Y-98232737D01*
X123474368Y-98232316D01*
X123525498Y-98368705D01*
X123612852Y-98485261D01*
X123729408Y-98572615D01*
X123865797Y-98623745D01*
X123927979Y-98630500D01*
X125624247Y-98630500D01*
X125686429Y-98623745D01*
X125822818Y-98572615D01*
X125939374Y-98485261D01*
X126026728Y-98368705D01*
X126077858Y-98232316D01*
X126084613Y-98170134D01*
X126084613Y-97155000D01*
X149664102Y-97155000D01*
X149684057Y-97383087D01*
X149743316Y-97604243D01*
X149745639Y-97609224D01*
X149745639Y-97609225D01*
X149837751Y-97806762D01*
X149837754Y-97806767D01*
X149840077Y-97811749D01*
X149843234Y-97816257D01*
X149960169Y-97983257D01*
X149971402Y-97999300D01*
X150133300Y-98161198D01*
X150137808Y-98164355D01*
X150137811Y-98164357D01*
X150150913Y-98173531D01*
X150320851Y-98292523D01*
X150325833Y-98294846D01*
X150325838Y-98294849D01*
X150499635Y-98375891D01*
X150528357Y-98389284D01*
X150533665Y-98390706D01*
X150533667Y-98390707D01*
X150744198Y-98447119D01*
X150744200Y-98447119D01*
X150749513Y-98448543D01*
X150977600Y-98468498D01*
X151205687Y-98448543D01*
X151211000Y-98447119D01*
X151211002Y-98447119D01*
X151421533Y-98390707D01*
X151421535Y-98390706D01*
X151426843Y-98389284D01*
X151455565Y-98375891D01*
X151629362Y-98294849D01*
X151629367Y-98294846D01*
X151634349Y-98292523D01*
X151804287Y-98173531D01*
X151817389Y-98164357D01*
X151817392Y-98164355D01*
X151821900Y-98161198D01*
X151983798Y-97999300D01*
X151995032Y-97983257D01*
X152111966Y-97816257D01*
X152115123Y-97811749D01*
X152117446Y-97806767D01*
X152117449Y-97806762D01*
X152209561Y-97609225D01*
X152209561Y-97609224D01*
X152211884Y-97604243D01*
X152271143Y-97383087D01*
X152291098Y-97155000D01*
X152271143Y-96926913D01*
X152211884Y-96705757D01*
X152198063Y-96676118D01*
X152117449Y-96503238D01*
X152117446Y-96503233D01*
X152115123Y-96498251D01*
X152026500Y-96371684D01*
X151986957Y-96315211D01*
X151986955Y-96315208D01*
X151983798Y-96310700D01*
X151821900Y-96148802D01*
X151817392Y-96145645D01*
X151817389Y-96145643D01*
X151680852Y-96050039D01*
X151634349Y-96017477D01*
X151629367Y-96015154D01*
X151629362Y-96015151D01*
X151431825Y-95923039D01*
X151431824Y-95923039D01*
X151426843Y-95920716D01*
X151421535Y-95919294D01*
X151421533Y-95919293D01*
X151211002Y-95862881D01*
X151211000Y-95862881D01*
X151205687Y-95861457D01*
X150977600Y-95841502D01*
X150749513Y-95861457D01*
X150744200Y-95862881D01*
X150744198Y-95862881D01*
X150533667Y-95919293D01*
X150533665Y-95919294D01*
X150528357Y-95920716D01*
X150523376Y-95923039D01*
X150523375Y-95923039D01*
X150325838Y-96015151D01*
X150325833Y-96015154D01*
X150320851Y-96017477D01*
X150274348Y-96050039D01*
X150137811Y-96145643D01*
X150137808Y-96145645D01*
X150133300Y-96148802D01*
X149971402Y-96310700D01*
X149968245Y-96315208D01*
X149968243Y-96315211D01*
X149928700Y-96371684D01*
X149840077Y-96498251D01*
X149837754Y-96503233D01*
X149837751Y-96503238D01*
X149757137Y-96676118D01*
X149743316Y-96705757D01*
X149684057Y-96926913D01*
X149664102Y-97155000D01*
X126084613Y-97155000D01*
X126084613Y-96473866D01*
X126077858Y-96411684D01*
X126026728Y-96275295D01*
X125939374Y-96158739D01*
X125822818Y-96071385D01*
X125686429Y-96020255D01*
X125624247Y-96013500D01*
X123927979Y-96013500D01*
X123865797Y-96020255D01*
X123729408Y-96071385D01*
X123612852Y-96158739D01*
X123525498Y-96275295D01*
X123474368Y-96411684D01*
X123472422Y-96410954D01*
X123442568Y-96463205D01*
X123379610Y-96496021D01*
X123308906Y-96489591D01*
X123266113Y-96461502D01*
X123120413Y-96315802D01*
X123115905Y-96312645D01*
X123115902Y-96312643D01*
X123005437Y-96235295D01*
X122932862Y-96184477D01*
X122927880Y-96182154D01*
X122927875Y-96182151D01*
X122730338Y-96090039D01*
X122730337Y-96090039D01*
X122725356Y-96087716D01*
X122720048Y-96086294D01*
X122720046Y-96086293D01*
X122509515Y-96029881D01*
X122509513Y-96029881D01*
X122504200Y-96028457D01*
X122276113Y-96008502D01*
X122048026Y-96028457D01*
X122042713Y-96029881D01*
X122042711Y-96029881D01*
X121832180Y-96086293D01*
X121832178Y-96086294D01*
X121826870Y-96087716D01*
X121821889Y-96090039D01*
X121821888Y-96090039D01*
X121624351Y-96182151D01*
X121624346Y-96182154D01*
X121619364Y-96184477D01*
X121546789Y-96235295D01*
X121436324Y-96312643D01*
X121436321Y-96312645D01*
X121431813Y-96315802D01*
X121269915Y-96477700D01*
X121266758Y-96482208D01*
X121266756Y-96482211D01*
X121257086Y-96496021D01*
X121138590Y-96665251D01*
X121136267Y-96670233D01*
X121136264Y-96670238D01*
X121078787Y-96793500D01*
X121041829Y-96872757D01*
X120982570Y-97093913D01*
X120962615Y-97322000D01*
X118464613Y-97322000D01*
X118464613Y-96433866D01*
X118457858Y-96371684D01*
X118406728Y-96235295D01*
X118319374Y-96118739D01*
X118202818Y-96031385D01*
X118066429Y-95980255D01*
X118004247Y-95973500D01*
X116307979Y-95973500D01*
X116245797Y-95980255D01*
X116109408Y-96031385D01*
X115992852Y-96118739D01*
X115905498Y-96235295D01*
X115854368Y-96371684D01*
X115852422Y-96370954D01*
X115822568Y-96423205D01*
X115759610Y-96456021D01*
X115688906Y-96449591D01*
X115646113Y-96421502D01*
X115500413Y-96275802D01*
X115495905Y-96272645D01*
X115495902Y-96272643D01*
X115374496Y-96187634D01*
X115312862Y-96144477D01*
X115307880Y-96142154D01*
X115307875Y-96142151D01*
X115110338Y-96050039D01*
X115110337Y-96050039D01*
X115105356Y-96047716D01*
X115100048Y-96046294D01*
X115100046Y-96046293D01*
X114889515Y-95989881D01*
X114889513Y-95989881D01*
X114884200Y-95988457D01*
X114656113Y-95968502D01*
X114428026Y-95988457D01*
X114422713Y-95989881D01*
X114422711Y-95989881D01*
X114212180Y-96046293D01*
X114212178Y-96046294D01*
X114206870Y-96047716D01*
X114201889Y-96050039D01*
X114201888Y-96050039D01*
X114004351Y-96142151D01*
X114004346Y-96142154D01*
X113999364Y-96144477D01*
X113937730Y-96187634D01*
X113816324Y-96272643D01*
X113816321Y-96272645D01*
X113811813Y-96275802D01*
X113649915Y-96437700D01*
X113646758Y-96442208D01*
X113646756Y-96442211D01*
X113618748Y-96482211D01*
X113518590Y-96625251D01*
X113516267Y-96630233D01*
X113516264Y-96630238D01*
X113464613Y-96741006D01*
X113421829Y-96832757D01*
X113362570Y-97053913D01*
X113342615Y-97282000D01*
X112028078Y-97282000D01*
X112028901Y-95885000D01*
X143612496Y-95885000D01*
X143613186Y-95891565D01*
X143628448Y-96036771D01*
X143632458Y-96074928D01*
X143691473Y-96256556D01*
X143786960Y-96421944D01*
X143791378Y-96426851D01*
X143791379Y-96426852D01*
X143851608Y-96493743D01*
X143914747Y-96563866D01*
X144069248Y-96676118D01*
X144075276Y-96678802D01*
X144075278Y-96678803D01*
X144237681Y-96751109D01*
X144243712Y-96753794D01*
X144337112Y-96773647D01*
X144424056Y-96792128D01*
X144424061Y-96792128D01*
X144430513Y-96793500D01*
X144621487Y-96793500D01*
X144627939Y-96792128D01*
X144627944Y-96792128D01*
X144714888Y-96773647D01*
X144808288Y-96753794D01*
X144814319Y-96751109D01*
X144976722Y-96678803D01*
X144976724Y-96678802D01*
X144982752Y-96676118D01*
X145137253Y-96563866D01*
X145200392Y-96493743D01*
X145260621Y-96426852D01*
X145260622Y-96426851D01*
X145265040Y-96421944D01*
X145360527Y-96256556D01*
X145419542Y-96074928D01*
X145423553Y-96036771D01*
X145438814Y-95891565D01*
X145439504Y-95885000D01*
X145419542Y-95695072D01*
X145360527Y-95513444D01*
X145265040Y-95348056D01*
X145137253Y-95206134D01*
X144982752Y-95093882D01*
X144976724Y-95091198D01*
X144976722Y-95091197D01*
X144814319Y-95018891D01*
X144814318Y-95018891D01*
X144808288Y-95016206D01*
X144714887Y-94996353D01*
X144627944Y-94977872D01*
X144627939Y-94977872D01*
X144621487Y-94976500D01*
X144430513Y-94976500D01*
X144424061Y-94977872D01*
X144424056Y-94977872D01*
X144337113Y-94996353D01*
X144243712Y-95016206D01*
X144237682Y-95018891D01*
X144237681Y-95018891D01*
X144075278Y-95091197D01*
X144075276Y-95091198D01*
X144069248Y-95093882D01*
X143914747Y-95206134D01*
X143786960Y-95348056D01*
X143691473Y-95513444D01*
X143632458Y-95695072D01*
X143612496Y-95885000D01*
X112028901Y-95885000D01*
X112029777Y-94399598D01*
X112030045Y-93945134D01*
X131400500Y-93945134D01*
X131407255Y-94007316D01*
X131458385Y-94143705D01*
X131545739Y-94260261D01*
X131662295Y-94347615D01*
X131798684Y-94398745D01*
X131860866Y-94405500D01*
X132807134Y-94405500D01*
X132869316Y-94398745D01*
X133005705Y-94347615D01*
X133122261Y-94260261D01*
X133209615Y-94143705D01*
X133260745Y-94007316D01*
X133267500Y-93945134D01*
X133267500Y-92998866D01*
X133260745Y-92936684D01*
X133209615Y-92800295D01*
X133122261Y-92683739D01*
X133005705Y-92596385D01*
X132869316Y-92545255D01*
X132807134Y-92538500D01*
X131860866Y-92538500D01*
X131798684Y-92545255D01*
X131662295Y-92596385D01*
X131545739Y-92683739D01*
X131458385Y-92800295D01*
X131407255Y-92936684D01*
X131400500Y-92998866D01*
X131400500Y-93945134D01*
X112030045Y-93945134D01*
X112031079Y-92192000D01*
X135348502Y-92192000D01*
X135368457Y-92420087D01*
X135369881Y-92425400D01*
X135369881Y-92425402D01*
X135414852Y-92593233D01*
X135427716Y-92641243D01*
X135430039Y-92646224D01*
X135430039Y-92646225D01*
X135522151Y-92843762D01*
X135522154Y-92843767D01*
X135524477Y-92848749D01*
X135655802Y-93036300D01*
X135817700Y-93198198D01*
X135822208Y-93201355D01*
X135822211Y-93201357D01*
X135900389Y-93256098D01*
X136005251Y-93329523D01*
X136010233Y-93331846D01*
X136010238Y-93331849D01*
X136207775Y-93423961D01*
X136212757Y-93426284D01*
X136218065Y-93427706D01*
X136218067Y-93427707D01*
X136428598Y-93484119D01*
X136428600Y-93484119D01*
X136433913Y-93485543D01*
X136662000Y-93505498D01*
X136890087Y-93485543D01*
X136895400Y-93484119D01*
X136895402Y-93484119D01*
X137105933Y-93427707D01*
X137105935Y-93427706D01*
X137111243Y-93426284D01*
X137116225Y-93423961D01*
X137313762Y-93331849D01*
X137313767Y-93331846D01*
X137318749Y-93329523D01*
X137423611Y-93256098D01*
X137501789Y-93201357D01*
X137501792Y-93201355D01*
X137506300Y-93198198D01*
X137668198Y-93036300D01*
X137799523Y-92848749D01*
X137801846Y-92843767D01*
X137801849Y-92843762D01*
X137817805Y-92809543D01*
X137864722Y-92756258D01*
X137932999Y-92736797D01*
X138000959Y-92757339D01*
X138046195Y-92809543D01*
X138062151Y-92843762D01*
X138062154Y-92843767D01*
X138064477Y-92848749D01*
X138195802Y-93036300D01*
X138357700Y-93198198D01*
X138362208Y-93201355D01*
X138362211Y-93201357D01*
X138440389Y-93256098D01*
X138545251Y-93329523D01*
X138550233Y-93331846D01*
X138550238Y-93331849D01*
X138747775Y-93423961D01*
X138752757Y-93426284D01*
X138758065Y-93427706D01*
X138758067Y-93427707D01*
X138968598Y-93484119D01*
X138968600Y-93484119D01*
X138973913Y-93485543D01*
X139202000Y-93505498D01*
X139430087Y-93485543D01*
X139435400Y-93484119D01*
X139435402Y-93484119D01*
X139645933Y-93427707D01*
X139645935Y-93427706D01*
X139651243Y-93426284D01*
X139656225Y-93423961D01*
X139853762Y-93331849D01*
X139853767Y-93331846D01*
X139858749Y-93329523D01*
X139963611Y-93256098D01*
X140041789Y-93201357D01*
X140041792Y-93201355D01*
X140046300Y-93198198D01*
X140208198Y-93036300D01*
X140339523Y-92848749D01*
X140341846Y-92843767D01*
X140341849Y-92843762D01*
X140357805Y-92809543D01*
X140404722Y-92756258D01*
X140472999Y-92736797D01*
X140540959Y-92757339D01*
X140586195Y-92809543D01*
X140602151Y-92843762D01*
X140602154Y-92843767D01*
X140604477Y-92848749D01*
X140735802Y-93036300D01*
X140897700Y-93198198D01*
X140902208Y-93201355D01*
X140902211Y-93201357D01*
X140980389Y-93256098D01*
X141085251Y-93329523D01*
X141090233Y-93331846D01*
X141090238Y-93331849D01*
X141287775Y-93423961D01*
X141292757Y-93426284D01*
X141298065Y-93427706D01*
X141298067Y-93427707D01*
X141508598Y-93484119D01*
X141508600Y-93484119D01*
X141513913Y-93485543D01*
X141742000Y-93505498D01*
X141970087Y-93485543D01*
X141975400Y-93484119D01*
X141975402Y-93484119D01*
X142185933Y-93427707D01*
X142185935Y-93427706D01*
X142191243Y-93426284D01*
X142196225Y-93423961D01*
X142393762Y-93331849D01*
X142393767Y-93331846D01*
X142398749Y-93329523D01*
X142503611Y-93256098D01*
X142581789Y-93201357D01*
X142581792Y-93201355D01*
X142586300Y-93198198D01*
X142748198Y-93036300D01*
X142879523Y-92848749D01*
X142881846Y-92843767D01*
X142881849Y-92843762D01*
X142897805Y-92809543D01*
X142944722Y-92756258D01*
X143012999Y-92736797D01*
X143080959Y-92757339D01*
X143126195Y-92809543D01*
X143142151Y-92843762D01*
X143142154Y-92843767D01*
X143144477Y-92848749D01*
X143275802Y-93036300D01*
X143437700Y-93198198D01*
X143442208Y-93201355D01*
X143442211Y-93201357D01*
X143520389Y-93256098D01*
X143625251Y-93329523D01*
X143630233Y-93331846D01*
X143630238Y-93331849D01*
X143827775Y-93423961D01*
X143832757Y-93426284D01*
X143838065Y-93427706D01*
X143838067Y-93427707D01*
X144048598Y-93484119D01*
X144048600Y-93484119D01*
X144053913Y-93485543D01*
X144282000Y-93505498D01*
X144510087Y-93485543D01*
X144515400Y-93484119D01*
X144515402Y-93484119D01*
X144725933Y-93427707D01*
X144725935Y-93427706D01*
X144731243Y-93426284D01*
X144736225Y-93423961D01*
X144933762Y-93331849D01*
X144933767Y-93331846D01*
X144938749Y-93329523D01*
X145043611Y-93256098D01*
X145121789Y-93201357D01*
X145121792Y-93201355D01*
X145126300Y-93198198D01*
X145288198Y-93036300D01*
X145419523Y-92848749D01*
X145421846Y-92843767D01*
X145421849Y-92843762D01*
X145513961Y-92646225D01*
X145513961Y-92646224D01*
X145516284Y-92641243D01*
X145529149Y-92593233D01*
X145574119Y-92425402D01*
X145574119Y-92425400D01*
X145575543Y-92420087D01*
X145595498Y-92192000D01*
X145575543Y-91963913D01*
X145516284Y-91742757D01*
X145437805Y-91574457D01*
X145421849Y-91540238D01*
X145421846Y-91540233D01*
X145419523Y-91535251D01*
X145288198Y-91347700D01*
X145126300Y-91185802D01*
X145121792Y-91182645D01*
X145121789Y-91182643D01*
X144973057Y-91078500D01*
X144938749Y-91054477D01*
X144933767Y-91052154D01*
X144933762Y-91052151D01*
X144736225Y-90960039D01*
X144736224Y-90960039D01*
X144731243Y-90957716D01*
X144725935Y-90956294D01*
X144725933Y-90956293D01*
X144515402Y-90899881D01*
X144515400Y-90899881D01*
X144510087Y-90898457D01*
X144282000Y-90878502D01*
X144053913Y-90898457D01*
X144048600Y-90899881D01*
X144048598Y-90899881D01*
X143838067Y-90956293D01*
X143838065Y-90956294D01*
X143832757Y-90957716D01*
X143827776Y-90960039D01*
X143827775Y-90960039D01*
X143630238Y-91052151D01*
X143630233Y-91052154D01*
X143625251Y-91054477D01*
X143590943Y-91078500D01*
X143442211Y-91182643D01*
X143442208Y-91182645D01*
X143437700Y-91185802D01*
X143275802Y-91347700D01*
X143144477Y-91535251D01*
X143142154Y-91540233D01*
X143142151Y-91540238D01*
X143126195Y-91574457D01*
X143079278Y-91627742D01*
X143011001Y-91647203D01*
X142943041Y-91626661D01*
X142897805Y-91574457D01*
X142881849Y-91540238D01*
X142881846Y-91540233D01*
X142879523Y-91535251D01*
X142748198Y-91347700D01*
X142586300Y-91185802D01*
X142581792Y-91182645D01*
X142581789Y-91182643D01*
X142433057Y-91078500D01*
X142398749Y-91054477D01*
X142393767Y-91052154D01*
X142393762Y-91052151D01*
X142196225Y-90960039D01*
X142196224Y-90960039D01*
X142191243Y-90957716D01*
X142185935Y-90956294D01*
X142185933Y-90956293D01*
X141975402Y-90899881D01*
X141975400Y-90899881D01*
X141970087Y-90898457D01*
X141742000Y-90878502D01*
X141513913Y-90898457D01*
X141508600Y-90899881D01*
X141508598Y-90899881D01*
X141298067Y-90956293D01*
X141298065Y-90956294D01*
X141292757Y-90957716D01*
X141287776Y-90960039D01*
X141287775Y-90960039D01*
X141090238Y-91052151D01*
X141090233Y-91052154D01*
X141085251Y-91054477D01*
X141050943Y-91078500D01*
X140902211Y-91182643D01*
X140902208Y-91182645D01*
X140897700Y-91185802D01*
X140735802Y-91347700D01*
X140604477Y-91535251D01*
X140602154Y-91540233D01*
X140602151Y-91540238D01*
X140586195Y-91574457D01*
X140539278Y-91627742D01*
X140471001Y-91647203D01*
X140403041Y-91626661D01*
X140357805Y-91574457D01*
X140341849Y-91540238D01*
X140341846Y-91540233D01*
X140339523Y-91535251D01*
X140208198Y-91347700D01*
X140046300Y-91185802D01*
X140041792Y-91182645D01*
X140041789Y-91182643D01*
X139893057Y-91078500D01*
X139858749Y-91054477D01*
X139853767Y-91052154D01*
X139853762Y-91052151D01*
X139656225Y-90960039D01*
X139656224Y-90960039D01*
X139651243Y-90957716D01*
X139645935Y-90956294D01*
X139645933Y-90956293D01*
X139435402Y-90899881D01*
X139435400Y-90899881D01*
X139430087Y-90898457D01*
X139202000Y-90878502D01*
X138973913Y-90898457D01*
X138968600Y-90899881D01*
X138968598Y-90899881D01*
X138758067Y-90956293D01*
X138758065Y-90956294D01*
X138752757Y-90957716D01*
X138747776Y-90960039D01*
X138747775Y-90960039D01*
X138550238Y-91052151D01*
X138550233Y-91052154D01*
X138545251Y-91054477D01*
X138510943Y-91078500D01*
X138362211Y-91182643D01*
X138362208Y-91182645D01*
X138357700Y-91185802D01*
X138195802Y-91347700D01*
X138064477Y-91535251D01*
X138062154Y-91540233D01*
X138062151Y-91540238D01*
X138046195Y-91574457D01*
X137999278Y-91627742D01*
X137931001Y-91647203D01*
X137863041Y-91626661D01*
X137817805Y-91574457D01*
X137801849Y-91540238D01*
X137801846Y-91540233D01*
X137799523Y-91535251D01*
X137668198Y-91347700D01*
X137506300Y-91185802D01*
X137501792Y-91182645D01*
X137501789Y-91182643D01*
X137353057Y-91078500D01*
X137318749Y-91054477D01*
X137313767Y-91052154D01*
X137313762Y-91052151D01*
X137116225Y-90960039D01*
X137116224Y-90960039D01*
X137111243Y-90957716D01*
X137105935Y-90956294D01*
X137105933Y-90956293D01*
X136895402Y-90899881D01*
X136895400Y-90899881D01*
X136890087Y-90898457D01*
X136662000Y-90878502D01*
X136433913Y-90898457D01*
X136428600Y-90899881D01*
X136428598Y-90899881D01*
X136218067Y-90956293D01*
X136218065Y-90956294D01*
X136212757Y-90957716D01*
X136207776Y-90960039D01*
X136207775Y-90960039D01*
X136010238Y-91052151D01*
X136010233Y-91052154D01*
X136005251Y-91054477D01*
X135970943Y-91078500D01*
X135822211Y-91182643D01*
X135822208Y-91182645D01*
X135817700Y-91185802D01*
X135655802Y-91347700D01*
X135524477Y-91535251D01*
X135522154Y-91540233D01*
X135522151Y-91540238D01*
X135506195Y-91574457D01*
X135427716Y-91742757D01*
X135368457Y-91963913D01*
X135348502Y-92192000D01*
X112031079Y-92192000D01*
X112031897Y-90805000D01*
X114129502Y-90805000D01*
X114149457Y-91033087D01*
X114208716Y-91254243D01*
X114211039Y-91259224D01*
X114211039Y-91259225D01*
X114303151Y-91456762D01*
X114303154Y-91456767D01*
X114305477Y-91461749D01*
X114436802Y-91649300D01*
X114598700Y-91811198D01*
X114603208Y-91814355D01*
X114603211Y-91814357D01*
X114681389Y-91869098D01*
X114786251Y-91942523D01*
X114791233Y-91944846D01*
X114791238Y-91944849D01*
X114988775Y-92036961D01*
X114993757Y-92039284D01*
X114999065Y-92040706D01*
X114999067Y-92040707D01*
X115209598Y-92097119D01*
X115209600Y-92097119D01*
X115214913Y-92098543D01*
X115443000Y-92118498D01*
X115671087Y-92098543D01*
X115676400Y-92097119D01*
X115676402Y-92097119D01*
X115886933Y-92040707D01*
X115886935Y-92040706D01*
X115892243Y-92039284D01*
X115897225Y-92036961D01*
X116094762Y-91944849D01*
X116094767Y-91944846D01*
X116099749Y-91942523D01*
X116204611Y-91869098D01*
X116282789Y-91814357D01*
X116282792Y-91814355D01*
X116287300Y-91811198D01*
X116449198Y-91649300D01*
X116580523Y-91461749D01*
X116582846Y-91456767D01*
X116582849Y-91456762D01*
X116674961Y-91259225D01*
X116674961Y-91259224D01*
X116677284Y-91254243D01*
X116736543Y-91033087D01*
X116756498Y-90805000D01*
X119209502Y-90805000D01*
X119229457Y-91033087D01*
X119288716Y-91254243D01*
X119291039Y-91259224D01*
X119291039Y-91259225D01*
X119383151Y-91456762D01*
X119383154Y-91456767D01*
X119385477Y-91461749D01*
X119516802Y-91649300D01*
X119678700Y-91811198D01*
X119683208Y-91814355D01*
X119683211Y-91814357D01*
X119761389Y-91869098D01*
X119866251Y-91942523D01*
X119871233Y-91944846D01*
X119871238Y-91944849D01*
X120068775Y-92036961D01*
X120073757Y-92039284D01*
X120079065Y-92040706D01*
X120079067Y-92040707D01*
X120289598Y-92097119D01*
X120289600Y-92097119D01*
X120294913Y-92098543D01*
X120523000Y-92118498D01*
X120751087Y-92098543D01*
X120756400Y-92097119D01*
X120756402Y-92097119D01*
X120966933Y-92040707D01*
X120966935Y-92040706D01*
X120972243Y-92039284D01*
X120977225Y-92036961D01*
X121174762Y-91944849D01*
X121174767Y-91944846D01*
X121179749Y-91942523D01*
X121284611Y-91869098D01*
X121362789Y-91814357D01*
X121362792Y-91814355D01*
X121367300Y-91811198D01*
X121529198Y-91649300D01*
X121660523Y-91461749D01*
X121662846Y-91456767D01*
X121662849Y-91456762D01*
X121754961Y-91259225D01*
X121754961Y-91259224D01*
X121757284Y-91254243D01*
X121816543Y-91033087D01*
X121836498Y-90805000D01*
X121816543Y-90576913D01*
X121757284Y-90355757D01*
X121670665Y-90170000D01*
X128499496Y-90170000D01*
X128519458Y-90359928D01*
X128578473Y-90541556D01*
X128673960Y-90706944D01*
X128678378Y-90711851D01*
X128678379Y-90711852D01*
X128797325Y-90843955D01*
X128801747Y-90848866D01*
X128956248Y-90961118D01*
X128962276Y-90963802D01*
X128962278Y-90963803D01*
X129124681Y-91036109D01*
X129130712Y-91038794D01*
X129219347Y-91057634D01*
X129311056Y-91077128D01*
X129311061Y-91077128D01*
X129317513Y-91078500D01*
X129508487Y-91078500D01*
X129514939Y-91077128D01*
X129514944Y-91077128D01*
X129606653Y-91057634D01*
X129695288Y-91038794D01*
X129701319Y-91036109D01*
X129863722Y-90963803D01*
X129863724Y-90963802D01*
X129869752Y-90961118D01*
X130024253Y-90848866D01*
X130028675Y-90843955D01*
X130147621Y-90711852D01*
X130147622Y-90711851D01*
X130152040Y-90706944D01*
X130247527Y-90541556D01*
X130306542Y-90359928D01*
X130326504Y-90170000D01*
X130306542Y-89980072D01*
X130247527Y-89798444D01*
X130152040Y-89633056D01*
X130024253Y-89491134D01*
X129869752Y-89378882D01*
X129863724Y-89376198D01*
X129863722Y-89376197D01*
X129701319Y-89303891D01*
X129701318Y-89303891D01*
X129695288Y-89301206D01*
X129601887Y-89281353D01*
X129514944Y-89262872D01*
X129514939Y-89262872D01*
X129508487Y-89261500D01*
X129317513Y-89261500D01*
X129311061Y-89262872D01*
X129311056Y-89262872D01*
X129224113Y-89281353D01*
X129130712Y-89301206D01*
X129124682Y-89303891D01*
X129124681Y-89303891D01*
X128962278Y-89376197D01*
X128962276Y-89376198D01*
X128956248Y-89378882D01*
X128801747Y-89491134D01*
X128673960Y-89633056D01*
X128578473Y-89798444D01*
X128519458Y-89980072D01*
X128499496Y-90170000D01*
X121670665Y-90170000D01*
X121662849Y-90153238D01*
X121662846Y-90153233D01*
X121660523Y-90148251D01*
X121547358Y-89986635D01*
X121532357Y-89965211D01*
X121532355Y-89965208D01*
X121529198Y-89960700D01*
X121367300Y-89798802D01*
X121362792Y-89795645D01*
X121362789Y-89795643D01*
X121284611Y-89740902D01*
X121179749Y-89667477D01*
X121174767Y-89665154D01*
X121174762Y-89665151D01*
X120977225Y-89573039D01*
X120977224Y-89573039D01*
X120972243Y-89570716D01*
X120966935Y-89569294D01*
X120966933Y-89569293D01*
X120756402Y-89512881D01*
X120756400Y-89512881D01*
X120751087Y-89511457D01*
X120523000Y-89491502D01*
X120294913Y-89511457D01*
X120289600Y-89512881D01*
X120289598Y-89512881D01*
X120079067Y-89569293D01*
X120079065Y-89569294D01*
X120073757Y-89570716D01*
X120068776Y-89573039D01*
X120068775Y-89573039D01*
X119871238Y-89665151D01*
X119871233Y-89665154D01*
X119866251Y-89667477D01*
X119761389Y-89740902D01*
X119683211Y-89795643D01*
X119683208Y-89795645D01*
X119678700Y-89798802D01*
X119516802Y-89960700D01*
X119513645Y-89965208D01*
X119513643Y-89965211D01*
X119498642Y-89986635D01*
X119385477Y-90148251D01*
X119383154Y-90153233D01*
X119383151Y-90153238D01*
X119375335Y-90170000D01*
X119288716Y-90355757D01*
X119229457Y-90576913D01*
X119209502Y-90805000D01*
X116756498Y-90805000D01*
X116736543Y-90576913D01*
X116677284Y-90355757D01*
X116590665Y-90170000D01*
X116582849Y-90153238D01*
X116582846Y-90153233D01*
X116580523Y-90148251D01*
X116467358Y-89986635D01*
X116452357Y-89965211D01*
X116452355Y-89965208D01*
X116449198Y-89960700D01*
X116287300Y-89798802D01*
X116282792Y-89795645D01*
X116282789Y-89795643D01*
X116204611Y-89740902D01*
X116099749Y-89667477D01*
X116094767Y-89665154D01*
X116094762Y-89665151D01*
X115897225Y-89573039D01*
X115897224Y-89573039D01*
X115892243Y-89570716D01*
X115886935Y-89569294D01*
X115886933Y-89569293D01*
X115676402Y-89512881D01*
X115676400Y-89512881D01*
X115671087Y-89511457D01*
X115443000Y-89491502D01*
X115214913Y-89511457D01*
X115209600Y-89512881D01*
X115209598Y-89512881D01*
X114999067Y-89569293D01*
X114999065Y-89569294D01*
X114993757Y-89570716D01*
X114988776Y-89573039D01*
X114988775Y-89573039D01*
X114791238Y-89665151D01*
X114791233Y-89665154D01*
X114786251Y-89667477D01*
X114681389Y-89740902D01*
X114603211Y-89795643D01*
X114603208Y-89795645D01*
X114598700Y-89798802D01*
X114436802Y-89960700D01*
X114433645Y-89965208D01*
X114433643Y-89965211D01*
X114418642Y-89986635D01*
X114305477Y-90148251D01*
X114303154Y-90153233D01*
X114303151Y-90153238D01*
X114295335Y-90170000D01*
X114208716Y-90355757D01*
X114149457Y-90576913D01*
X114129502Y-90805000D01*
X112031897Y-90805000D01*
X112033442Y-88185000D01*
X124924502Y-88185000D01*
X124944457Y-88413087D01*
X125003716Y-88634243D01*
X125006039Y-88639224D01*
X125006039Y-88639225D01*
X125098151Y-88836762D01*
X125098154Y-88836767D01*
X125100477Y-88841749D01*
X125231802Y-89029300D01*
X125393700Y-89191198D01*
X125398208Y-89194355D01*
X125398211Y-89194357D01*
X125476389Y-89249098D01*
X125581251Y-89322523D01*
X125586233Y-89324846D01*
X125586238Y-89324849D01*
X125723353Y-89388786D01*
X125788757Y-89419284D01*
X125794065Y-89420706D01*
X125794067Y-89420707D01*
X126004598Y-89477119D01*
X126004600Y-89477119D01*
X126009913Y-89478543D01*
X126238000Y-89498498D01*
X126466087Y-89478543D01*
X126471400Y-89477119D01*
X126471402Y-89477119D01*
X126681933Y-89420707D01*
X126681935Y-89420706D01*
X126687243Y-89419284D01*
X126752647Y-89388786D01*
X126889762Y-89324849D01*
X126889767Y-89324846D01*
X126894749Y-89322523D01*
X126999611Y-89249098D01*
X127077789Y-89194357D01*
X127077792Y-89194355D01*
X127082300Y-89191198D01*
X127244198Y-89029300D01*
X127272648Y-88988669D01*
X133052001Y-88988669D01*
X133052371Y-88995490D01*
X133057895Y-89046352D01*
X133061521Y-89061604D01*
X133106676Y-89182054D01*
X133115214Y-89197649D01*
X133191715Y-89299724D01*
X133204276Y-89312285D01*
X133306351Y-89388786D01*
X133321946Y-89397324D01*
X133442394Y-89442478D01*
X133457649Y-89446105D01*
X133508514Y-89451631D01*
X133515328Y-89452000D01*
X133712885Y-89452000D01*
X133728124Y-89447525D01*
X133729329Y-89446135D01*
X133731000Y-89438452D01*
X133731000Y-89433884D01*
X134239000Y-89433884D01*
X134243475Y-89449123D01*
X134244865Y-89450328D01*
X134252548Y-89451999D01*
X134454669Y-89451999D01*
X134461490Y-89451629D01*
X134512352Y-89446105D01*
X134527604Y-89442479D01*
X134648054Y-89397324D01*
X134663649Y-89388786D01*
X134765724Y-89312285D01*
X134778285Y-89299724D01*
X134854786Y-89197649D01*
X134863324Y-89182054D01*
X134908478Y-89061606D01*
X134912105Y-89046351D01*
X134917631Y-88995486D01*
X134918000Y-88988672D01*
X134918000Y-88791115D01*
X134913525Y-88775876D01*
X134912135Y-88774671D01*
X134904452Y-88773000D01*
X134257115Y-88773000D01*
X134241876Y-88777475D01*
X134240671Y-88778865D01*
X134239000Y-88786548D01*
X134239000Y-89433884D01*
X133731000Y-89433884D01*
X133731000Y-88791115D01*
X133726525Y-88775876D01*
X133725135Y-88774671D01*
X133717452Y-88773000D01*
X133070116Y-88773000D01*
X133054877Y-88777475D01*
X133053672Y-88778865D01*
X133052001Y-88786548D01*
X133052001Y-88988669D01*
X127272648Y-88988669D01*
X127375523Y-88841749D01*
X127377846Y-88836767D01*
X127377849Y-88836762D01*
X127469961Y-88639225D01*
X127469961Y-88639224D01*
X127472284Y-88634243D01*
X127531543Y-88413087D01*
X127546084Y-88246885D01*
X133052000Y-88246885D01*
X133056475Y-88262124D01*
X133057865Y-88263329D01*
X133065548Y-88265000D01*
X133712885Y-88265000D01*
X133728124Y-88260525D01*
X133729329Y-88259135D01*
X133731000Y-88251452D01*
X133731000Y-88246885D01*
X134239000Y-88246885D01*
X134243475Y-88262124D01*
X134244865Y-88263329D01*
X134252548Y-88265000D01*
X134899884Y-88265000D01*
X134915123Y-88260525D01*
X134916328Y-88259135D01*
X134917999Y-88251452D01*
X134917999Y-88049331D01*
X134917629Y-88042510D01*
X134912105Y-87991648D01*
X134908479Y-87976396D01*
X134863324Y-87855946D01*
X134854786Y-87840351D01*
X134778285Y-87738276D01*
X134765724Y-87725715D01*
X134663649Y-87649214D01*
X134648054Y-87640676D01*
X134527606Y-87595522D01*
X134512351Y-87591895D01*
X134461486Y-87586369D01*
X134454672Y-87586000D01*
X134257115Y-87586000D01*
X134241876Y-87590475D01*
X134240671Y-87591865D01*
X134239000Y-87599548D01*
X134239000Y-88246885D01*
X133731000Y-88246885D01*
X133731000Y-87604116D01*
X133726525Y-87588877D01*
X133725135Y-87587672D01*
X133717452Y-87586001D01*
X133515331Y-87586001D01*
X133508510Y-87586371D01*
X133457648Y-87591895D01*
X133442396Y-87595521D01*
X133321946Y-87640676D01*
X133306351Y-87649214D01*
X133204276Y-87725715D01*
X133191715Y-87738276D01*
X133115214Y-87840351D01*
X133106676Y-87855946D01*
X133061522Y-87976394D01*
X133057895Y-87991649D01*
X133052369Y-88042514D01*
X133052000Y-88049328D01*
X133052000Y-88246885D01*
X127546084Y-88246885D01*
X127551498Y-88185000D01*
X127531543Y-87956913D01*
X127472284Y-87735757D01*
X127469961Y-87730775D01*
X127377849Y-87533238D01*
X127377846Y-87533233D01*
X127375523Y-87528251D01*
X127244198Y-87340700D01*
X127082300Y-87178802D01*
X127077792Y-87175645D01*
X127077789Y-87175643D01*
X126999611Y-87120902D01*
X126894749Y-87047477D01*
X126889767Y-87045154D01*
X126889762Y-87045151D01*
X126692225Y-86953039D01*
X126692224Y-86953039D01*
X126687243Y-86950716D01*
X126681935Y-86949294D01*
X126681933Y-86949293D01*
X126471402Y-86892881D01*
X126471400Y-86892881D01*
X126466087Y-86891457D01*
X126238000Y-86871502D01*
X126009913Y-86891457D01*
X126004600Y-86892881D01*
X126004598Y-86892881D01*
X125794067Y-86949293D01*
X125794065Y-86949294D01*
X125788757Y-86950716D01*
X125783776Y-86953039D01*
X125783775Y-86953039D01*
X125586238Y-87045151D01*
X125586233Y-87045154D01*
X125581251Y-87047477D01*
X125476389Y-87120902D01*
X125398211Y-87175643D01*
X125398208Y-87175645D01*
X125393700Y-87178802D01*
X125231802Y-87340700D01*
X125100477Y-87528251D01*
X125098154Y-87533233D01*
X125098151Y-87533238D01*
X125006039Y-87730775D01*
X125003716Y-87735757D01*
X124944457Y-87956913D01*
X124924502Y-88185000D01*
X112033442Y-88185000D01*
X112034248Y-86817200D01*
X140407702Y-86817200D01*
X140427657Y-87045287D01*
X140486916Y-87266443D01*
X140489239Y-87271424D01*
X140489239Y-87271425D01*
X140581351Y-87468962D01*
X140581354Y-87468967D01*
X140583677Y-87473949D01*
X140586834Y-87478457D01*
X140668804Y-87595522D01*
X140715002Y-87661500D01*
X140876900Y-87823398D01*
X140881408Y-87826555D01*
X140881411Y-87826557D01*
X140901111Y-87840351D01*
X141064451Y-87954723D01*
X141069433Y-87957046D01*
X141069438Y-87957049D01*
X141266975Y-88049161D01*
X141271957Y-88051484D01*
X141277265Y-88052906D01*
X141277267Y-88052907D01*
X141487798Y-88109319D01*
X141487800Y-88109319D01*
X141493113Y-88110743D01*
X141721200Y-88130698D01*
X141949287Y-88110743D01*
X141954600Y-88109319D01*
X141954602Y-88109319D01*
X142165133Y-88052907D01*
X142165135Y-88052906D01*
X142170443Y-88051484D01*
X142175425Y-88049161D01*
X142372962Y-87957049D01*
X142372967Y-87957046D01*
X142377949Y-87954723D01*
X142541289Y-87840351D01*
X142560989Y-87826557D01*
X142560992Y-87826555D01*
X142565500Y-87823398D01*
X142727398Y-87661500D01*
X142773597Y-87595522D01*
X142855566Y-87478457D01*
X142858723Y-87473949D01*
X142861046Y-87468967D01*
X142861049Y-87468962D01*
X142953161Y-87271425D01*
X142953161Y-87271424D01*
X142955484Y-87266443D01*
X143014743Y-87045287D01*
X143034698Y-86817200D01*
X145407702Y-86817200D01*
X145427657Y-87045287D01*
X145486916Y-87266443D01*
X145489239Y-87271424D01*
X145489239Y-87271425D01*
X145581351Y-87468962D01*
X145581354Y-87468967D01*
X145583677Y-87473949D01*
X145586834Y-87478457D01*
X145668804Y-87595522D01*
X145715002Y-87661500D01*
X145876900Y-87823398D01*
X145881408Y-87826555D01*
X145881411Y-87826557D01*
X145901111Y-87840351D01*
X146064451Y-87954723D01*
X146069433Y-87957046D01*
X146069438Y-87957049D01*
X146266975Y-88049161D01*
X146271957Y-88051484D01*
X146277265Y-88052906D01*
X146277267Y-88052907D01*
X146487798Y-88109319D01*
X146487800Y-88109319D01*
X146493113Y-88110743D01*
X146721200Y-88130698D01*
X146949287Y-88110743D01*
X146954600Y-88109319D01*
X146954602Y-88109319D01*
X147165133Y-88052907D01*
X147165135Y-88052906D01*
X147170443Y-88051484D01*
X147175425Y-88049161D01*
X147372962Y-87957049D01*
X147372967Y-87957046D01*
X147377949Y-87954723D01*
X147541289Y-87840351D01*
X147560989Y-87826557D01*
X147560992Y-87826555D01*
X147565500Y-87823398D01*
X147727398Y-87661500D01*
X147773597Y-87595522D01*
X147855566Y-87478457D01*
X147858723Y-87473949D01*
X147861046Y-87468967D01*
X147861049Y-87468962D01*
X147953161Y-87271425D01*
X147953161Y-87271424D01*
X147955484Y-87266443D01*
X148014743Y-87045287D01*
X148034698Y-86817200D01*
X148014743Y-86589113D01*
X147955484Y-86367957D01*
X147953161Y-86362975D01*
X147861049Y-86165438D01*
X147861046Y-86165433D01*
X147858723Y-86160451D01*
X147727398Y-85972900D01*
X147565500Y-85811002D01*
X147560992Y-85807845D01*
X147560989Y-85807843D01*
X147482811Y-85753102D01*
X147377949Y-85679677D01*
X147372967Y-85677354D01*
X147372962Y-85677351D01*
X147175425Y-85585239D01*
X147175424Y-85585239D01*
X147170443Y-85582916D01*
X147165135Y-85581494D01*
X147165133Y-85581493D01*
X146954602Y-85525081D01*
X146954600Y-85525081D01*
X146949287Y-85523657D01*
X146721200Y-85503702D01*
X146493113Y-85523657D01*
X146487800Y-85525081D01*
X146487798Y-85525081D01*
X146277267Y-85581493D01*
X146277265Y-85581494D01*
X146271957Y-85582916D01*
X146266976Y-85585239D01*
X146266975Y-85585239D01*
X146069438Y-85677351D01*
X146069433Y-85677354D01*
X146064451Y-85679677D01*
X145959589Y-85753102D01*
X145881411Y-85807843D01*
X145881408Y-85807845D01*
X145876900Y-85811002D01*
X145715002Y-85972900D01*
X145583677Y-86160451D01*
X145581354Y-86165433D01*
X145581351Y-86165438D01*
X145489239Y-86362975D01*
X145486916Y-86367957D01*
X145427657Y-86589113D01*
X145407702Y-86817200D01*
X143034698Y-86817200D01*
X143014743Y-86589113D01*
X142955484Y-86367957D01*
X142953161Y-86362975D01*
X142861049Y-86165438D01*
X142861046Y-86165433D01*
X142858723Y-86160451D01*
X142727398Y-85972900D01*
X142565500Y-85811002D01*
X142560992Y-85807845D01*
X142560989Y-85807843D01*
X142482811Y-85753102D01*
X142377949Y-85679677D01*
X142372967Y-85677354D01*
X142372962Y-85677351D01*
X142175425Y-85585239D01*
X142175424Y-85585239D01*
X142170443Y-85582916D01*
X142165135Y-85581494D01*
X142165133Y-85581493D01*
X141954602Y-85525081D01*
X141954600Y-85525081D01*
X141949287Y-85523657D01*
X141721200Y-85503702D01*
X141493113Y-85523657D01*
X141487800Y-85525081D01*
X141487798Y-85525081D01*
X141277267Y-85581493D01*
X141277265Y-85581494D01*
X141271957Y-85582916D01*
X141266976Y-85585239D01*
X141266975Y-85585239D01*
X141069438Y-85677351D01*
X141069433Y-85677354D01*
X141064451Y-85679677D01*
X140959589Y-85753102D01*
X140881411Y-85807843D01*
X140881408Y-85807845D01*
X140876900Y-85811002D01*
X140715002Y-85972900D01*
X140583677Y-86160451D01*
X140581354Y-86165433D01*
X140581351Y-86165438D01*
X140489239Y-86362975D01*
X140486916Y-86367957D01*
X140427657Y-86589113D01*
X140407702Y-86817200D01*
X112034248Y-86817200D01*
X112036390Y-83185000D01*
X124924502Y-83185000D01*
X124944457Y-83413087D01*
X125003716Y-83634243D01*
X125006039Y-83639224D01*
X125006039Y-83639225D01*
X125098151Y-83836762D01*
X125098154Y-83836767D01*
X125100477Y-83841749D01*
X125231802Y-84029300D01*
X125393700Y-84191198D01*
X125398208Y-84194355D01*
X125398211Y-84194357D01*
X125447764Y-84229054D01*
X125581251Y-84322523D01*
X125586233Y-84324846D01*
X125586238Y-84324849D01*
X125783775Y-84416961D01*
X125788757Y-84419284D01*
X125794065Y-84420706D01*
X125794067Y-84420707D01*
X126004598Y-84477119D01*
X126004600Y-84477119D01*
X126009913Y-84478543D01*
X126238000Y-84498498D01*
X126466087Y-84478543D01*
X126471400Y-84477119D01*
X126471402Y-84477119D01*
X126681933Y-84420707D01*
X126681935Y-84420706D01*
X126687243Y-84419284D01*
X126692225Y-84416961D01*
X126889762Y-84324849D01*
X126889767Y-84324846D01*
X126894749Y-84322523D01*
X127028236Y-84229054D01*
X127077789Y-84194357D01*
X127077792Y-84194355D01*
X127082300Y-84191198D01*
X127237829Y-84035669D01*
X133052001Y-84035669D01*
X133052371Y-84042490D01*
X133057895Y-84093352D01*
X133061521Y-84108604D01*
X133106676Y-84229054D01*
X133115214Y-84244649D01*
X133191715Y-84346724D01*
X133204276Y-84359285D01*
X133306351Y-84435786D01*
X133321946Y-84444324D01*
X133442394Y-84489478D01*
X133457649Y-84493105D01*
X133508514Y-84498631D01*
X133515328Y-84499000D01*
X133712885Y-84499000D01*
X133728124Y-84494525D01*
X133729329Y-84493135D01*
X133731000Y-84485452D01*
X133731000Y-84480884D01*
X134239000Y-84480884D01*
X134243475Y-84496123D01*
X134244865Y-84497328D01*
X134252548Y-84498999D01*
X134454669Y-84498999D01*
X134461490Y-84498629D01*
X134512352Y-84493105D01*
X134527604Y-84489479D01*
X134648054Y-84444324D01*
X134663649Y-84435786D01*
X134765724Y-84359285D01*
X134778285Y-84346724D01*
X134854786Y-84244649D01*
X134863324Y-84229054D01*
X134908478Y-84108606D01*
X134912105Y-84093351D01*
X134917631Y-84042486D01*
X134918000Y-84035672D01*
X134918000Y-83838115D01*
X134913525Y-83822876D01*
X134912135Y-83821671D01*
X134904452Y-83820000D01*
X134257115Y-83820000D01*
X134241876Y-83824475D01*
X134240671Y-83825865D01*
X134239000Y-83833548D01*
X134239000Y-84480884D01*
X133731000Y-84480884D01*
X133731000Y-83838115D01*
X133726525Y-83822876D01*
X133725135Y-83821671D01*
X133717452Y-83820000D01*
X133070116Y-83820000D01*
X133054877Y-83824475D01*
X133053672Y-83825865D01*
X133052001Y-83833548D01*
X133052001Y-84035669D01*
X127237829Y-84035669D01*
X127244198Y-84029300D01*
X127375523Y-83841749D01*
X127377846Y-83836767D01*
X127377849Y-83836762D01*
X127469961Y-83639225D01*
X127469961Y-83639224D01*
X127472284Y-83634243D01*
X127531543Y-83413087D01*
X127541972Y-83293885D01*
X133052000Y-83293885D01*
X133056475Y-83309124D01*
X133057865Y-83310329D01*
X133065548Y-83312000D01*
X133712885Y-83312000D01*
X133728124Y-83307525D01*
X133729329Y-83306135D01*
X133731000Y-83298452D01*
X133731000Y-83293885D01*
X134239000Y-83293885D01*
X134243475Y-83309124D01*
X134244865Y-83310329D01*
X134252548Y-83312000D01*
X134899884Y-83312000D01*
X134915123Y-83307525D01*
X134916328Y-83306135D01*
X134917999Y-83298452D01*
X134917999Y-83096331D01*
X134917629Y-83089510D01*
X134912105Y-83038648D01*
X134908479Y-83023396D01*
X134863324Y-82902946D01*
X134854786Y-82887351D01*
X134778285Y-82785276D01*
X134765724Y-82772715D01*
X134663649Y-82696214D01*
X134648054Y-82687676D01*
X134527606Y-82642522D01*
X134512351Y-82638895D01*
X134461486Y-82633369D01*
X134454672Y-82633000D01*
X134257115Y-82633000D01*
X134241876Y-82637475D01*
X134240671Y-82638865D01*
X134239000Y-82646548D01*
X134239000Y-83293885D01*
X133731000Y-83293885D01*
X133731000Y-82651116D01*
X133726525Y-82635877D01*
X133725135Y-82634672D01*
X133717452Y-82633001D01*
X133515331Y-82633001D01*
X133508510Y-82633371D01*
X133457648Y-82638895D01*
X133442396Y-82642521D01*
X133321946Y-82687676D01*
X133306351Y-82696214D01*
X133204276Y-82772715D01*
X133191715Y-82785276D01*
X133115214Y-82887351D01*
X133106676Y-82902946D01*
X133061522Y-83023394D01*
X133057895Y-83038649D01*
X133052369Y-83089514D01*
X133052000Y-83096328D01*
X133052000Y-83293885D01*
X127541972Y-83293885D01*
X127551498Y-83185000D01*
X127531543Y-82956913D01*
X127530119Y-82951598D01*
X127473707Y-82741067D01*
X127473706Y-82741065D01*
X127472284Y-82735757D01*
X127432816Y-82651116D01*
X127377849Y-82533238D01*
X127377846Y-82533233D01*
X127375523Y-82528251D01*
X127244198Y-82340700D01*
X127082300Y-82178802D01*
X127077792Y-82175645D01*
X127077789Y-82175643D01*
X126999611Y-82120902D01*
X126894749Y-82047477D01*
X126889767Y-82045154D01*
X126889762Y-82045151D01*
X126692225Y-81953039D01*
X126692224Y-81953039D01*
X126687243Y-81950716D01*
X126681935Y-81949294D01*
X126681933Y-81949293D01*
X126471402Y-81892881D01*
X126471400Y-81892881D01*
X126466087Y-81891457D01*
X126238000Y-81871502D01*
X126009913Y-81891457D01*
X126004600Y-81892881D01*
X126004598Y-81892881D01*
X125794067Y-81949293D01*
X125794065Y-81949294D01*
X125788757Y-81950716D01*
X125783776Y-81953039D01*
X125783775Y-81953039D01*
X125586238Y-82045151D01*
X125586233Y-82045154D01*
X125581251Y-82047477D01*
X125476389Y-82120902D01*
X125398211Y-82175643D01*
X125398208Y-82175645D01*
X125393700Y-82178802D01*
X125231802Y-82340700D01*
X125100477Y-82528251D01*
X125098154Y-82533233D01*
X125098151Y-82533238D01*
X125043184Y-82651116D01*
X125003716Y-82735757D01*
X125002294Y-82741065D01*
X125002293Y-82741067D01*
X124945881Y-82951598D01*
X124944457Y-82956913D01*
X124924502Y-83185000D01*
X112036390Y-83185000D01*
X112037888Y-80645000D01*
X114129502Y-80645000D01*
X114149457Y-80873087D01*
X114150881Y-80878400D01*
X114150881Y-80878402D01*
X114168726Y-80944998D01*
X114208716Y-81094243D01*
X114211039Y-81099224D01*
X114211039Y-81099225D01*
X114303151Y-81296762D01*
X114303154Y-81296767D01*
X114305477Y-81301749D01*
X114436802Y-81489300D01*
X114598700Y-81651198D01*
X114603208Y-81654355D01*
X114603211Y-81654357D01*
X114681389Y-81709098D01*
X114786251Y-81782523D01*
X114791233Y-81784846D01*
X114791238Y-81784849D01*
X114988775Y-81876961D01*
X114993757Y-81879284D01*
X114999065Y-81880706D01*
X114999067Y-81880707D01*
X115209598Y-81937119D01*
X115209600Y-81937119D01*
X115214913Y-81938543D01*
X115443000Y-81958498D01*
X115671087Y-81938543D01*
X115676400Y-81937119D01*
X115676402Y-81937119D01*
X115886933Y-81880707D01*
X115886935Y-81880706D01*
X115892243Y-81879284D01*
X115897225Y-81876961D01*
X116094762Y-81784849D01*
X116094767Y-81784846D01*
X116099749Y-81782523D01*
X116204611Y-81709098D01*
X116282789Y-81654357D01*
X116282792Y-81654355D01*
X116287300Y-81651198D01*
X116449198Y-81489300D01*
X116580523Y-81301749D01*
X116582846Y-81296767D01*
X116582849Y-81296762D01*
X116674961Y-81099225D01*
X116674961Y-81099224D01*
X116677284Y-81094243D01*
X116717275Y-80944998D01*
X116735119Y-80878402D01*
X116735119Y-80878400D01*
X116736543Y-80873087D01*
X116756498Y-80645000D01*
X119209502Y-80645000D01*
X119229457Y-80873087D01*
X119230881Y-80878400D01*
X119230881Y-80878402D01*
X119248726Y-80944998D01*
X119288716Y-81094243D01*
X119291039Y-81099224D01*
X119291039Y-81099225D01*
X119383151Y-81296762D01*
X119383154Y-81296767D01*
X119385477Y-81301749D01*
X119516802Y-81489300D01*
X119678700Y-81651198D01*
X119683208Y-81654355D01*
X119683211Y-81654357D01*
X119761389Y-81709098D01*
X119866251Y-81782523D01*
X119871233Y-81784846D01*
X119871238Y-81784849D01*
X120068775Y-81876961D01*
X120073757Y-81879284D01*
X120079065Y-81880706D01*
X120079067Y-81880707D01*
X120289598Y-81937119D01*
X120289600Y-81937119D01*
X120294913Y-81938543D01*
X120523000Y-81958498D01*
X120751087Y-81938543D01*
X120756400Y-81937119D01*
X120756402Y-81937119D01*
X120966933Y-81880707D01*
X120966935Y-81880706D01*
X120972243Y-81879284D01*
X120977225Y-81876961D01*
X121174762Y-81784849D01*
X121174767Y-81784846D01*
X121179749Y-81782523D01*
X121284611Y-81709098D01*
X121362789Y-81654357D01*
X121362792Y-81654355D01*
X121367300Y-81651198D01*
X121529198Y-81489300D01*
X121660523Y-81301749D01*
X121662846Y-81296767D01*
X121662849Y-81296762D01*
X121718041Y-81178400D01*
X139097702Y-81178400D01*
X139117657Y-81406487D01*
X139176916Y-81627643D01*
X139179239Y-81632624D01*
X139179239Y-81632625D01*
X139271351Y-81830162D01*
X139271354Y-81830167D01*
X139273677Y-81835149D01*
X139405002Y-82022700D01*
X139566900Y-82184598D01*
X139571408Y-82187755D01*
X139571411Y-82187757D01*
X139649589Y-82242498D01*
X139754451Y-82315923D01*
X139759433Y-82318246D01*
X139759438Y-82318249D01*
X139956975Y-82410361D01*
X139961957Y-82412684D01*
X139967265Y-82414106D01*
X139967267Y-82414107D01*
X140177798Y-82470519D01*
X140177800Y-82470519D01*
X140183113Y-82471943D01*
X140411200Y-82491898D01*
X140639287Y-82471943D01*
X140644600Y-82470519D01*
X140644602Y-82470519D01*
X140855133Y-82414107D01*
X140855135Y-82414106D01*
X140860443Y-82412684D01*
X140865425Y-82410361D01*
X141062962Y-82318249D01*
X141062967Y-82318246D01*
X141067949Y-82315923D01*
X141172811Y-82242498D01*
X141250989Y-82187757D01*
X141250992Y-82187755D01*
X141255500Y-82184598D01*
X141417398Y-82022700D01*
X141548723Y-81835149D01*
X141551046Y-81830167D01*
X141551049Y-81830162D01*
X141643161Y-81632625D01*
X141643161Y-81632624D01*
X141645484Y-81627643D01*
X141704743Y-81406487D01*
X141724698Y-81178400D01*
X149257702Y-81178400D01*
X149277657Y-81406487D01*
X149336916Y-81627643D01*
X149339239Y-81632624D01*
X149339239Y-81632625D01*
X149431351Y-81830162D01*
X149431354Y-81830167D01*
X149433677Y-81835149D01*
X149565002Y-82022700D01*
X149726900Y-82184598D01*
X149731408Y-82187755D01*
X149731411Y-82187757D01*
X149809589Y-82242498D01*
X149914451Y-82315923D01*
X149919433Y-82318246D01*
X149919438Y-82318249D01*
X150116975Y-82410361D01*
X150121957Y-82412684D01*
X150127265Y-82414106D01*
X150127267Y-82414107D01*
X150337798Y-82470519D01*
X150337800Y-82470519D01*
X150343113Y-82471943D01*
X150571200Y-82491898D01*
X150799287Y-82471943D01*
X150804600Y-82470519D01*
X150804602Y-82470519D01*
X151015133Y-82414107D01*
X151015135Y-82414106D01*
X151020443Y-82412684D01*
X151025425Y-82410361D01*
X151222962Y-82318249D01*
X151222967Y-82318246D01*
X151227949Y-82315923D01*
X151332811Y-82242498D01*
X151410989Y-82187757D01*
X151410992Y-82187755D01*
X151415500Y-82184598D01*
X151577398Y-82022700D01*
X151708723Y-81835149D01*
X151711046Y-81830167D01*
X151711049Y-81830162D01*
X151803161Y-81632625D01*
X151803161Y-81632624D01*
X151805484Y-81627643D01*
X151864743Y-81406487D01*
X151884698Y-81178400D01*
X151864743Y-80950313D01*
X151863319Y-80944998D01*
X151806907Y-80734467D01*
X151806906Y-80734465D01*
X151805484Y-80729157D01*
X151803161Y-80724175D01*
X151711049Y-80526638D01*
X151711046Y-80526633D01*
X151708723Y-80521651D01*
X151577398Y-80334100D01*
X151415500Y-80172202D01*
X151410992Y-80169045D01*
X151410989Y-80169043D01*
X151332811Y-80114302D01*
X151227949Y-80040877D01*
X151222967Y-80038554D01*
X151222962Y-80038551D01*
X151025425Y-79946439D01*
X151025424Y-79946439D01*
X151020443Y-79944116D01*
X151015135Y-79942694D01*
X151015133Y-79942693D01*
X150804602Y-79886281D01*
X150804600Y-79886281D01*
X150799287Y-79884857D01*
X150571200Y-79864902D01*
X150343113Y-79884857D01*
X150337800Y-79886281D01*
X150337798Y-79886281D01*
X150127267Y-79942693D01*
X150127265Y-79942694D01*
X150121957Y-79944116D01*
X150116976Y-79946439D01*
X150116975Y-79946439D01*
X149919438Y-80038551D01*
X149919433Y-80038554D01*
X149914451Y-80040877D01*
X149809589Y-80114302D01*
X149731411Y-80169043D01*
X149731408Y-80169045D01*
X149726900Y-80172202D01*
X149565002Y-80334100D01*
X149433677Y-80521651D01*
X149431354Y-80526633D01*
X149431351Y-80526638D01*
X149339239Y-80724175D01*
X149336916Y-80729157D01*
X149335494Y-80734465D01*
X149335493Y-80734467D01*
X149279081Y-80944998D01*
X149277657Y-80950313D01*
X149257702Y-81178400D01*
X141724698Y-81178400D01*
X141704743Y-80950313D01*
X141703319Y-80944998D01*
X141646907Y-80734467D01*
X141646906Y-80734465D01*
X141645484Y-80729157D01*
X141643161Y-80724175D01*
X141551049Y-80526638D01*
X141551046Y-80526633D01*
X141548723Y-80521651D01*
X141417398Y-80334100D01*
X141255500Y-80172202D01*
X141250992Y-80169045D01*
X141250989Y-80169043D01*
X141172811Y-80114302D01*
X141067949Y-80040877D01*
X141062967Y-80038554D01*
X141062962Y-80038551D01*
X140865425Y-79946439D01*
X140865424Y-79946439D01*
X140860443Y-79944116D01*
X140855135Y-79942694D01*
X140855133Y-79942693D01*
X140644602Y-79886281D01*
X140644600Y-79886281D01*
X140639287Y-79884857D01*
X140411200Y-79864902D01*
X140183113Y-79884857D01*
X140177800Y-79886281D01*
X140177798Y-79886281D01*
X139967267Y-79942693D01*
X139967265Y-79942694D01*
X139961957Y-79944116D01*
X139956976Y-79946439D01*
X139956975Y-79946439D01*
X139759438Y-80038551D01*
X139759433Y-80038554D01*
X139754451Y-80040877D01*
X139649589Y-80114302D01*
X139571411Y-80169043D01*
X139571408Y-80169045D01*
X139566900Y-80172202D01*
X139405002Y-80334100D01*
X139273677Y-80521651D01*
X139271354Y-80526633D01*
X139271351Y-80526638D01*
X139179239Y-80724175D01*
X139176916Y-80729157D01*
X139175494Y-80734465D01*
X139175493Y-80734467D01*
X139119081Y-80944998D01*
X139117657Y-80950313D01*
X139097702Y-81178400D01*
X121718041Y-81178400D01*
X121754961Y-81099225D01*
X121754961Y-81099224D01*
X121757284Y-81094243D01*
X121797275Y-80944998D01*
X121815119Y-80878402D01*
X121815119Y-80878400D01*
X121816543Y-80873087D01*
X121836498Y-80645000D01*
X121816543Y-80416913D01*
X121757284Y-80195757D01*
X121754961Y-80190775D01*
X121662849Y-79993238D01*
X121662846Y-79993233D01*
X121660523Y-79988251D01*
X121529198Y-79800700D01*
X121367300Y-79638802D01*
X121362792Y-79635645D01*
X121362789Y-79635643D01*
X121284611Y-79580902D01*
X121179749Y-79507477D01*
X121174767Y-79505154D01*
X121174762Y-79505151D01*
X120977225Y-79413039D01*
X120977224Y-79413039D01*
X120972243Y-79410716D01*
X120966935Y-79409294D01*
X120966933Y-79409293D01*
X120756402Y-79352881D01*
X120756400Y-79352881D01*
X120751087Y-79351457D01*
X120523000Y-79331502D01*
X120294913Y-79351457D01*
X120289600Y-79352881D01*
X120289598Y-79352881D01*
X120079067Y-79409293D01*
X120079065Y-79409294D01*
X120073757Y-79410716D01*
X120068776Y-79413039D01*
X120068775Y-79413039D01*
X119871238Y-79505151D01*
X119871233Y-79505154D01*
X119866251Y-79507477D01*
X119761389Y-79580902D01*
X119683211Y-79635643D01*
X119683208Y-79635645D01*
X119678700Y-79638802D01*
X119516802Y-79800700D01*
X119385477Y-79988251D01*
X119383154Y-79993233D01*
X119383151Y-79993238D01*
X119291039Y-80190775D01*
X119288716Y-80195757D01*
X119229457Y-80416913D01*
X119209502Y-80645000D01*
X116756498Y-80645000D01*
X116736543Y-80416913D01*
X116677284Y-80195757D01*
X116674961Y-80190775D01*
X116582849Y-79993238D01*
X116582846Y-79993233D01*
X116580523Y-79988251D01*
X116449198Y-79800700D01*
X116287300Y-79638802D01*
X116282792Y-79635645D01*
X116282789Y-79635643D01*
X116204611Y-79580902D01*
X116099749Y-79507477D01*
X116094767Y-79505154D01*
X116094762Y-79505151D01*
X115897225Y-79413039D01*
X115897224Y-79413039D01*
X115892243Y-79410716D01*
X115886935Y-79409294D01*
X115886933Y-79409293D01*
X115676402Y-79352881D01*
X115676400Y-79352881D01*
X115671087Y-79351457D01*
X115443000Y-79331502D01*
X115214913Y-79351457D01*
X115209600Y-79352881D01*
X115209598Y-79352881D01*
X114999067Y-79409293D01*
X114999065Y-79409294D01*
X114993757Y-79410716D01*
X114988776Y-79413039D01*
X114988775Y-79413039D01*
X114791238Y-79505151D01*
X114791233Y-79505154D01*
X114786251Y-79507477D01*
X114681389Y-79580902D01*
X114603211Y-79635643D01*
X114603208Y-79635645D01*
X114598700Y-79638802D01*
X114436802Y-79800700D01*
X114305477Y-79988251D01*
X114303154Y-79993233D01*
X114303151Y-79993238D01*
X114211039Y-80190775D01*
X114208716Y-80195757D01*
X114149457Y-80416913D01*
X114129502Y-80645000D01*
X112037888Y-80645000D01*
X112039326Y-78205526D01*
X112059368Y-78137417D01*
X112113051Y-78090956D01*
X112165326Y-78079600D01*
X153823476Y-78079600D01*
X153891597Y-78099602D01*
G37*
%TD.AperFunction*%
%TD*%
M02*
