%TF.GenerationSoftware,KiCad,Pcbnew,(6.0.0)*%
%TF.CreationDate,2022-05-11T10:24:24+02:00*%
%TF.ProjectId,speed_sensor,73706565-645f-4736-956e-736f722e6b69,v0.04*%
%TF.SameCoordinates,Original*%
%TF.FileFunction,Legend,Top*%
%TF.FilePolarity,Positive*%
%FSLAX46Y46*%
G04 Gerber Fmt 4.6, Leading zero omitted, Abs format (unit mm)*
G04 Created by KiCad (PCBNEW (6.0.0)) date 2022-05-11 10:24:24*
%MOMM*%
%LPD*%
G01*
G04 APERTURE LIST*
%ADD10C,0.125000*%
%ADD11C,0.150000*%
%ADD12C,0.120000*%
%ADD13O,1.727200X2.032000*%
G04 APERTURE END LIST*
D10*
X112277238Y-120249190D02*
X112443904Y-120749190D01*
X112610571Y-120249190D01*
X112967714Y-120725380D02*
X112920095Y-120749190D01*
X112824857Y-120749190D01*
X112777238Y-120725380D01*
X112753428Y-120677761D01*
X112753428Y-120487285D01*
X112777238Y-120439666D01*
X112824857Y-120415857D01*
X112920095Y-120415857D01*
X112967714Y-120439666D01*
X112991523Y-120487285D01*
X112991523Y-120534904D01*
X112753428Y-120582523D01*
X113205809Y-120749190D02*
X113205809Y-120249190D01*
X113420095Y-120749190D02*
X113420095Y-120487285D01*
X113396285Y-120439666D01*
X113348666Y-120415857D01*
X113277238Y-120415857D01*
X113229619Y-120439666D01*
X113205809Y-120463476D01*
X113658190Y-120749190D02*
X113658190Y-120415857D01*
X113658190Y-120249190D02*
X113634380Y-120273000D01*
X113658190Y-120296809D01*
X113682000Y-120273000D01*
X113658190Y-120249190D01*
X113658190Y-120296809D01*
X114110571Y-120725380D02*
X114062952Y-120749190D01*
X113967714Y-120749190D01*
X113920095Y-120725380D01*
X113896285Y-120701571D01*
X113872476Y-120653952D01*
X113872476Y-120511095D01*
X113896285Y-120463476D01*
X113920095Y-120439666D01*
X113967714Y-120415857D01*
X114062952Y-120415857D01*
X114110571Y-120439666D01*
X114396285Y-120749190D02*
X114348666Y-120725380D01*
X114324857Y-120677761D01*
X114324857Y-120249190D01*
X114777238Y-120725380D02*
X114729619Y-120749190D01*
X114634380Y-120749190D01*
X114586761Y-120725380D01*
X114562952Y-120677761D01*
X114562952Y-120487285D01*
X114586761Y-120439666D01*
X114634380Y-120415857D01*
X114729619Y-120415857D01*
X114777238Y-120439666D01*
X114801047Y-120487285D01*
X114801047Y-120534904D01*
X114562952Y-120582523D01*
X115372476Y-120725380D02*
X115420095Y-120749190D01*
X115515333Y-120749190D01*
X115562952Y-120725380D01*
X115586761Y-120677761D01*
X115586761Y-120653952D01*
X115562952Y-120606333D01*
X115515333Y-120582523D01*
X115443904Y-120582523D01*
X115396285Y-120558714D01*
X115372476Y-120511095D01*
X115372476Y-120487285D01*
X115396285Y-120439666D01*
X115443904Y-120415857D01*
X115515333Y-120415857D01*
X115562952Y-120439666D01*
X115801047Y-120415857D02*
X115801047Y-120915857D01*
X115801047Y-120439666D02*
X115848666Y-120415857D01*
X115943904Y-120415857D01*
X115991523Y-120439666D01*
X116015333Y-120463476D01*
X116039142Y-120511095D01*
X116039142Y-120653952D01*
X116015333Y-120701571D01*
X115991523Y-120725380D01*
X115943904Y-120749190D01*
X115848666Y-120749190D01*
X115801047Y-120725380D01*
X116443904Y-120725380D02*
X116396285Y-120749190D01*
X116301047Y-120749190D01*
X116253428Y-120725380D01*
X116229619Y-120677761D01*
X116229619Y-120487285D01*
X116253428Y-120439666D01*
X116301047Y-120415857D01*
X116396285Y-120415857D01*
X116443904Y-120439666D01*
X116467714Y-120487285D01*
X116467714Y-120534904D01*
X116229619Y-120582523D01*
X116872476Y-120725380D02*
X116824857Y-120749190D01*
X116729619Y-120749190D01*
X116682000Y-120725380D01*
X116658190Y-120677761D01*
X116658190Y-120487285D01*
X116682000Y-120439666D01*
X116729619Y-120415857D01*
X116824857Y-120415857D01*
X116872476Y-120439666D01*
X116896285Y-120487285D01*
X116896285Y-120534904D01*
X116658190Y-120582523D01*
X117324857Y-120749190D02*
X117324857Y-120249190D01*
X117324857Y-120725380D02*
X117277238Y-120749190D01*
X117182000Y-120749190D01*
X117134380Y-120725380D01*
X117110571Y-120701571D01*
X117086761Y-120653952D01*
X117086761Y-120511095D01*
X117110571Y-120463476D01*
X117134380Y-120439666D01*
X117182000Y-120415857D01*
X117277238Y-120415857D01*
X117324857Y-120439666D01*
X117943904Y-120749190D02*
X117943904Y-120415857D01*
X117943904Y-120463476D02*
X117967714Y-120439666D01*
X118015333Y-120415857D01*
X118086761Y-120415857D01*
X118134380Y-120439666D01*
X118158190Y-120487285D01*
X118158190Y-120749190D01*
X118158190Y-120487285D02*
X118182000Y-120439666D01*
X118229619Y-120415857D01*
X118301047Y-120415857D01*
X118348666Y-120439666D01*
X118372476Y-120487285D01*
X118372476Y-120749190D01*
X118801047Y-120725380D02*
X118753428Y-120749190D01*
X118658190Y-120749190D01*
X118610571Y-120725380D01*
X118586761Y-120677761D01*
X118586761Y-120487285D01*
X118610571Y-120439666D01*
X118658190Y-120415857D01*
X118753428Y-120415857D01*
X118801047Y-120439666D01*
X118824857Y-120487285D01*
X118824857Y-120534904D01*
X118586761Y-120582523D01*
X119253428Y-120749190D02*
X119253428Y-120487285D01*
X119229619Y-120439666D01*
X119182000Y-120415857D01*
X119086761Y-120415857D01*
X119039142Y-120439666D01*
X119253428Y-120725380D02*
X119205809Y-120749190D01*
X119086761Y-120749190D01*
X119039142Y-120725380D01*
X119015333Y-120677761D01*
X119015333Y-120630142D01*
X119039142Y-120582523D01*
X119086761Y-120558714D01*
X119205809Y-120558714D01*
X119253428Y-120534904D01*
X119467714Y-120725380D02*
X119515333Y-120749190D01*
X119610571Y-120749190D01*
X119658190Y-120725380D01*
X119682000Y-120677761D01*
X119682000Y-120653952D01*
X119658190Y-120606333D01*
X119610571Y-120582523D01*
X119539142Y-120582523D01*
X119491523Y-120558714D01*
X119467714Y-120511095D01*
X119467714Y-120487285D01*
X119491523Y-120439666D01*
X119539142Y-120415857D01*
X119610571Y-120415857D01*
X119658190Y-120439666D01*
X120110571Y-120415857D02*
X120110571Y-120749190D01*
X119896285Y-120415857D02*
X119896285Y-120677761D01*
X119920095Y-120725380D01*
X119967714Y-120749190D01*
X120039142Y-120749190D01*
X120086761Y-120725380D01*
X120110571Y-120701571D01*
X120348666Y-120749190D02*
X120348666Y-120415857D01*
X120348666Y-120511095D02*
X120372476Y-120463476D01*
X120396285Y-120439666D01*
X120443904Y-120415857D01*
X120491523Y-120415857D01*
X120848666Y-120725380D02*
X120801047Y-120749190D01*
X120705809Y-120749190D01*
X120658190Y-120725380D01*
X120634380Y-120677761D01*
X120634380Y-120487285D01*
X120658190Y-120439666D01*
X120705809Y-120415857D01*
X120801047Y-120415857D01*
X120848666Y-120439666D01*
X120872476Y-120487285D01*
X120872476Y-120534904D01*
X120634380Y-120582523D01*
X121086761Y-120749190D02*
X121086761Y-120415857D01*
X121086761Y-120463476D02*
X121110571Y-120439666D01*
X121158190Y-120415857D01*
X121229619Y-120415857D01*
X121277238Y-120439666D01*
X121301047Y-120487285D01*
X121301047Y-120749190D01*
X121301047Y-120487285D02*
X121324857Y-120439666D01*
X121372476Y-120415857D01*
X121443904Y-120415857D01*
X121491523Y-120439666D01*
X121515333Y-120487285D01*
X121515333Y-120749190D01*
X121943904Y-120725380D02*
X121896285Y-120749190D01*
X121801047Y-120749190D01*
X121753428Y-120725380D01*
X121729619Y-120677761D01*
X121729619Y-120487285D01*
X121753428Y-120439666D01*
X121801047Y-120415857D01*
X121896285Y-120415857D01*
X121943904Y-120439666D01*
X121967714Y-120487285D01*
X121967714Y-120534904D01*
X121729619Y-120582523D01*
X122182000Y-120415857D02*
X122182000Y-120749190D01*
X122182000Y-120463476D02*
X122205809Y-120439666D01*
X122253428Y-120415857D01*
X122324857Y-120415857D01*
X122372476Y-120439666D01*
X122396285Y-120487285D01*
X122396285Y-120749190D01*
X122562952Y-120415857D02*
X122753428Y-120415857D01*
X122634380Y-120249190D02*
X122634380Y-120677761D01*
X122658190Y-120725380D01*
X122705809Y-120749190D01*
X122753428Y-120749190D01*
X123515333Y-120415857D02*
X123515333Y-120749190D01*
X123301047Y-120415857D02*
X123301047Y-120677761D01*
X123324857Y-120725380D01*
X123372476Y-120749190D01*
X123443904Y-120749190D01*
X123491523Y-120725380D01*
X123515333Y-120701571D01*
X123729619Y-120725380D02*
X123777238Y-120749190D01*
X123872476Y-120749190D01*
X123920095Y-120725380D01*
X123943904Y-120677761D01*
X123943904Y-120653952D01*
X123920095Y-120606333D01*
X123872476Y-120582523D01*
X123801047Y-120582523D01*
X123753428Y-120558714D01*
X123729619Y-120511095D01*
X123729619Y-120487285D01*
X123753428Y-120439666D01*
X123801047Y-120415857D01*
X123872476Y-120415857D01*
X123920095Y-120439666D01*
X124158190Y-120749190D02*
X124158190Y-120415857D01*
X124158190Y-120249190D02*
X124134380Y-120273000D01*
X124158190Y-120296809D01*
X124182000Y-120273000D01*
X124158190Y-120249190D01*
X124158190Y-120296809D01*
X124396285Y-120415857D02*
X124396285Y-120749190D01*
X124396285Y-120463476D02*
X124420095Y-120439666D01*
X124467714Y-120415857D01*
X124539142Y-120415857D01*
X124586761Y-120439666D01*
X124610571Y-120487285D01*
X124610571Y-120749190D01*
X125062952Y-120415857D02*
X125062952Y-120820619D01*
X125039142Y-120868238D01*
X125015333Y-120892047D01*
X124967714Y-120915857D01*
X124896285Y-120915857D01*
X124848666Y-120892047D01*
X125062952Y-120725380D02*
X125015333Y-120749190D01*
X124920095Y-120749190D01*
X124872476Y-120725380D01*
X124848666Y-120701571D01*
X124824857Y-120653952D01*
X124824857Y-120511095D01*
X124848666Y-120463476D01*
X124872476Y-120439666D01*
X124920095Y-120415857D01*
X125015333Y-120415857D01*
X125062952Y-120439666D01*
X125658190Y-120296809D02*
X125682000Y-120273000D01*
X125729619Y-120249190D01*
X125848666Y-120249190D01*
X125896285Y-120273000D01*
X125920095Y-120296809D01*
X125943904Y-120344428D01*
X125943904Y-120392047D01*
X125920095Y-120463476D01*
X125634380Y-120749190D01*
X125943904Y-120749190D01*
X126372476Y-120415857D02*
X126372476Y-120749190D01*
X126253428Y-120225380D02*
X126134380Y-120582523D01*
X126443904Y-120582523D01*
X126896285Y-120273000D02*
X126848666Y-120249190D01*
X126777238Y-120249190D01*
X126705809Y-120273000D01*
X126658190Y-120320619D01*
X126634380Y-120368238D01*
X126610571Y-120463476D01*
X126610571Y-120534904D01*
X126634380Y-120630142D01*
X126658190Y-120677761D01*
X126705809Y-120725380D01*
X126777238Y-120749190D01*
X126824857Y-120749190D01*
X126896285Y-120725380D01*
X126920095Y-120701571D01*
X126920095Y-120534904D01*
X126824857Y-120534904D01*
X127134380Y-120749190D02*
X127134380Y-120249190D01*
X127134380Y-120487285D02*
X127420095Y-120487285D01*
X127420095Y-120749190D02*
X127420095Y-120249190D01*
X127610571Y-120415857D02*
X127872476Y-120415857D01*
X127610571Y-120749190D01*
X127872476Y-120749190D01*
X128443904Y-120749190D02*
X128443904Y-120415857D01*
X128443904Y-120511095D02*
X128467714Y-120463476D01*
X128491523Y-120439666D01*
X128539142Y-120415857D01*
X128586761Y-120415857D01*
X128967714Y-120749190D02*
X128967714Y-120487285D01*
X128943904Y-120439666D01*
X128896285Y-120415857D01*
X128801047Y-120415857D01*
X128753428Y-120439666D01*
X128967714Y-120725380D02*
X128920095Y-120749190D01*
X128801047Y-120749190D01*
X128753428Y-120725380D01*
X128729619Y-120677761D01*
X128729619Y-120630142D01*
X128753428Y-120582523D01*
X128801047Y-120558714D01*
X128920095Y-120558714D01*
X128967714Y-120534904D01*
X129420095Y-120749190D02*
X129420095Y-120249190D01*
X129420095Y-120725380D02*
X129372476Y-120749190D01*
X129277238Y-120749190D01*
X129229619Y-120725380D01*
X129205809Y-120701571D01*
X129182000Y-120653952D01*
X129182000Y-120511095D01*
X129205809Y-120463476D01*
X129229619Y-120439666D01*
X129277238Y-120415857D01*
X129372476Y-120415857D01*
X129420095Y-120439666D01*
X129872476Y-120749190D02*
X129872476Y-120487285D01*
X129848666Y-120439666D01*
X129801047Y-120415857D01*
X129705809Y-120415857D01*
X129658190Y-120439666D01*
X129872476Y-120725380D02*
X129824857Y-120749190D01*
X129705809Y-120749190D01*
X129658190Y-120725380D01*
X129634380Y-120677761D01*
X129634380Y-120630142D01*
X129658190Y-120582523D01*
X129705809Y-120558714D01*
X129824857Y-120558714D01*
X129872476Y-120534904D01*
X130110571Y-120749190D02*
X130110571Y-120415857D01*
X130110571Y-120511095D02*
X130134380Y-120463476D01*
X130158190Y-120439666D01*
X130205809Y-120415857D01*
X130253428Y-120415857D01*
X130777238Y-120725380D02*
X130824857Y-120749190D01*
X130920095Y-120749190D01*
X130967714Y-120725380D01*
X130991523Y-120677761D01*
X130991523Y-120653952D01*
X130967714Y-120606333D01*
X130920095Y-120582523D01*
X130848666Y-120582523D01*
X130801047Y-120558714D01*
X130777238Y-120511095D01*
X130777238Y-120487285D01*
X130801047Y-120439666D01*
X130848666Y-120415857D01*
X130920095Y-120415857D01*
X130967714Y-120439666D01*
X131396285Y-120725380D02*
X131348666Y-120749190D01*
X131253428Y-120749190D01*
X131205809Y-120725380D01*
X131181999Y-120677761D01*
X131181999Y-120487285D01*
X131205809Y-120439666D01*
X131253428Y-120415857D01*
X131348666Y-120415857D01*
X131396285Y-120439666D01*
X131420095Y-120487285D01*
X131420095Y-120534904D01*
X131181999Y-120582523D01*
X131634380Y-120415857D02*
X131634380Y-120749190D01*
X131634380Y-120463476D02*
X131658190Y-120439666D01*
X131705809Y-120415857D01*
X131777238Y-120415857D01*
X131824857Y-120439666D01*
X131848666Y-120487285D01*
X131848666Y-120749190D01*
X132062952Y-120725380D02*
X132110571Y-120749190D01*
X132205809Y-120749190D01*
X132253428Y-120725380D01*
X132277238Y-120677761D01*
X132277238Y-120653952D01*
X132253428Y-120606333D01*
X132205809Y-120582523D01*
X132134380Y-120582523D01*
X132086761Y-120558714D01*
X132062952Y-120511095D01*
X132062952Y-120487285D01*
X132086761Y-120439666D01*
X132134380Y-120415857D01*
X132205809Y-120415857D01*
X132253428Y-120439666D01*
X132562952Y-120749190D02*
X132515333Y-120725380D01*
X132491523Y-120701571D01*
X132467714Y-120653952D01*
X132467714Y-120511095D01*
X132491523Y-120463476D01*
X132515333Y-120439666D01*
X132562952Y-120415857D01*
X132634380Y-120415857D01*
X132681999Y-120439666D01*
X132705809Y-120463476D01*
X132729619Y-120511095D01*
X132729619Y-120653952D01*
X132705809Y-120701571D01*
X132681999Y-120725380D01*
X132634380Y-120749190D01*
X132562952Y-120749190D01*
X132943904Y-120749190D02*
X132943904Y-120415857D01*
X132943904Y-120511095D02*
X132967714Y-120463476D01*
X132991523Y-120439666D01*
X133039142Y-120415857D01*
X133086761Y-120415857D01*
X130111619Y-122553357D02*
X130230666Y-122886690D01*
X130349714Y-122553357D01*
X130635428Y-122386690D02*
X130683047Y-122386690D01*
X130730666Y-122410500D01*
X130754476Y-122434309D01*
X130778285Y-122481928D01*
X130802095Y-122577166D01*
X130802095Y-122696214D01*
X130778285Y-122791452D01*
X130754476Y-122839071D01*
X130730666Y-122862880D01*
X130683047Y-122886690D01*
X130635428Y-122886690D01*
X130587809Y-122862880D01*
X130564000Y-122839071D01*
X130540190Y-122791452D01*
X130516380Y-122696214D01*
X130516380Y-122577166D01*
X130540190Y-122481928D01*
X130564000Y-122434309D01*
X130587809Y-122410500D01*
X130635428Y-122386690D01*
X131016380Y-122839071D02*
X131040190Y-122862880D01*
X131016380Y-122886690D01*
X130992571Y-122862880D01*
X131016380Y-122839071D01*
X131016380Y-122886690D01*
X131349714Y-122386690D02*
X131397333Y-122386690D01*
X131444952Y-122410500D01*
X131468761Y-122434309D01*
X131492571Y-122481928D01*
X131516380Y-122577166D01*
X131516380Y-122696214D01*
X131492571Y-122791452D01*
X131468761Y-122839071D01*
X131444952Y-122862880D01*
X131397333Y-122886690D01*
X131349714Y-122886690D01*
X131302095Y-122862880D01*
X131278285Y-122839071D01*
X131254476Y-122791452D01*
X131230666Y-122696214D01*
X131230666Y-122577166D01*
X131254476Y-122481928D01*
X131278285Y-122434309D01*
X131302095Y-122410500D01*
X131349714Y-122386690D01*
X131944952Y-122386690D02*
X131849714Y-122386690D01*
X131802095Y-122410500D01*
X131778285Y-122434309D01*
X131730666Y-122505738D01*
X131706857Y-122600976D01*
X131706857Y-122791452D01*
X131730666Y-122839071D01*
X131754476Y-122862880D01*
X131802095Y-122886690D01*
X131897333Y-122886690D01*
X131944952Y-122862880D01*
X131968761Y-122839071D01*
X131992571Y-122791452D01*
X131992571Y-122672404D01*
X131968761Y-122624785D01*
X131944952Y-122600976D01*
X131897333Y-122577166D01*
X131802095Y-122577166D01*
X131754476Y-122600976D01*
X131730666Y-122624785D01*
X131706857Y-122672404D01*
X114221476Y-122819880D02*
X114292904Y-122843690D01*
X114411952Y-122843690D01*
X114459571Y-122819880D01*
X114483380Y-122796071D01*
X114507190Y-122748452D01*
X114507190Y-122700833D01*
X114483380Y-122653214D01*
X114459571Y-122629404D01*
X114411952Y-122605595D01*
X114316714Y-122581785D01*
X114269095Y-122557976D01*
X114245285Y-122534166D01*
X114221476Y-122486547D01*
X114221476Y-122438928D01*
X114245285Y-122391309D01*
X114269095Y-122367500D01*
X114316714Y-122343690D01*
X114435761Y-122343690D01*
X114507190Y-122367500D01*
X114721476Y-122843690D02*
X114721476Y-122510357D01*
X114721476Y-122605595D02*
X114745285Y-122557976D01*
X114769095Y-122534166D01*
X114816714Y-122510357D01*
X114864333Y-122510357D01*
X115031000Y-122843690D02*
X115031000Y-122510357D01*
X115031000Y-122343690D02*
X115007190Y-122367500D01*
X115031000Y-122391309D01*
X115054809Y-122367500D01*
X115031000Y-122343690D01*
X115031000Y-122391309D01*
X115935761Y-122796071D02*
X115911952Y-122819880D01*
X115840523Y-122843690D01*
X115792904Y-122843690D01*
X115721476Y-122819880D01*
X115673857Y-122772261D01*
X115650047Y-122724642D01*
X115626238Y-122629404D01*
X115626238Y-122557976D01*
X115650047Y-122462738D01*
X115673857Y-122415119D01*
X115721476Y-122367500D01*
X115792904Y-122343690D01*
X115840523Y-122343690D01*
X115911952Y-122367500D01*
X115935761Y-122391309D01*
X116150047Y-122843690D02*
X116150047Y-122343690D01*
X116364333Y-122843690D02*
X116364333Y-122581785D01*
X116340523Y-122534166D01*
X116292904Y-122510357D01*
X116221476Y-122510357D01*
X116173857Y-122534166D01*
X116150047Y-122557976D01*
X116816714Y-122843690D02*
X116816714Y-122581785D01*
X116792904Y-122534166D01*
X116745285Y-122510357D01*
X116650047Y-122510357D01*
X116602428Y-122534166D01*
X116816714Y-122819880D02*
X116769095Y-122843690D01*
X116650047Y-122843690D01*
X116602428Y-122819880D01*
X116578619Y-122772261D01*
X116578619Y-122724642D01*
X116602428Y-122677023D01*
X116650047Y-122653214D01*
X116769095Y-122653214D01*
X116816714Y-122629404D01*
X117054809Y-122843690D02*
X117054809Y-122510357D01*
X117054809Y-122343690D02*
X117031000Y-122367500D01*
X117054809Y-122391309D01*
X117078619Y-122367500D01*
X117054809Y-122343690D01*
X117054809Y-122391309D01*
X117221476Y-122510357D02*
X117411952Y-122510357D01*
X117292904Y-122343690D02*
X117292904Y-122772261D01*
X117316714Y-122819880D01*
X117364333Y-122843690D01*
X117411952Y-122843690D01*
X117792904Y-122843690D02*
X117792904Y-122581785D01*
X117769095Y-122534166D01*
X117721476Y-122510357D01*
X117626238Y-122510357D01*
X117578619Y-122534166D01*
X117792904Y-122819880D02*
X117745285Y-122843690D01*
X117626238Y-122843690D01*
X117578619Y-122819880D01*
X117554809Y-122772261D01*
X117554809Y-122724642D01*
X117578619Y-122677023D01*
X117626238Y-122653214D01*
X117745285Y-122653214D01*
X117792904Y-122629404D01*
X118031000Y-122510357D02*
X118031000Y-122843690D01*
X118031000Y-122557976D02*
X118054809Y-122534166D01*
X118102428Y-122510357D01*
X118173857Y-122510357D01*
X118221476Y-122534166D01*
X118245285Y-122581785D01*
X118245285Y-122843690D01*
X118435761Y-122510357D02*
X118554809Y-122843690D01*
X118673857Y-122510357D02*
X118554809Y-122843690D01*
X118507190Y-122962738D01*
X118483380Y-122986547D01*
X118435761Y-123010357D01*
X119078619Y-122843690D02*
X119078619Y-122581785D01*
X119054809Y-122534166D01*
X119007190Y-122510357D01*
X118911952Y-122510357D01*
X118864333Y-122534166D01*
X119078619Y-122819880D02*
X119031000Y-122843690D01*
X118911952Y-122843690D01*
X118864333Y-122819880D01*
X118840523Y-122772261D01*
X118840523Y-122724642D01*
X118864333Y-122677023D01*
X118911952Y-122653214D01*
X119031000Y-122653214D01*
X119078619Y-122629404D01*
X119697666Y-122843690D02*
X119697666Y-122343690D01*
X119816714Y-122343690D01*
X119888142Y-122367500D01*
X119935761Y-122415119D01*
X119959571Y-122462738D01*
X119983380Y-122557976D01*
X119983380Y-122629404D01*
X119959571Y-122724642D01*
X119935761Y-122772261D01*
X119888142Y-122819880D01*
X119816714Y-122843690D01*
X119697666Y-122843690D01*
X120411952Y-122510357D02*
X120411952Y-122843690D01*
X120197666Y-122510357D02*
X120197666Y-122772261D01*
X120221476Y-122819880D01*
X120269095Y-122843690D01*
X120340523Y-122843690D01*
X120388142Y-122819880D01*
X120411952Y-122796071D01*
X120650047Y-122843690D02*
X120650047Y-122510357D01*
X120650047Y-122605595D02*
X120673857Y-122557976D01*
X120697666Y-122534166D01*
X120745285Y-122510357D01*
X120792904Y-122510357D01*
X121173857Y-122510357D02*
X121173857Y-122915119D01*
X121150047Y-122962738D01*
X121126238Y-122986547D01*
X121078619Y-123010357D01*
X121007190Y-123010357D01*
X120959571Y-122986547D01*
X121173857Y-122819880D02*
X121126238Y-122843690D01*
X121031000Y-122843690D01*
X120983380Y-122819880D01*
X120959571Y-122796071D01*
X120935761Y-122748452D01*
X120935761Y-122605595D01*
X120959571Y-122557976D01*
X120983380Y-122534166D01*
X121031000Y-122510357D01*
X121126238Y-122510357D01*
X121173857Y-122534166D01*
X121626238Y-122843690D02*
X121626238Y-122581785D01*
X121602428Y-122534166D01*
X121554809Y-122510357D01*
X121459571Y-122510357D01*
X121411952Y-122534166D01*
X121626238Y-122819880D02*
X121578619Y-122843690D01*
X121459571Y-122843690D01*
X121411952Y-122819880D01*
X121388142Y-122772261D01*
X121388142Y-122724642D01*
X121411952Y-122677023D01*
X121459571Y-122653214D01*
X121578619Y-122653214D01*
X121626238Y-122629404D01*
X122245285Y-122843690D02*
X122245285Y-122343690D01*
X122435761Y-122343690D01*
X122483380Y-122367500D01*
X122507190Y-122391309D01*
X122531000Y-122438928D01*
X122531000Y-122510357D01*
X122507190Y-122557976D01*
X122483380Y-122581785D01*
X122435761Y-122605595D01*
X122245285Y-122605595D01*
X122745285Y-122843690D02*
X122745285Y-122510357D01*
X122745285Y-122605595D02*
X122769095Y-122557976D01*
X122792904Y-122534166D01*
X122840523Y-122510357D01*
X122888142Y-122510357D01*
X123269095Y-122843690D02*
X123269095Y-122581785D01*
X123245285Y-122534166D01*
X123197666Y-122510357D01*
X123102428Y-122510357D01*
X123054809Y-122534166D01*
X123269095Y-122819880D02*
X123221476Y-122843690D01*
X123102428Y-122843690D01*
X123054809Y-122819880D01*
X123031000Y-122772261D01*
X123031000Y-122724642D01*
X123054809Y-122677023D01*
X123102428Y-122653214D01*
X123221476Y-122653214D01*
X123269095Y-122629404D01*
X123483380Y-122819880D02*
X123531000Y-122843690D01*
X123626238Y-122843690D01*
X123673857Y-122819880D01*
X123697666Y-122772261D01*
X123697666Y-122748452D01*
X123673857Y-122700833D01*
X123626238Y-122677023D01*
X123554809Y-122677023D01*
X123507190Y-122653214D01*
X123483380Y-122605595D01*
X123483380Y-122581785D01*
X123507190Y-122534166D01*
X123554809Y-122510357D01*
X123626238Y-122510357D01*
X123673857Y-122534166D01*
X124126238Y-122843690D02*
X124126238Y-122581785D01*
X124102428Y-122534166D01*
X124054809Y-122510357D01*
X123959571Y-122510357D01*
X123911952Y-122534166D01*
X124126238Y-122819880D02*
X124078619Y-122843690D01*
X123959571Y-122843690D01*
X123911952Y-122819880D01*
X123888142Y-122772261D01*
X123888142Y-122724642D01*
X123911952Y-122677023D01*
X123959571Y-122653214D01*
X124078619Y-122653214D01*
X124126238Y-122629404D01*
X124578619Y-122843690D02*
X124578619Y-122343690D01*
X124578619Y-122819880D02*
X124530999Y-122843690D01*
X124435761Y-122843690D01*
X124388142Y-122819880D01*
X124364333Y-122796071D01*
X124340523Y-122748452D01*
X124340523Y-122605595D01*
X124364333Y-122557976D01*
X124388142Y-122534166D01*
X124435761Y-122510357D01*
X124530999Y-122510357D01*
X124578619Y-122534166D01*
X125197666Y-122843690D02*
X125197666Y-122343690D01*
X125364333Y-122700833D01*
X125530999Y-122343690D01*
X125530999Y-122843690D01*
X125840523Y-122843690D02*
X125792904Y-122819880D01*
X125769095Y-122796071D01*
X125745285Y-122748452D01*
X125745285Y-122605595D01*
X125769095Y-122557976D01*
X125792904Y-122534166D01*
X125840523Y-122510357D01*
X125911952Y-122510357D01*
X125959571Y-122534166D01*
X125983380Y-122557976D01*
X126007190Y-122605595D01*
X126007190Y-122748452D01*
X125983380Y-122796071D01*
X125959571Y-122819880D01*
X125911952Y-122843690D01*
X125840523Y-122843690D01*
X126221476Y-122510357D02*
X126221476Y-122938928D01*
X126197666Y-122986547D01*
X126150047Y-123010357D01*
X126126238Y-123010357D01*
X126221476Y-122343690D02*
X126197666Y-122367500D01*
X126221476Y-122391309D01*
X126245285Y-122367500D01*
X126221476Y-122343690D01*
X126221476Y-122391309D01*
X126459571Y-122510357D02*
X126459571Y-122938928D01*
X126435761Y-122986547D01*
X126388142Y-123010357D01*
X126364333Y-123010357D01*
X126459571Y-122343690D02*
X126435761Y-122367500D01*
X126459571Y-122391309D01*
X126483380Y-122367500D01*
X126459571Y-122343690D01*
X126459571Y-122391309D01*
X126911952Y-122843690D02*
X126911952Y-122581785D01*
X126888142Y-122534166D01*
X126840523Y-122510357D01*
X126745285Y-122510357D01*
X126697666Y-122534166D01*
X126911952Y-122819880D02*
X126864333Y-122843690D01*
X126745285Y-122843690D01*
X126697666Y-122819880D01*
X126673857Y-122772261D01*
X126673857Y-122724642D01*
X126697666Y-122677023D01*
X126745285Y-122653214D01*
X126864333Y-122653214D01*
X126911952Y-122629404D01*
X127364333Y-122843690D02*
X127364333Y-122343690D01*
X127364333Y-122819880D02*
X127316714Y-122843690D01*
X127221476Y-122843690D01*
X127173857Y-122819880D01*
X127150047Y-122796071D01*
X127126238Y-122748452D01*
X127126238Y-122605595D01*
X127150047Y-122557976D01*
X127173857Y-122534166D01*
X127221476Y-122510357D01*
X127316714Y-122510357D01*
X127364333Y-122534166D01*
X127816714Y-122843690D02*
X127816714Y-122581785D01*
X127792904Y-122534166D01*
X127745285Y-122510357D01*
X127650047Y-122510357D01*
X127602428Y-122534166D01*
X127816714Y-122819880D02*
X127769095Y-122843690D01*
X127650047Y-122843690D01*
X127602428Y-122819880D01*
X127578619Y-122772261D01*
X127578619Y-122724642D01*
X127602428Y-122677023D01*
X127650047Y-122653214D01*
X127769095Y-122653214D01*
X127816714Y-122629404D01*
X114673857Y-123648690D02*
X114673857Y-123148690D01*
X114864333Y-123148690D01*
X114911952Y-123172500D01*
X114935761Y-123196309D01*
X114959571Y-123243928D01*
X114959571Y-123315357D01*
X114935761Y-123362976D01*
X114911952Y-123386785D01*
X114864333Y-123410595D01*
X114673857Y-123410595D01*
X115173857Y-123648690D02*
X115173857Y-123315357D01*
X115173857Y-123410595D02*
X115197666Y-123362976D01*
X115221476Y-123339166D01*
X115269095Y-123315357D01*
X115316714Y-123315357D01*
X115483380Y-123648690D02*
X115483380Y-123315357D01*
X115483380Y-123148690D02*
X115459571Y-123172500D01*
X115483380Y-123196309D01*
X115507190Y-123172500D01*
X115483380Y-123148690D01*
X115483380Y-123196309D01*
X115673857Y-123315357D02*
X115792904Y-123648690D01*
X115911952Y-123315357D02*
X115792904Y-123648690D01*
X115745285Y-123767738D01*
X115721476Y-123791547D01*
X115673857Y-123815357D01*
X116316714Y-123648690D02*
X116316714Y-123386785D01*
X116292904Y-123339166D01*
X116245285Y-123315357D01*
X116150047Y-123315357D01*
X116102428Y-123339166D01*
X116316714Y-123624880D02*
X116269095Y-123648690D01*
X116150047Y-123648690D01*
X116102428Y-123624880D01*
X116078619Y-123577261D01*
X116078619Y-123529642D01*
X116102428Y-123482023D01*
X116150047Y-123458214D01*
X116269095Y-123458214D01*
X116316714Y-123434404D01*
X116935761Y-123648690D02*
X116935761Y-123148690D01*
X117054809Y-123148690D01*
X117126238Y-123172500D01*
X117173857Y-123220119D01*
X117197666Y-123267738D01*
X117221476Y-123362976D01*
X117221476Y-123434404D01*
X117197666Y-123529642D01*
X117173857Y-123577261D01*
X117126238Y-123624880D01*
X117054809Y-123648690D01*
X116935761Y-123648690D01*
X117650047Y-123648690D02*
X117650047Y-123386785D01*
X117626238Y-123339166D01*
X117578619Y-123315357D01*
X117483380Y-123315357D01*
X117435761Y-123339166D01*
X117650047Y-123624880D02*
X117602428Y-123648690D01*
X117483380Y-123648690D01*
X117435761Y-123624880D01*
X117411952Y-123577261D01*
X117411952Y-123529642D01*
X117435761Y-123482023D01*
X117483380Y-123458214D01*
X117602428Y-123458214D01*
X117650047Y-123434404D01*
X117888142Y-123648690D02*
X117888142Y-123315357D01*
X117888142Y-123410595D02*
X117911952Y-123362976D01*
X117935761Y-123339166D01*
X117983380Y-123315357D01*
X118031000Y-123315357D01*
X118173857Y-123624880D02*
X118221476Y-123648690D01*
X118316714Y-123648690D01*
X118364333Y-123624880D01*
X118388142Y-123577261D01*
X118388142Y-123553452D01*
X118364333Y-123505833D01*
X118316714Y-123482023D01*
X118245285Y-123482023D01*
X118197666Y-123458214D01*
X118173857Y-123410595D01*
X118173857Y-123386785D01*
X118197666Y-123339166D01*
X118245285Y-123315357D01*
X118316714Y-123315357D01*
X118364333Y-123339166D01*
X118602428Y-123648690D02*
X118602428Y-123148690D01*
X118816714Y-123648690D02*
X118816714Y-123386785D01*
X118792904Y-123339166D01*
X118745285Y-123315357D01*
X118673857Y-123315357D01*
X118626238Y-123339166D01*
X118602428Y-123362976D01*
X119054809Y-123648690D02*
X119054809Y-123315357D01*
X119054809Y-123148690D02*
X119031000Y-123172500D01*
X119054809Y-123196309D01*
X119078619Y-123172500D01*
X119054809Y-123148690D01*
X119054809Y-123196309D01*
X119292904Y-123315357D02*
X119292904Y-123648690D01*
X119292904Y-123362976D02*
X119316714Y-123339166D01*
X119364333Y-123315357D01*
X119435761Y-123315357D01*
X119483380Y-123339166D01*
X119507190Y-123386785D01*
X119507190Y-123648690D01*
X119745285Y-123648690D02*
X119745285Y-123315357D01*
X119745285Y-123148690D02*
X119721476Y-123172500D01*
X119745285Y-123196309D01*
X119769095Y-123172500D01*
X119745285Y-123148690D01*
X119745285Y-123196309D01*
X120364333Y-123648690D02*
X120364333Y-123148690D01*
X120554809Y-123148690D01*
X120602428Y-123172500D01*
X120626238Y-123196309D01*
X120650047Y-123243928D01*
X120650047Y-123315357D01*
X120626238Y-123362976D01*
X120602428Y-123386785D01*
X120554809Y-123410595D01*
X120364333Y-123410595D01*
X121078619Y-123315357D02*
X121078619Y-123648690D01*
X120864333Y-123315357D02*
X120864333Y-123577261D01*
X120888142Y-123624880D01*
X120935761Y-123648690D01*
X121007190Y-123648690D01*
X121054809Y-123624880D01*
X121078619Y-123601071D01*
X121316714Y-123315357D02*
X121316714Y-123648690D01*
X121316714Y-123362976D02*
X121340523Y-123339166D01*
X121388142Y-123315357D01*
X121459571Y-123315357D01*
X121507190Y-123339166D01*
X121531000Y-123386785D01*
X121531000Y-123648690D01*
X121769095Y-123648690D02*
X121769095Y-123315357D01*
X121769095Y-123148690D02*
X121745285Y-123172500D01*
X121769095Y-123196309D01*
X121792904Y-123172500D01*
X121769095Y-123148690D01*
X121769095Y-123196309D01*
X121959571Y-123315357D02*
X122078619Y-123648690D01*
X122197666Y-123315357D02*
X122078619Y-123648690D01*
X122031000Y-123767738D01*
X122007190Y-123791547D01*
X121959571Y-123815357D01*
X122602428Y-123648690D02*
X122602428Y-123386785D01*
X122578619Y-123339166D01*
X122531000Y-123315357D01*
X122435761Y-123315357D01*
X122388142Y-123339166D01*
X122602428Y-123624880D02*
X122554809Y-123648690D01*
X122435761Y-123648690D01*
X122388142Y-123624880D01*
X122364333Y-123577261D01*
X122364333Y-123529642D01*
X122388142Y-123482023D01*
X122435761Y-123458214D01*
X122554809Y-123458214D01*
X122602428Y-123434404D01*
X122840523Y-123648690D02*
X122840523Y-123315357D01*
X122840523Y-123362976D02*
X122864333Y-123339166D01*
X122911952Y-123315357D01*
X122983380Y-123315357D01*
X123031000Y-123339166D01*
X123054809Y-123386785D01*
X123054809Y-123648690D01*
X123054809Y-123386785D02*
X123078619Y-123339166D01*
X123126238Y-123315357D01*
X123197666Y-123315357D01*
X123245285Y-123339166D01*
X123269095Y-123386785D01*
X123269095Y-123648690D01*
X124173857Y-123648690D02*
X124007190Y-123410595D01*
X123888142Y-123648690D02*
X123888142Y-123148690D01*
X124078619Y-123148690D01*
X124126238Y-123172500D01*
X124150047Y-123196309D01*
X124173857Y-123243928D01*
X124173857Y-123315357D01*
X124150047Y-123362976D01*
X124126238Y-123386785D01*
X124078619Y-123410595D01*
X123888142Y-123410595D01*
X124602428Y-123648690D02*
X124602428Y-123386785D01*
X124578619Y-123339166D01*
X124531000Y-123315357D01*
X124435761Y-123315357D01*
X124388142Y-123339166D01*
X124602428Y-123624880D02*
X124554809Y-123648690D01*
X124435761Y-123648690D01*
X124388142Y-123624880D01*
X124364333Y-123577261D01*
X124364333Y-123529642D01*
X124388142Y-123482023D01*
X124435761Y-123458214D01*
X124554809Y-123458214D01*
X124602428Y-123434404D01*
X124840523Y-123315357D02*
X124840523Y-123743928D01*
X124816714Y-123791547D01*
X124769095Y-123815357D01*
X124745285Y-123815357D01*
X124840523Y-123148690D02*
X124816714Y-123172500D01*
X124840523Y-123196309D01*
X124864333Y-123172500D01*
X124840523Y-123148690D01*
X124840523Y-123196309D01*
X125269095Y-123624880D02*
X125221476Y-123648690D01*
X125126238Y-123648690D01*
X125078619Y-123624880D01*
X125054809Y-123577261D01*
X125054809Y-123386785D01*
X125078619Y-123339166D01*
X125126238Y-123315357D01*
X125221476Y-123315357D01*
X125269095Y-123339166D01*
X125292904Y-123386785D01*
X125292904Y-123434404D01*
X125054809Y-123482023D01*
X125507190Y-123315357D02*
X125507190Y-123648690D01*
X125507190Y-123362976D02*
X125531000Y-123339166D01*
X125578619Y-123315357D01*
X125650047Y-123315357D01*
X125697666Y-123339166D01*
X125721476Y-123386785D01*
X125721476Y-123648690D01*
X126173857Y-123648690D02*
X126173857Y-123148690D01*
X126173857Y-123624880D02*
X126126238Y-123648690D01*
X126031000Y-123648690D01*
X125983380Y-123624880D01*
X125959571Y-123601071D01*
X125935761Y-123553452D01*
X125935761Y-123410595D01*
X125959571Y-123362976D01*
X125983380Y-123339166D01*
X126031000Y-123315357D01*
X126126238Y-123315357D01*
X126173857Y-123339166D01*
X126411952Y-123648690D02*
X126411952Y-123315357D01*
X126411952Y-123410595D02*
X126435761Y-123362976D01*
X126459571Y-123339166D01*
X126507190Y-123315357D01*
X126554809Y-123315357D01*
X126935761Y-123648690D02*
X126935761Y-123386785D01*
X126911952Y-123339166D01*
X126864333Y-123315357D01*
X126769095Y-123315357D01*
X126721476Y-123339166D01*
X126935761Y-123624880D02*
X126888142Y-123648690D01*
X126769095Y-123648690D01*
X126721476Y-123624880D01*
X126697666Y-123577261D01*
X126697666Y-123529642D01*
X126721476Y-123482023D01*
X126769095Y-123458214D01*
X126888142Y-123458214D01*
X126935761Y-123434404D01*
X127173857Y-123315357D02*
X127173857Y-123648690D01*
X127173857Y-123362976D02*
X127197666Y-123339166D01*
X127245285Y-123315357D01*
X127316714Y-123315357D01*
X127364333Y-123339166D01*
X127388142Y-123386785D01*
X127388142Y-123648690D01*
X116852428Y-124453690D02*
X116852428Y-123953690D01*
X117019095Y-124310833D01*
X117185761Y-123953690D01*
X117185761Y-124453690D01*
X117638142Y-124453690D02*
X117638142Y-124191785D01*
X117614333Y-124144166D01*
X117566714Y-124120357D01*
X117471476Y-124120357D01*
X117423857Y-124144166D01*
X117638142Y-124429880D02*
X117590523Y-124453690D01*
X117471476Y-124453690D01*
X117423857Y-124429880D01*
X117400047Y-124382261D01*
X117400047Y-124334642D01*
X117423857Y-124287023D01*
X117471476Y-124263214D01*
X117590523Y-124263214D01*
X117638142Y-124239404D01*
X117804809Y-124120357D02*
X117995285Y-124120357D01*
X117876238Y-123953690D02*
X117876238Y-124382261D01*
X117900047Y-124429880D01*
X117947666Y-124453690D01*
X117995285Y-124453690D01*
X118352428Y-124429880D02*
X118304809Y-124453690D01*
X118209571Y-124453690D01*
X118161952Y-124429880D01*
X118138142Y-124382261D01*
X118138142Y-124191785D01*
X118161952Y-124144166D01*
X118209571Y-124120357D01*
X118304809Y-124120357D01*
X118352428Y-124144166D01*
X118376238Y-124191785D01*
X118376238Y-124239404D01*
X118138142Y-124287023D01*
X118661952Y-124453690D02*
X118614333Y-124429880D01*
X118590523Y-124406071D01*
X118566714Y-124358452D01*
X118566714Y-124215595D01*
X118590523Y-124167976D01*
X118614333Y-124144166D01*
X118661952Y-124120357D01*
X118733380Y-124120357D01*
X118781000Y-124144166D01*
X118804809Y-124167976D01*
X118828619Y-124215595D01*
X118828619Y-124358452D01*
X118804809Y-124406071D01*
X118781000Y-124429880D01*
X118733380Y-124453690D01*
X118661952Y-124453690D01*
X119709571Y-124406071D02*
X119685761Y-124429880D01*
X119614333Y-124453690D01*
X119566714Y-124453690D01*
X119495285Y-124429880D01*
X119447666Y-124382261D01*
X119423857Y-124334642D01*
X119400047Y-124239404D01*
X119400047Y-124167976D01*
X119423857Y-124072738D01*
X119447666Y-124025119D01*
X119495285Y-123977500D01*
X119566714Y-123953690D01*
X119614333Y-123953690D01*
X119685761Y-123977500D01*
X119709571Y-124001309D01*
X120114333Y-124429880D02*
X120066714Y-124453690D01*
X119971476Y-124453690D01*
X119923857Y-124429880D01*
X119900047Y-124382261D01*
X119900047Y-124191785D01*
X119923857Y-124144166D01*
X119971476Y-124120357D01*
X120066714Y-124120357D01*
X120114333Y-124144166D01*
X120138142Y-124191785D01*
X120138142Y-124239404D01*
X119900047Y-124287023D01*
X120352428Y-124453690D02*
X120352428Y-123953690D01*
X120352428Y-124144166D02*
X120400047Y-124120357D01*
X120495285Y-124120357D01*
X120542904Y-124144166D01*
X120566714Y-124167976D01*
X120590523Y-124215595D01*
X120590523Y-124358452D01*
X120566714Y-124406071D01*
X120542904Y-124429880D01*
X120495285Y-124453690D01*
X120400047Y-124453690D01*
X120352428Y-124429880D01*
X121019095Y-124453690D02*
X121019095Y-124191785D01*
X120995285Y-124144166D01*
X120947666Y-124120357D01*
X120852428Y-124120357D01*
X120804809Y-124144166D01*
X121019095Y-124429880D02*
X120971476Y-124453690D01*
X120852428Y-124453690D01*
X120804809Y-124429880D01*
X120781000Y-124382261D01*
X120781000Y-124334642D01*
X120804809Y-124287023D01*
X120852428Y-124263214D01*
X120971476Y-124263214D01*
X121019095Y-124239404D01*
X121328619Y-124453690D02*
X121281000Y-124429880D01*
X121257190Y-124382261D01*
X121257190Y-123953690D01*
X121590523Y-124453690D02*
X121542904Y-124429880D01*
X121519095Y-124382261D01*
X121519095Y-123953690D01*
X121852428Y-124453690D02*
X121804809Y-124429880D01*
X121781000Y-124406071D01*
X121757190Y-124358452D01*
X121757190Y-124215595D01*
X121781000Y-124167976D01*
X121804809Y-124144166D01*
X121852428Y-124120357D01*
X121923857Y-124120357D01*
X121971476Y-124144166D01*
X121995285Y-124167976D01*
X122019095Y-124215595D01*
X122019095Y-124358452D01*
X121995285Y-124406071D01*
X121971476Y-124429880D01*
X121923857Y-124453690D01*
X121852428Y-124453690D01*
X122209571Y-124429880D02*
X122257190Y-124453690D01*
X122352428Y-124453690D01*
X122400047Y-124429880D01*
X122423857Y-124382261D01*
X122423857Y-124358452D01*
X122400047Y-124310833D01*
X122352428Y-124287023D01*
X122281000Y-124287023D01*
X122233380Y-124263214D01*
X122209571Y-124215595D01*
X122209571Y-124191785D01*
X122233380Y-124144166D01*
X122281000Y-124120357D01*
X122352428Y-124120357D01*
X122400047Y-124144166D01*
X123352428Y-124501309D02*
X123304809Y-124477500D01*
X123257190Y-124429880D01*
X123185761Y-124358452D01*
X123138142Y-124334642D01*
X123090523Y-124334642D01*
X123114333Y-124453690D02*
X123066714Y-124429880D01*
X123019095Y-124382261D01*
X122995285Y-124287023D01*
X122995285Y-124120357D01*
X123019095Y-124025119D01*
X123066714Y-123977500D01*
X123114333Y-123953690D01*
X123209571Y-123953690D01*
X123257190Y-123977500D01*
X123304809Y-124025119D01*
X123328619Y-124120357D01*
X123328619Y-124287023D01*
X123304809Y-124382261D01*
X123257190Y-124429880D01*
X123209571Y-124453690D01*
X123114333Y-124453690D01*
X123757190Y-124120357D02*
X123757190Y-124453690D01*
X123542904Y-124120357D02*
X123542904Y-124382261D01*
X123566714Y-124429880D01*
X123614333Y-124453690D01*
X123685761Y-124453690D01*
X123733380Y-124429880D01*
X123757190Y-124406071D01*
X124185761Y-124429880D02*
X124138142Y-124453690D01*
X124042904Y-124453690D01*
X123995285Y-124429880D01*
X123971476Y-124382261D01*
X123971476Y-124191785D01*
X123995285Y-124144166D01*
X124042904Y-124120357D01*
X124138142Y-124120357D01*
X124185761Y-124144166D01*
X124209571Y-124191785D01*
X124209571Y-124239404D01*
X123971476Y-124287023D01*
X124423857Y-124453690D02*
X124423857Y-124120357D01*
X124423857Y-124215595D02*
X124447666Y-124167976D01*
X124471476Y-124144166D01*
X124519095Y-124120357D01*
X124566714Y-124120357D01*
X124804809Y-124453690D02*
X124757190Y-124429880D01*
X124733380Y-124406071D01*
X124709571Y-124358452D01*
X124709571Y-124215595D01*
X124733380Y-124167976D01*
X124757190Y-124144166D01*
X124804809Y-124120357D01*
X124876238Y-124120357D01*
X124923857Y-124144166D01*
X124947666Y-124167976D01*
X124971476Y-124215595D01*
X124971476Y-124358452D01*
X124947666Y-124406071D01*
X124923857Y-124429880D01*
X124876238Y-124453690D01*
X124804809Y-124453690D01*
X125257190Y-124453690D02*
X125209571Y-124429880D01*
X125185761Y-124382261D01*
X125185761Y-123953690D01*
X116031000Y-125258690D02*
X115745285Y-125258690D01*
X115888142Y-125258690D02*
X115888142Y-124758690D01*
X115840523Y-124830119D01*
X115792904Y-124877738D01*
X115745285Y-124901547D01*
X116507190Y-125258690D02*
X116221476Y-125258690D01*
X116364333Y-125258690D02*
X116364333Y-124758690D01*
X116316714Y-124830119D01*
X116269095Y-124877738D01*
X116221476Y-124901547D01*
X116983380Y-125258690D02*
X116697666Y-125258690D01*
X116840523Y-125258690D02*
X116840523Y-124758690D01*
X116792904Y-124830119D01*
X116745285Y-124877738D01*
X116697666Y-124901547D01*
X117173857Y-124806309D02*
X117197666Y-124782500D01*
X117245285Y-124758690D01*
X117364333Y-124758690D01*
X117411952Y-124782500D01*
X117435761Y-124806309D01*
X117459571Y-124853928D01*
X117459571Y-124901547D01*
X117435761Y-124972976D01*
X117150047Y-125258690D01*
X117459571Y-125258690D01*
X117697666Y-125258690D02*
X117792904Y-125258690D01*
X117840523Y-125234880D01*
X117864333Y-125211071D01*
X117911952Y-125139642D01*
X117935761Y-125044404D01*
X117935761Y-124853928D01*
X117911952Y-124806309D01*
X117888142Y-124782500D01*
X117840523Y-124758690D01*
X117745285Y-124758690D01*
X117697666Y-124782500D01*
X117673857Y-124806309D01*
X117650047Y-124853928D01*
X117650047Y-124972976D01*
X117673857Y-125020595D01*
X117697666Y-125044404D01*
X117745285Y-125068214D01*
X117840523Y-125068214D01*
X117888142Y-125044404D01*
X117911952Y-125020595D01*
X117935761Y-124972976D01*
X118364333Y-124925357D02*
X118364333Y-125258690D01*
X118245285Y-124734880D02*
X118126238Y-125092023D01*
X118435761Y-125092023D01*
X118697666Y-124972976D02*
X118650047Y-124949166D01*
X118626238Y-124925357D01*
X118602428Y-124877738D01*
X118602428Y-124853928D01*
X118626238Y-124806309D01*
X118650047Y-124782500D01*
X118697666Y-124758690D01*
X118792904Y-124758690D01*
X118840523Y-124782500D01*
X118864333Y-124806309D01*
X118888142Y-124853928D01*
X118888142Y-124877738D01*
X118864333Y-124925357D01*
X118840523Y-124949166D01*
X118792904Y-124972976D01*
X118697666Y-124972976D01*
X118650047Y-124996785D01*
X118626238Y-125020595D01*
X118602428Y-125068214D01*
X118602428Y-125163452D01*
X118626238Y-125211071D01*
X118650047Y-125234880D01*
X118697666Y-125258690D01*
X118792904Y-125258690D01*
X118840523Y-125234880D01*
X118864333Y-125211071D01*
X118888142Y-125163452D01*
X118888142Y-125068214D01*
X118864333Y-125020595D01*
X118840523Y-124996785D01*
X118792904Y-124972976D01*
X119745285Y-125258690D02*
X119459571Y-125258690D01*
X119602428Y-125258690D02*
X119602428Y-124758690D01*
X119554809Y-124830119D01*
X119507190Y-124877738D01*
X119459571Y-124901547D01*
X120221476Y-125258690D02*
X119935761Y-125258690D01*
X120078619Y-125258690D02*
X120078619Y-124758690D01*
X120031000Y-124830119D01*
X119983380Y-124877738D01*
X119935761Y-124901547D01*
X120697666Y-125258690D02*
X120411952Y-125258690D01*
X120554809Y-125258690D02*
X120554809Y-124758690D01*
X120507190Y-124830119D01*
X120459571Y-124877738D01*
X120411952Y-124901547D01*
X120888142Y-124806309D02*
X120911952Y-124782500D01*
X120959571Y-124758690D01*
X121078619Y-124758690D01*
X121126238Y-124782500D01*
X121150047Y-124806309D01*
X121173857Y-124853928D01*
X121173857Y-124901547D01*
X121150047Y-124972976D01*
X120864333Y-125258690D01*
X121173857Y-125258690D01*
X121340523Y-124758690D02*
X121650047Y-124758690D01*
X121483380Y-124949166D01*
X121554809Y-124949166D01*
X121602428Y-124972976D01*
X121626238Y-124996785D01*
X121650047Y-125044404D01*
X121650047Y-125163452D01*
X121626238Y-125211071D01*
X121602428Y-125234880D01*
X121554809Y-125258690D01*
X121411952Y-125258690D01*
X121364333Y-125234880D01*
X121340523Y-125211071D01*
X121840523Y-124806309D02*
X121864333Y-124782500D01*
X121911952Y-124758690D01*
X122030999Y-124758690D01*
X122078619Y-124782500D01*
X122102428Y-124806309D01*
X122126238Y-124853928D01*
X122126238Y-124901547D01*
X122102428Y-124972976D01*
X121816714Y-125258690D01*
X122126238Y-125258690D01*
X122316714Y-124806309D02*
X122340523Y-124782500D01*
X122388142Y-124758690D01*
X122507190Y-124758690D01*
X122554809Y-124782500D01*
X122578619Y-124806309D01*
X122602428Y-124853928D01*
X122602428Y-124901547D01*
X122578619Y-124972976D01*
X122292904Y-125258690D01*
X122602428Y-125258690D01*
X123459571Y-125258690D02*
X123173857Y-125258690D01*
X123316714Y-125258690D02*
X123316714Y-124758690D01*
X123269095Y-124830119D01*
X123221476Y-124877738D01*
X123173857Y-124901547D01*
X123935761Y-125258690D02*
X123650047Y-125258690D01*
X123792904Y-125258690D02*
X123792904Y-124758690D01*
X123745285Y-124830119D01*
X123697666Y-124877738D01*
X123650047Y-124901547D01*
X124411952Y-125258690D02*
X124126238Y-125258690D01*
X124269095Y-125258690D02*
X124269095Y-124758690D01*
X124221476Y-124830119D01*
X124173857Y-124877738D01*
X124126238Y-124901547D01*
X124602428Y-124806309D02*
X124626238Y-124782500D01*
X124673857Y-124758690D01*
X124792904Y-124758690D01*
X124840523Y-124782500D01*
X124864333Y-124806309D01*
X124888142Y-124853928D01*
X124888142Y-124901547D01*
X124864333Y-124972976D01*
X124578619Y-125258690D01*
X124888142Y-125258690D01*
X125054809Y-124758690D02*
X125364333Y-124758690D01*
X125197666Y-124949166D01*
X125269095Y-124949166D01*
X125316714Y-124972976D01*
X125340523Y-124996785D01*
X125364333Y-125044404D01*
X125364333Y-125163452D01*
X125340523Y-125211071D01*
X125316714Y-125234880D01*
X125269095Y-125258690D01*
X125126238Y-125258690D01*
X125078619Y-125234880D01*
X125054809Y-125211071D01*
X125554809Y-124806309D02*
X125578619Y-124782500D01*
X125626238Y-124758690D01*
X125745285Y-124758690D01*
X125792904Y-124782500D01*
X125816714Y-124806309D01*
X125840523Y-124853928D01*
X125840523Y-124901547D01*
X125816714Y-124972976D01*
X125530999Y-125258690D01*
X125840523Y-125258690D01*
X126078619Y-125258690D02*
X126173857Y-125258690D01*
X126221476Y-125234880D01*
X126245285Y-125211071D01*
X126292904Y-125139642D01*
X126316714Y-125044404D01*
X126316714Y-124853928D01*
X126292904Y-124806309D01*
X126269095Y-124782500D01*
X126221476Y-124758690D01*
X126126238Y-124758690D01*
X126078619Y-124782500D01*
X126054809Y-124806309D01*
X126030999Y-124853928D01*
X126030999Y-124972976D01*
X126054809Y-125020595D01*
X126078619Y-125044404D01*
X126126238Y-125068214D01*
X126221476Y-125068214D01*
X126269095Y-125044404D01*
X126292904Y-125020595D01*
X126316714Y-124972976D01*
D11*
X139390380Y-120999285D02*
X139390380Y-121570714D01*
X139390380Y-121285000D02*
X138390380Y-121285000D01*
X138533238Y-121380238D01*
X138628476Y-121475476D01*
X138676095Y-121570714D01*
%TO.C,C7*%
X149229342Y-114034866D02*
X149276961Y-114082485D01*
X149324580Y-114225342D01*
X149324580Y-114320580D01*
X149276961Y-114463438D01*
X149181723Y-114558676D01*
X149086485Y-114606295D01*
X148896009Y-114653914D01*
X148753152Y-114653914D01*
X148562676Y-114606295D01*
X148467438Y-114558676D01*
X148372200Y-114463438D01*
X148324580Y-114320580D01*
X148324580Y-114225342D01*
X148372200Y-114082485D01*
X148419819Y-114034866D01*
X148324580Y-113701533D02*
X148324580Y-113034866D01*
X149324580Y-113463438D01*
%TO.C,C6*%
X144232333Y-90400142D02*
X144184714Y-90447761D01*
X144041857Y-90495380D01*
X143946619Y-90495380D01*
X143803761Y-90447761D01*
X143708523Y-90352523D01*
X143660904Y-90257285D01*
X143613285Y-90066809D01*
X143613285Y-89923952D01*
X143660904Y-89733476D01*
X143708523Y-89638238D01*
X143803761Y-89543000D01*
X143946619Y-89495380D01*
X144041857Y-89495380D01*
X144184714Y-89543000D01*
X144232333Y-89590619D01*
X145089476Y-89495380D02*
X144899000Y-89495380D01*
X144803761Y-89543000D01*
X144756142Y-89590619D01*
X144660904Y-89733476D01*
X144613285Y-89923952D01*
X144613285Y-90304904D01*
X144660904Y-90400142D01*
X144708523Y-90447761D01*
X144803761Y-90495380D01*
X144994238Y-90495380D01*
X145089476Y-90447761D01*
X145137095Y-90400142D01*
X145184714Y-90304904D01*
X145184714Y-90066809D01*
X145137095Y-89971571D01*
X145089476Y-89923952D01*
X144994238Y-89876333D01*
X144803761Y-89876333D01*
X144708523Y-89923952D01*
X144660904Y-89971571D01*
X144613285Y-90066809D01*
%TO.C,C4*%
X136755142Y-110275666D02*
X136802761Y-110323285D01*
X136850380Y-110466142D01*
X136850380Y-110561380D01*
X136802761Y-110704238D01*
X136707523Y-110799476D01*
X136612285Y-110847095D01*
X136421809Y-110894714D01*
X136278952Y-110894714D01*
X136088476Y-110847095D01*
X135993238Y-110799476D01*
X135898000Y-110704238D01*
X135850380Y-110561380D01*
X135850380Y-110466142D01*
X135898000Y-110323285D01*
X135945619Y-110275666D01*
X136183714Y-109418523D02*
X136850380Y-109418523D01*
X135802761Y-109656619D02*
X136517047Y-109894714D01*
X136517047Y-109275666D01*
%TO.C,C3*%
X123547142Y-85637666D02*
X123594761Y-85685285D01*
X123642380Y-85828142D01*
X123642380Y-85923380D01*
X123594761Y-86066238D01*
X123499523Y-86161476D01*
X123404285Y-86209095D01*
X123213809Y-86256714D01*
X123070952Y-86256714D01*
X122880476Y-86209095D01*
X122785238Y-86161476D01*
X122690000Y-86066238D01*
X122642380Y-85923380D01*
X122642380Y-85828142D01*
X122690000Y-85685285D01*
X122737619Y-85637666D01*
X122642380Y-85304333D02*
X122642380Y-84685285D01*
X123023333Y-85018619D01*
X123023333Y-84875761D01*
X123070952Y-84780523D01*
X123118571Y-84732904D01*
X123213809Y-84685285D01*
X123451904Y-84685285D01*
X123547142Y-84732904D01*
X123594761Y-84780523D01*
X123642380Y-84875761D01*
X123642380Y-85161476D01*
X123594761Y-85256714D01*
X123547142Y-85304333D01*
%TO.C,P1*%
X147191504Y-122016780D02*
X147191504Y-121016780D01*
X147572457Y-121016780D01*
X147667695Y-121064400D01*
X147715314Y-121112019D01*
X147762933Y-121207257D01*
X147762933Y-121350114D01*
X147715314Y-121445352D01*
X147667695Y-121492971D01*
X147572457Y-121540590D01*
X147191504Y-121540590D01*
X148715314Y-122016780D02*
X148143885Y-122016780D01*
X148429600Y-122016780D02*
X148429600Y-121016780D01*
X148334361Y-121159638D01*
X148239123Y-121254876D01*
X148143885Y-121302495D01*
%TO.C,P2*%
X167663904Y-121737380D02*
X167663904Y-120737380D01*
X168044857Y-120737380D01*
X168140095Y-120785000D01*
X168187714Y-120832619D01*
X168235333Y-120927857D01*
X168235333Y-121070714D01*
X168187714Y-121165952D01*
X168140095Y-121213571D01*
X168044857Y-121261190D01*
X167663904Y-121261190D01*
X168616285Y-120832619D02*
X168663904Y-120785000D01*
X168759142Y-120737380D01*
X168997238Y-120737380D01*
X169092476Y-120785000D01*
X169140095Y-120832619D01*
X169187714Y-120927857D01*
X169187714Y-121023095D01*
X169140095Y-121165952D01*
X168568666Y-121737380D01*
X169187714Y-121737380D01*
%TO.C,P3*%
X141755904Y-79573380D02*
X141755904Y-78573380D01*
X142136857Y-78573380D01*
X142232095Y-78621000D01*
X142279714Y-78668619D01*
X142327333Y-78763857D01*
X142327333Y-78906714D01*
X142279714Y-79001952D01*
X142232095Y-79049571D01*
X142136857Y-79097190D01*
X141755904Y-79097190D01*
X142660666Y-78573380D02*
X143279714Y-78573380D01*
X142946380Y-78954333D01*
X143089238Y-78954333D01*
X143184476Y-79001952D01*
X143232095Y-79049571D01*
X143279714Y-79144809D01*
X143279714Y-79382904D01*
X143232095Y-79478142D01*
X143184476Y-79525761D01*
X143089238Y-79573380D01*
X142803523Y-79573380D01*
X142708285Y-79525761D01*
X142660666Y-79478142D01*
%TO.C,P4*%
X164869904Y-78811380D02*
X164869904Y-77811380D01*
X165250857Y-77811380D01*
X165346095Y-77859000D01*
X165393714Y-77906619D01*
X165441333Y-78001857D01*
X165441333Y-78144714D01*
X165393714Y-78239952D01*
X165346095Y-78287571D01*
X165250857Y-78335190D01*
X164869904Y-78335190D01*
X166298476Y-78144714D02*
X166298476Y-78811380D01*
X166060380Y-77763761D02*
X165822285Y-78478047D01*
X166441333Y-78478047D01*
%TO.C,R6*%
X145324533Y-84000780D02*
X144991200Y-83524590D01*
X144753104Y-84000780D02*
X144753104Y-83000780D01*
X145134057Y-83000780D01*
X145229295Y-83048400D01*
X145276914Y-83096019D01*
X145324533Y-83191257D01*
X145324533Y-83334114D01*
X145276914Y-83429352D01*
X145229295Y-83476971D01*
X145134057Y-83524590D01*
X144753104Y-83524590D01*
X146181676Y-83000780D02*
X145991200Y-83000780D01*
X145895961Y-83048400D01*
X145848342Y-83096019D01*
X145753104Y-83238876D01*
X145705485Y-83429352D01*
X145705485Y-83810304D01*
X145753104Y-83905542D01*
X145800723Y-83953161D01*
X145895961Y-84000780D01*
X146086438Y-84000780D01*
X146181676Y-83953161D01*
X146229295Y-83905542D01*
X146276914Y-83810304D01*
X146276914Y-83572209D01*
X146229295Y-83476971D01*
X146181676Y-83429352D01*
X146086438Y-83381733D01*
X145895961Y-83381733D01*
X145800723Y-83429352D01*
X145753104Y-83476971D01*
X145705485Y-83572209D01*
%TO.C,D4*%
X168177380Y-100752595D02*
X167177380Y-100752595D01*
X167177380Y-100514500D01*
X167225000Y-100371642D01*
X167320238Y-100276404D01*
X167415476Y-100228785D01*
X167605952Y-100181166D01*
X167748809Y-100181166D01*
X167939285Y-100228785D01*
X168034523Y-100276404D01*
X168129761Y-100371642D01*
X168177380Y-100514500D01*
X168177380Y-100752595D01*
X167510714Y-99324023D02*
X168177380Y-99324023D01*
X167129761Y-99562119D02*
X167844047Y-99800214D01*
X167844047Y-99181166D01*
%TO.C,JP1*%
X153852666Y-120378380D02*
X153852666Y-121092666D01*
X153805047Y-121235523D01*
X153709809Y-121330761D01*
X153566952Y-121378380D01*
X153471714Y-121378380D01*
X154328857Y-121378380D02*
X154328857Y-120378380D01*
X154709809Y-120378380D01*
X154805047Y-120426000D01*
X154852666Y-120473619D01*
X154900285Y-120568857D01*
X154900285Y-120711714D01*
X154852666Y-120806952D01*
X154805047Y-120854571D01*
X154709809Y-120902190D01*
X154328857Y-120902190D01*
X155852666Y-121378380D02*
X155281238Y-121378380D01*
X155566952Y-121378380D02*
X155566952Y-120378380D01*
X155471714Y-120521238D01*
X155376476Y-120616476D01*
X155281238Y-120664095D01*
%TO.C,R5*%
X113525380Y-85891666D02*
X113049190Y-86225000D01*
X113525380Y-86463095D02*
X112525380Y-86463095D01*
X112525380Y-86082142D01*
X112573000Y-85986904D01*
X112620619Y-85939285D01*
X112715857Y-85891666D01*
X112858714Y-85891666D01*
X112953952Y-85939285D01*
X113001571Y-85986904D01*
X113049190Y-86082142D01*
X113049190Y-86463095D01*
X112525380Y-84986904D02*
X112525380Y-85463095D01*
X113001571Y-85510714D01*
X112953952Y-85463095D01*
X112906333Y-85367857D01*
X112906333Y-85129761D01*
X112953952Y-85034523D01*
X113001571Y-84986904D01*
X113096809Y-84939285D01*
X113334904Y-84939285D01*
X113430142Y-84986904D01*
X113477761Y-85034523D01*
X113525380Y-85129761D01*
X113525380Y-85367857D01*
X113477761Y-85463095D01*
X113430142Y-85510714D01*
%TO.C,R3*%
X129957533Y-101790580D02*
X129624200Y-101314390D01*
X129386104Y-101790580D02*
X129386104Y-100790580D01*
X129767057Y-100790580D01*
X129862295Y-100838200D01*
X129909914Y-100885819D01*
X129957533Y-100981057D01*
X129957533Y-101123914D01*
X129909914Y-101219152D01*
X129862295Y-101266771D01*
X129767057Y-101314390D01*
X129386104Y-101314390D01*
X130290866Y-100790580D02*
X130909914Y-100790580D01*
X130576580Y-101171533D01*
X130719438Y-101171533D01*
X130814676Y-101219152D01*
X130862295Y-101266771D01*
X130909914Y-101362009D01*
X130909914Y-101600104D01*
X130862295Y-101695342D01*
X130814676Y-101742961D01*
X130719438Y-101790580D01*
X130433723Y-101790580D01*
X130338485Y-101742961D01*
X130290866Y-101695342D01*
%TO.C,R1*%
X135638980Y-113399866D02*
X135162790Y-113733200D01*
X135638980Y-113971295D02*
X134638980Y-113971295D01*
X134638980Y-113590342D01*
X134686600Y-113495104D01*
X134734219Y-113447485D01*
X134829457Y-113399866D01*
X134972314Y-113399866D01*
X135067552Y-113447485D01*
X135115171Y-113495104D01*
X135162790Y-113590342D01*
X135162790Y-113971295D01*
X135638980Y-112447485D02*
X135638980Y-113018914D01*
X135638980Y-112733200D02*
X134638980Y-112733200D01*
X134781838Y-112828438D01*
X134877076Y-112923676D01*
X134924695Y-113018914D01*
%TO.C,D1*%
X174908380Y-113133095D02*
X173908380Y-113133095D01*
X173908380Y-112895000D01*
X173956000Y-112752142D01*
X174051238Y-112656904D01*
X174146476Y-112609285D01*
X174336952Y-112561666D01*
X174479809Y-112561666D01*
X174670285Y-112609285D01*
X174765523Y-112656904D01*
X174860761Y-112752142D01*
X174908380Y-112895000D01*
X174908380Y-113133095D01*
X174908380Y-111609285D02*
X174908380Y-112180714D01*
X174908380Y-111895000D02*
X173908380Y-111895000D01*
X174051238Y-111990238D01*
X174146476Y-112085476D01*
X174194095Y-112180714D01*
%TO.C,sensor_out*%
X125245761Y-113688333D02*
X125293380Y-113593095D01*
X125293380Y-113402619D01*
X125245761Y-113307380D01*
X125150523Y-113259761D01*
X125102904Y-113259761D01*
X125007666Y-113307380D01*
X124960047Y-113402619D01*
X124960047Y-113545476D01*
X124912428Y-113640714D01*
X124817190Y-113688333D01*
X124769571Y-113688333D01*
X124674333Y-113640714D01*
X124626714Y-113545476D01*
X124626714Y-113402619D01*
X124674333Y-113307380D01*
X125245761Y-112450238D02*
X125293380Y-112545476D01*
X125293380Y-112735952D01*
X125245761Y-112831190D01*
X125150523Y-112878809D01*
X124769571Y-112878809D01*
X124674333Y-112831190D01*
X124626714Y-112735952D01*
X124626714Y-112545476D01*
X124674333Y-112450238D01*
X124769571Y-112402619D01*
X124864809Y-112402619D01*
X124960047Y-112878809D01*
X124626714Y-111974047D02*
X125293380Y-111974047D01*
X124721952Y-111974047D02*
X124674333Y-111926428D01*
X124626714Y-111831190D01*
X124626714Y-111688333D01*
X124674333Y-111593095D01*
X124769571Y-111545476D01*
X125293380Y-111545476D01*
X125245761Y-111116904D02*
X125293380Y-111021666D01*
X125293380Y-110831190D01*
X125245761Y-110735952D01*
X125150523Y-110688333D01*
X125102904Y-110688333D01*
X125007666Y-110735952D01*
X124960047Y-110831190D01*
X124960047Y-110974047D01*
X124912428Y-111069285D01*
X124817190Y-111116904D01*
X124769571Y-111116904D01*
X124674333Y-111069285D01*
X124626714Y-110974047D01*
X124626714Y-110831190D01*
X124674333Y-110735952D01*
X125293380Y-110116904D02*
X125245761Y-110212142D01*
X125198142Y-110259761D01*
X125102904Y-110307380D01*
X124817190Y-110307380D01*
X124721952Y-110259761D01*
X124674333Y-110212142D01*
X124626714Y-110116904D01*
X124626714Y-109974047D01*
X124674333Y-109878809D01*
X124721952Y-109831190D01*
X124817190Y-109783571D01*
X125102904Y-109783571D01*
X125198142Y-109831190D01*
X125245761Y-109878809D01*
X125293380Y-109974047D01*
X125293380Y-110116904D01*
X125293380Y-109355000D02*
X124626714Y-109355000D01*
X124817190Y-109355000D02*
X124721952Y-109307380D01*
X124674333Y-109259761D01*
X124626714Y-109164523D01*
X124626714Y-109069285D01*
X125388619Y-108974047D02*
X125388619Y-108212142D01*
X125293380Y-107831190D02*
X125245761Y-107926428D01*
X125198142Y-107974047D01*
X125102904Y-108021666D01*
X124817190Y-108021666D01*
X124721952Y-107974047D01*
X124674333Y-107926428D01*
X124626714Y-107831190D01*
X124626714Y-107688333D01*
X124674333Y-107593095D01*
X124721952Y-107545476D01*
X124817190Y-107497857D01*
X125102904Y-107497857D01*
X125198142Y-107545476D01*
X125245761Y-107593095D01*
X125293380Y-107688333D01*
X125293380Y-107831190D01*
X124626714Y-106640714D02*
X125293380Y-106640714D01*
X124626714Y-107069285D02*
X125150523Y-107069285D01*
X125245761Y-107021666D01*
X125293380Y-106926428D01*
X125293380Y-106783571D01*
X125245761Y-106688333D01*
X125198142Y-106640714D01*
X124626714Y-106307380D02*
X124626714Y-105926428D01*
X124293380Y-106164523D02*
X125150523Y-106164523D01*
X125245761Y-106116904D01*
X125293380Y-106021666D01*
X125293380Y-105926428D01*
%TO.C,D2*%
X158017380Y-100752595D02*
X157017380Y-100752595D01*
X157017380Y-100514500D01*
X157065000Y-100371642D01*
X157160238Y-100276404D01*
X157255476Y-100228785D01*
X157445952Y-100181166D01*
X157588809Y-100181166D01*
X157779285Y-100228785D01*
X157874523Y-100276404D01*
X157969761Y-100371642D01*
X158017380Y-100514500D01*
X158017380Y-100752595D01*
X157112619Y-99800214D02*
X157065000Y-99752595D01*
X157017380Y-99657357D01*
X157017380Y-99419261D01*
X157065000Y-99324023D01*
X157112619Y-99276404D01*
X157207857Y-99228785D01*
X157303095Y-99228785D01*
X157445952Y-99276404D01*
X158017380Y-99847833D01*
X158017380Y-99228785D01*
%TO.C,C2*%
X144706333Y-102745342D02*
X144658714Y-102792961D01*
X144515857Y-102840580D01*
X144420619Y-102840580D01*
X144277761Y-102792961D01*
X144182523Y-102697723D01*
X144134904Y-102602485D01*
X144087285Y-102412009D01*
X144087285Y-102269152D01*
X144134904Y-102078676D01*
X144182523Y-101983438D01*
X144277761Y-101888200D01*
X144420619Y-101840580D01*
X144515857Y-101840580D01*
X144658714Y-101888200D01*
X144706333Y-101935819D01*
X145087285Y-101935819D02*
X145134904Y-101888200D01*
X145230142Y-101840580D01*
X145468238Y-101840580D01*
X145563476Y-101888200D01*
X145611095Y-101935819D01*
X145658714Y-102031057D01*
X145658714Y-102126295D01*
X145611095Y-102269152D01*
X145039666Y-102840580D01*
X145658714Y-102840580D01*
%TO.C,R10*%
X163097380Y-92844857D02*
X162621190Y-93178190D01*
X163097380Y-93416285D02*
X162097380Y-93416285D01*
X162097380Y-93035333D01*
X162145000Y-92940095D01*
X162192619Y-92892476D01*
X162287857Y-92844857D01*
X162430714Y-92844857D01*
X162525952Y-92892476D01*
X162573571Y-92940095D01*
X162621190Y-93035333D01*
X162621190Y-93416285D01*
X163097380Y-91892476D02*
X163097380Y-92463904D01*
X163097380Y-92178190D02*
X162097380Y-92178190D01*
X162240238Y-92273428D01*
X162335476Y-92368666D01*
X162383095Y-92463904D01*
X162097380Y-91273428D02*
X162097380Y-91178190D01*
X162145000Y-91082952D01*
X162192619Y-91035333D01*
X162287857Y-90987714D01*
X162478333Y-90940095D01*
X162716428Y-90940095D01*
X162906904Y-90987714D01*
X163002142Y-91035333D01*
X163049761Y-91082952D01*
X163097380Y-91178190D01*
X163097380Y-91273428D01*
X163049761Y-91368666D01*
X163002142Y-91416285D01*
X162906904Y-91463904D01*
X162716428Y-91511523D01*
X162478333Y-91511523D01*
X162287857Y-91463904D01*
X162192619Y-91416285D01*
X162145000Y-91368666D01*
X162097380Y-91273428D01*
%TO.C,U1*%
X133784380Y-96392904D02*
X134593904Y-96392904D01*
X134689142Y-96345285D01*
X134736761Y-96297666D01*
X134784380Y-96202428D01*
X134784380Y-96011952D01*
X134736761Y-95916714D01*
X134689142Y-95869095D01*
X134593904Y-95821476D01*
X133784380Y-95821476D01*
X134784380Y-94821476D02*
X134784380Y-95392904D01*
X134784380Y-95107190D02*
X133784380Y-95107190D01*
X133927238Y-95202428D01*
X134022476Y-95297666D01*
X134070095Y-95392904D01*
%TO.C,SW1*%
X169735666Y-87077761D02*
X169878523Y-87125380D01*
X170116619Y-87125380D01*
X170211857Y-87077761D01*
X170259476Y-87030142D01*
X170307095Y-86934904D01*
X170307095Y-86839666D01*
X170259476Y-86744428D01*
X170211857Y-86696809D01*
X170116619Y-86649190D01*
X169926142Y-86601571D01*
X169830904Y-86553952D01*
X169783285Y-86506333D01*
X169735666Y-86411095D01*
X169735666Y-86315857D01*
X169783285Y-86220619D01*
X169830904Y-86173000D01*
X169926142Y-86125380D01*
X170164238Y-86125380D01*
X170307095Y-86173000D01*
X170640428Y-86125380D02*
X170878523Y-87125380D01*
X171069000Y-86411095D01*
X171259476Y-87125380D01*
X171497571Y-86125380D01*
X172402333Y-87125380D02*
X171830904Y-87125380D01*
X172116619Y-87125380D02*
X172116619Y-86125380D01*
X172021380Y-86268238D01*
X171926142Y-86363476D01*
X171830904Y-86411095D01*
%TO.C,D3*%
X163097380Y-100752595D02*
X162097380Y-100752595D01*
X162097380Y-100514500D01*
X162145000Y-100371642D01*
X162240238Y-100276404D01*
X162335476Y-100228785D01*
X162525952Y-100181166D01*
X162668809Y-100181166D01*
X162859285Y-100228785D01*
X162954523Y-100276404D01*
X163049761Y-100371642D01*
X163097380Y-100514500D01*
X163097380Y-100752595D01*
X162097380Y-99847833D02*
X162097380Y-99228785D01*
X162478333Y-99562119D01*
X162478333Y-99419261D01*
X162525952Y-99324023D01*
X162573571Y-99276404D01*
X162668809Y-99228785D01*
X162906904Y-99228785D01*
X163002142Y-99276404D01*
X163049761Y-99324023D01*
X163097380Y-99419261D01*
X163097380Y-99704976D01*
X163049761Y-99800214D01*
X163002142Y-99847833D01*
%TO.C,R7*%
X153799980Y-102401666D02*
X153323790Y-102735000D01*
X153799980Y-102973095D02*
X152799980Y-102973095D01*
X152799980Y-102592142D01*
X152847600Y-102496904D01*
X152895219Y-102449285D01*
X152990457Y-102401666D01*
X153133314Y-102401666D01*
X153228552Y-102449285D01*
X153276171Y-102496904D01*
X153323790Y-102592142D01*
X153323790Y-102973095D01*
X152799980Y-102068333D02*
X152799980Y-101401666D01*
X153799980Y-101830238D01*
%TO.C,GNDA*%
X132794523Y-81506000D02*
X132699285Y-81458380D01*
X132556428Y-81458380D01*
X132413571Y-81506000D01*
X132318333Y-81601238D01*
X132270714Y-81696476D01*
X132223095Y-81886952D01*
X132223095Y-82029809D01*
X132270714Y-82220285D01*
X132318333Y-82315523D01*
X132413571Y-82410761D01*
X132556428Y-82458380D01*
X132651666Y-82458380D01*
X132794523Y-82410761D01*
X132842142Y-82363142D01*
X132842142Y-82029809D01*
X132651666Y-82029809D01*
X133270714Y-82458380D02*
X133270714Y-81458380D01*
X133842142Y-82458380D01*
X133842142Y-81458380D01*
X134318333Y-82458380D02*
X134318333Y-81458380D01*
X134556428Y-81458380D01*
X134699285Y-81506000D01*
X134794523Y-81601238D01*
X134842142Y-81696476D01*
X134889761Y-81886952D01*
X134889761Y-82029809D01*
X134842142Y-82220285D01*
X134794523Y-82315523D01*
X134699285Y-82410761D01*
X134556428Y-82458380D01*
X134318333Y-82458380D01*
X135270714Y-82172666D02*
X135746904Y-82172666D01*
X135175476Y-82458380D02*
X135508809Y-81458380D01*
X135842142Y-82458380D01*
%TO.C,OP2_out*%
X129106942Y-91070180D02*
X129297419Y-91070180D01*
X129392657Y-91117800D01*
X129487895Y-91213038D01*
X129535514Y-91403514D01*
X129535514Y-91736847D01*
X129487895Y-91927323D01*
X129392657Y-92022561D01*
X129297419Y-92070180D01*
X129106942Y-92070180D01*
X129011704Y-92022561D01*
X128916466Y-91927323D01*
X128868847Y-91736847D01*
X128868847Y-91403514D01*
X128916466Y-91213038D01*
X129011704Y-91117800D01*
X129106942Y-91070180D01*
X129964085Y-92070180D02*
X129964085Y-91070180D01*
X130345038Y-91070180D01*
X130440276Y-91117800D01*
X130487895Y-91165419D01*
X130535514Y-91260657D01*
X130535514Y-91403514D01*
X130487895Y-91498752D01*
X130440276Y-91546371D01*
X130345038Y-91593990D01*
X129964085Y-91593990D01*
X130916466Y-91165419D02*
X130964085Y-91117800D01*
X131059323Y-91070180D01*
X131297419Y-91070180D01*
X131392657Y-91117800D01*
X131440276Y-91165419D01*
X131487895Y-91260657D01*
X131487895Y-91355895D01*
X131440276Y-91498752D01*
X130868847Y-92070180D01*
X131487895Y-92070180D01*
X131678371Y-92165419D02*
X132440276Y-92165419D01*
X132821228Y-92070180D02*
X132725990Y-92022561D01*
X132678371Y-91974942D01*
X132630752Y-91879704D01*
X132630752Y-91593990D01*
X132678371Y-91498752D01*
X132725990Y-91451133D01*
X132821228Y-91403514D01*
X132964085Y-91403514D01*
X133059323Y-91451133D01*
X133106942Y-91498752D01*
X133154561Y-91593990D01*
X133154561Y-91879704D01*
X133106942Y-91974942D01*
X133059323Y-92022561D01*
X132964085Y-92070180D01*
X132821228Y-92070180D01*
X134011704Y-91403514D02*
X134011704Y-92070180D01*
X133583133Y-91403514D02*
X133583133Y-91927323D01*
X133630752Y-92022561D01*
X133725990Y-92070180D01*
X133868847Y-92070180D01*
X133964085Y-92022561D01*
X134011704Y-91974942D01*
X134345038Y-91403514D02*
X134725990Y-91403514D01*
X134487895Y-91070180D02*
X134487895Y-91927323D01*
X134535514Y-92022561D01*
X134630752Y-92070180D01*
X134725990Y-92070180D01*
%TO.C,C1*%
X123531333Y-101509642D02*
X123483714Y-101557261D01*
X123340857Y-101604880D01*
X123245619Y-101604880D01*
X123102761Y-101557261D01*
X123007523Y-101462023D01*
X122959904Y-101366785D01*
X122912285Y-101176309D01*
X122912285Y-101033452D01*
X122959904Y-100842976D01*
X123007523Y-100747738D01*
X123102761Y-100652500D01*
X123245619Y-100604880D01*
X123340857Y-100604880D01*
X123483714Y-100652500D01*
X123531333Y-100700119D01*
X124483714Y-101604880D02*
X123912285Y-101604880D01*
X124198000Y-101604880D02*
X124198000Y-100604880D01*
X124102761Y-100747738D01*
X124007523Y-100842976D01*
X123912285Y-100890595D01*
%TO.C,R11*%
X168257380Y-92844857D02*
X167781190Y-93178190D01*
X168257380Y-93416285D02*
X167257380Y-93416285D01*
X167257380Y-93035333D01*
X167305000Y-92940095D01*
X167352619Y-92892476D01*
X167447857Y-92844857D01*
X167590714Y-92844857D01*
X167685952Y-92892476D01*
X167733571Y-92940095D01*
X167781190Y-93035333D01*
X167781190Y-93416285D01*
X168257380Y-91892476D02*
X168257380Y-92463904D01*
X168257380Y-92178190D02*
X167257380Y-92178190D01*
X167400238Y-92273428D01*
X167495476Y-92368666D01*
X167543095Y-92463904D01*
X168257380Y-90940095D02*
X168257380Y-91511523D01*
X168257380Y-91225809D02*
X167257380Y-91225809D01*
X167400238Y-91321047D01*
X167495476Y-91416285D01*
X167543095Y-91511523D01*
%TO.C,R9*%
X158017380Y-92368666D02*
X157541190Y-92702000D01*
X158017380Y-92940095D02*
X157017380Y-92940095D01*
X157017380Y-92559142D01*
X157065000Y-92463904D01*
X157112619Y-92416285D01*
X157207857Y-92368666D01*
X157350714Y-92368666D01*
X157445952Y-92416285D01*
X157493571Y-92463904D01*
X157541190Y-92559142D01*
X157541190Y-92940095D01*
X158017380Y-91892476D02*
X158017380Y-91702000D01*
X157969761Y-91606761D01*
X157922142Y-91559142D01*
X157779285Y-91463904D01*
X157588809Y-91416285D01*
X157207857Y-91416285D01*
X157112619Y-91463904D01*
X157065000Y-91511523D01*
X157017380Y-91606761D01*
X157017380Y-91797238D01*
X157065000Y-91892476D01*
X157112619Y-91940095D01*
X157207857Y-91987714D01*
X157445952Y-91987714D01*
X157541190Y-91940095D01*
X157588809Y-91892476D01*
X157636428Y-91797238D01*
X157636428Y-91606761D01*
X157588809Y-91511523D01*
X157541190Y-91463904D01*
X157445952Y-91416285D01*
%TO.C,C5*%
X115592446Y-101743142D02*
X115544827Y-101790761D01*
X115401970Y-101838380D01*
X115306732Y-101838380D01*
X115163874Y-101790761D01*
X115068636Y-101695523D01*
X115021017Y-101600285D01*
X114973398Y-101409809D01*
X114973398Y-101266952D01*
X115021017Y-101076476D01*
X115068636Y-100981238D01*
X115163874Y-100886000D01*
X115306732Y-100838380D01*
X115401970Y-100838380D01*
X115544827Y-100886000D01*
X115592446Y-100933619D01*
X116497208Y-100838380D02*
X116021017Y-100838380D01*
X115973398Y-101314571D01*
X116021017Y-101266952D01*
X116116255Y-101219333D01*
X116354351Y-101219333D01*
X116449589Y-101266952D01*
X116497208Y-101314571D01*
X116544827Y-101409809D01*
X116544827Y-101647904D01*
X116497208Y-101743142D01*
X116449589Y-101790761D01*
X116354351Y-101838380D01*
X116116255Y-101838380D01*
X116021017Y-101790761D01*
X115973398Y-101743142D01*
%TO.C,sensor*%
X113562095Y-113307761D02*
X113657333Y-113355380D01*
X113847809Y-113355380D01*
X113943047Y-113307761D01*
X113990666Y-113212523D01*
X113990666Y-113164904D01*
X113943047Y-113069666D01*
X113847809Y-113022047D01*
X113704952Y-113022047D01*
X113609714Y-112974428D01*
X113562095Y-112879190D01*
X113562095Y-112831571D01*
X113609714Y-112736333D01*
X113704952Y-112688714D01*
X113847809Y-112688714D01*
X113943047Y-112736333D01*
X114800190Y-113307761D02*
X114704952Y-113355380D01*
X114514476Y-113355380D01*
X114419238Y-113307761D01*
X114371619Y-113212523D01*
X114371619Y-112831571D01*
X114419238Y-112736333D01*
X114514476Y-112688714D01*
X114704952Y-112688714D01*
X114800190Y-112736333D01*
X114847809Y-112831571D01*
X114847809Y-112926809D01*
X114371619Y-113022047D01*
X115276380Y-112688714D02*
X115276380Y-113355380D01*
X115276380Y-112783952D02*
X115324000Y-112736333D01*
X115419238Y-112688714D01*
X115562095Y-112688714D01*
X115657333Y-112736333D01*
X115704952Y-112831571D01*
X115704952Y-113355380D01*
X116133523Y-113307761D02*
X116228761Y-113355380D01*
X116419238Y-113355380D01*
X116514476Y-113307761D01*
X116562095Y-113212523D01*
X116562095Y-113164904D01*
X116514476Y-113069666D01*
X116419238Y-113022047D01*
X116276380Y-113022047D01*
X116181142Y-112974428D01*
X116133523Y-112879190D01*
X116133523Y-112831571D01*
X116181142Y-112736333D01*
X116276380Y-112688714D01*
X116419238Y-112688714D01*
X116514476Y-112736333D01*
X117133523Y-113355380D02*
X117038285Y-113307761D01*
X116990666Y-113260142D01*
X116943047Y-113164904D01*
X116943047Y-112879190D01*
X116990666Y-112783952D01*
X117038285Y-112736333D01*
X117133523Y-112688714D01*
X117276380Y-112688714D01*
X117371619Y-112736333D01*
X117419238Y-112783952D01*
X117466857Y-112879190D01*
X117466857Y-113164904D01*
X117419238Y-113260142D01*
X117371619Y-113307761D01*
X117276380Y-113355380D01*
X117133523Y-113355380D01*
X117895428Y-113355380D02*
X117895428Y-112688714D01*
X117895428Y-112879190D02*
X117943047Y-112783952D01*
X117990666Y-112736333D01*
X118085904Y-112688714D01*
X118181142Y-112688714D01*
%TO.C,OP1_out*%
X129183142Y-97115380D02*
X129373619Y-97115380D01*
X129468857Y-97163000D01*
X129564095Y-97258238D01*
X129611714Y-97448714D01*
X129611714Y-97782047D01*
X129564095Y-97972523D01*
X129468857Y-98067761D01*
X129373619Y-98115380D01*
X129183142Y-98115380D01*
X129087904Y-98067761D01*
X128992666Y-97972523D01*
X128945047Y-97782047D01*
X128945047Y-97448714D01*
X128992666Y-97258238D01*
X129087904Y-97163000D01*
X129183142Y-97115380D01*
X130040285Y-98115380D02*
X130040285Y-97115380D01*
X130421238Y-97115380D01*
X130516476Y-97163000D01*
X130564095Y-97210619D01*
X130611714Y-97305857D01*
X130611714Y-97448714D01*
X130564095Y-97543952D01*
X130516476Y-97591571D01*
X130421238Y-97639190D01*
X130040285Y-97639190D01*
X131564095Y-98115380D02*
X130992666Y-98115380D01*
X131278380Y-98115380D02*
X131278380Y-97115380D01*
X131183142Y-97258238D01*
X131087904Y-97353476D01*
X130992666Y-97401095D01*
X131754571Y-98210619D02*
X132516476Y-98210619D01*
X132897428Y-98115380D02*
X132802190Y-98067761D01*
X132754571Y-98020142D01*
X132706952Y-97924904D01*
X132706952Y-97639190D01*
X132754571Y-97543952D01*
X132802190Y-97496333D01*
X132897428Y-97448714D01*
X133040285Y-97448714D01*
X133135523Y-97496333D01*
X133183142Y-97543952D01*
X133230761Y-97639190D01*
X133230761Y-97924904D01*
X133183142Y-98020142D01*
X133135523Y-98067761D01*
X133040285Y-98115380D01*
X132897428Y-98115380D01*
X134087904Y-97448714D02*
X134087904Y-98115380D01*
X133659333Y-97448714D02*
X133659333Y-97972523D01*
X133706952Y-98067761D01*
X133802190Y-98115380D01*
X133945047Y-98115380D01*
X134040285Y-98067761D01*
X134087904Y-98020142D01*
X134421238Y-97448714D02*
X134802190Y-97448714D01*
X134564095Y-97115380D02*
X134564095Y-97972523D01*
X134611714Y-98067761D01*
X134706952Y-98115380D01*
X134802190Y-98115380D01*
%TO.C,R2*%
X130787580Y-113247466D02*
X130311390Y-113580800D01*
X130787580Y-113818895D02*
X129787580Y-113818895D01*
X129787580Y-113437942D01*
X129835200Y-113342704D01*
X129882819Y-113295085D01*
X129978057Y-113247466D01*
X130120914Y-113247466D01*
X130216152Y-113295085D01*
X130263771Y-113342704D01*
X130311390Y-113437942D01*
X130311390Y-113818895D01*
X129882819Y-112866514D02*
X129835200Y-112818895D01*
X129787580Y-112723657D01*
X129787580Y-112485561D01*
X129835200Y-112390323D01*
X129882819Y-112342704D01*
X129978057Y-112295085D01*
X130073295Y-112295085D01*
X130216152Y-112342704D01*
X130787580Y-112914133D01*
X130787580Y-112295085D01*
%TO.C,v_d_out*%
X137692142Y-119394314D02*
X137930238Y-120060980D01*
X138168333Y-119394314D01*
X138311190Y-120156219D02*
X139073095Y-120156219D01*
X139739761Y-120060980D02*
X139739761Y-119060980D01*
X139739761Y-120013361D02*
X139644523Y-120060980D01*
X139454047Y-120060980D01*
X139358809Y-120013361D01*
X139311190Y-119965742D01*
X139263571Y-119870504D01*
X139263571Y-119584790D01*
X139311190Y-119489552D01*
X139358809Y-119441933D01*
X139454047Y-119394314D01*
X139644523Y-119394314D01*
X139739761Y-119441933D01*
X139977857Y-120156219D02*
X140739761Y-120156219D01*
X141120714Y-120060980D02*
X141025476Y-120013361D01*
X140977857Y-119965742D01*
X140930238Y-119870504D01*
X140930238Y-119584790D01*
X140977857Y-119489552D01*
X141025476Y-119441933D01*
X141120714Y-119394314D01*
X141263571Y-119394314D01*
X141358809Y-119441933D01*
X141406428Y-119489552D01*
X141454047Y-119584790D01*
X141454047Y-119870504D01*
X141406428Y-119965742D01*
X141358809Y-120013361D01*
X141263571Y-120060980D01*
X141120714Y-120060980D01*
X142311190Y-119394314D02*
X142311190Y-120060980D01*
X141882619Y-119394314D02*
X141882619Y-119918123D01*
X141930238Y-120013361D01*
X142025476Y-120060980D01*
X142168333Y-120060980D01*
X142263571Y-120013361D01*
X142311190Y-119965742D01*
X142644523Y-119394314D02*
X143025476Y-119394314D01*
X142787380Y-119060980D02*
X142787380Y-119918123D01*
X142835000Y-120013361D01*
X142930238Y-120060980D01*
X143025476Y-120060980D01*
%TO.C,GNDD*%
X168283095Y-103767000D02*
X168187857Y-103719380D01*
X168045000Y-103719380D01*
X167902142Y-103767000D01*
X167806904Y-103862238D01*
X167759285Y-103957476D01*
X167711666Y-104147952D01*
X167711666Y-104290809D01*
X167759285Y-104481285D01*
X167806904Y-104576523D01*
X167902142Y-104671761D01*
X168045000Y-104719380D01*
X168140238Y-104719380D01*
X168283095Y-104671761D01*
X168330714Y-104624142D01*
X168330714Y-104290809D01*
X168140238Y-104290809D01*
X168759285Y-104719380D02*
X168759285Y-103719380D01*
X169330714Y-104719380D01*
X169330714Y-103719380D01*
X169806904Y-104719380D02*
X169806904Y-103719380D01*
X170045000Y-103719380D01*
X170187857Y-103767000D01*
X170283095Y-103862238D01*
X170330714Y-103957476D01*
X170378333Y-104147952D01*
X170378333Y-104290809D01*
X170330714Y-104481285D01*
X170283095Y-104576523D01*
X170187857Y-104671761D01*
X170045000Y-104719380D01*
X169806904Y-104719380D01*
X170806904Y-104719380D02*
X170806904Y-103719380D01*
X171045000Y-103719380D01*
X171187857Y-103767000D01*
X171283095Y-103862238D01*
X171330714Y-103957476D01*
X171378333Y-104147952D01*
X171378333Y-104290809D01*
X171330714Y-104481285D01*
X171283095Y-104576523D01*
X171187857Y-104671761D01*
X171045000Y-104719380D01*
X170806904Y-104719380D01*
%TO.C,R8*%
X174908380Y-105322666D02*
X174432190Y-105656000D01*
X174908380Y-105894095D02*
X173908380Y-105894095D01*
X173908380Y-105513142D01*
X173956000Y-105417904D01*
X174003619Y-105370285D01*
X174098857Y-105322666D01*
X174241714Y-105322666D01*
X174336952Y-105370285D01*
X174384571Y-105417904D01*
X174432190Y-105513142D01*
X174432190Y-105894095D01*
X174336952Y-104751238D02*
X174289333Y-104846476D01*
X174241714Y-104894095D01*
X174146476Y-104941714D01*
X174098857Y-104941714D01*
X174003619Y-104894095D01*
X173956000Y-104846476D01*
X173908380Y-104751238D01*
X173908380Y-104560761D01*
X173956000Y-104465523D01*
X174003619Y-104417904D01*
X174098857Y-104370285D01*
X174146476Y-104370285D01*
X174241714Y-104417904D01*
X174289333Y-104465523D01*
X174336952Y-104560761D01*
X174336952Y-104751238D01*
X174384571Y-104846476D01*
X174432190Y-104894095D01*
X174527428Y-104941714D01*
X174717904Y-104941714D01*
X174813142Y-104894095D01*
X174860761Y-104846476D01*
X174908380Y-104751238D01*
X174908380Y-104560761D01*
X174860761Y-104465523D01*
X174813142Y-104417904D01*
X174717904Y-104370285D01*
X174527428Y-104370285D01*
X174432190Y-104417904D01*
X174384571Y-104465523D01*
X174336952Y-104560761D01*
%TO.C,GNDA*%
X132794523Y-86459000D02*
X132699285Y-86411380D01*
X132556428Y-86411380D01*
X132413571Y-86459000D01*
X132318333Y-86554238D01*
X132270714Y-86649476D01*
X132223095Y-86839952D01*
X132223095Y-86982809D01*
X132270714Y-87173285D01*
X132318333Y-87268523D01*
X132413571Y-87363761D01*
X132556428Y-87411380D01*
X132651666Y-87411380D01*
X132794523Y-87363761D01*
X132842142Y-87316142D01*
X132842142Y-86982809D01*
X132651666Y-86982809D01*
X133270714Y-87411380D02*
X133270714Y-86411380D01*
X133842142Y-87411380D01*
X133842142Y-86411380D01*
X134318333Y-87411380D02*
X134318333Y-86411380D01*
X134556428Y-86411380D01*
X134699285Y-86459000D01*
X134794523Y-86554238D01*
X134842142Y-86649476D01*
X134889761Y-86839952D01*
X134889761Y-86982809D01*
X134842142Y-87173285D01*
X134794523Y-87268523D01*
X134699285Y-87363761D01*
X134556428Y-87411380D01*
X134318333Y-87411380D01*
X135270714Y-87125666D02*
X135746904Y-87125666D01*
X135175476Y-87411380D02*
X135508809Y-86411380D01*
X135842142Y-87411380D01*
%TO.C,R12*%
X163097380Y-106753357D02*
X162621190Y-107086690D01*
X163097380Y-107324785D02*
X162097380Y-107324785D01*
X162097380Y-106943833D01*
X162145000Y-106848595D01*
X162192619Y-106800976D01*
X162287857Y-106753357D01*
X162430714Y-106753357D01*
X162525952Y-106800976D01*
X162573571Y-106848595D01*
X162621190Y-106943833D01*
X162621190Y-107324785D01*
X163097380Y-105800976D02*
X163097380Y-106372404D01*
X163097380Y-106086690D02*
X162097380Y-106086690D01*
X162240238Y-106181928D01*
X162335476Y-106277166D01*
X162383095Y-106372404D01*
X162192619Y-105420023D02*
X162145000Y-105372404D01*
X162097380Y-105277166D01*
X162097380Y-105039071D01*
X162145000Y-104943833D01*
X162192619Y-104896214D01*
X162287857Y-104848595D01*
X162383095Y-104848595D01*
X162525952Y-104896214D01*
X163097380Y-105467642D01*
X163097380Y-104848595D01*
%TO.C,R4*%
X118943380Y-85764666D02*
X118467190Y-86098000D01*
X118943380Y-86336095D02*
X117943380Y-86336095D01*
X117943380Y-85955142D01*
X117991000Y-85859904D01*
X118038619Y-85812285D01*
X118133857Y-85764666D01*
X118276714Y-85764666D01*
X118371952Y-85812285D01*
X118419571Y-85859904D01*
X118467190Y-85955142D01*
X118467190Y-86336095D01*
X118276714Y-84907523D02*
X118943380Y-84907523D01*
X117895761Y-85145619D02*
X118610047Y-85383714D01*
X118610047Y-84764666D01*
D12*
%TO.C,C7*%
X147742200Y-110148200D02*
X147742200Y-117588200D01*
X144002200Y-110148200D02*
X144002200Y-117588200D01*
X147742200Y-110148200D02*
X144002200Y-110148200D01*
X147742200Y-117588200D02*
X144002200Y-117588200D01*
%TO.C,C6*%
X147941200Y-89187200D02*
X140501200Y-89187200D01*
X147941200Y-84447200D02*
X140501200Y-84447200D01*
X147941200Y-89187200D02*
X147941200Y-84447200D01*
X140501200Y-89187200D02*
X140501200Y-84447200D01*
%TO.C,C4*%
X137525200Y-115073600D02*
X137525200Y-107633600D01*
X141265200Y-115073600D02*
X141265200Y-107633600D01*
X137525200Y-115073600D02*
X141265200Y-115073600D01*
X137525200Y-107633600D02*
X141265200Y-107633600D01*
%TO.C,C3*%
X128608000Y-81965000D02*
X128608000Y-89405000D01*
X123868000Y-81965000D02*
X123868000Y-89405000D01*
X128608000Y-81965000D02*
X123868000Y-81965000D01*
X128608000Y-89405000D02*
X123868000Y-89405000D01*
D11*
%TO.C,P1*%
X157988000Y-125095000D02*
X157988000Y-122555000D01*
X140208000Y-125095000D02*
X157988000Y-125095000D01*
X157988000Y-122555000D02*
X140208000Y-122555000D01*
X138938000Y-122275000D02*
X137388000Y-122275000D01*
X137388000Y-122275000D02*
X137388000Y-125375000D01*
X137388000Y-125375000D02*
X138938000Y-125375000D01*
X140208000Y-125095000D02*
X140208000Y-122555000D01*
%TO.C,P2*%
X163068000Y-125095000D02*
X163068000Y-122555000D01*
X161798000Y-122275000D02*
X160248000Y-122275000D01*
X175768000Y-122555000D02*
X163068000Y-122555000D01*
X163068000Y-125095000D02*
X175768000Y-125095000D01*
X175768000Y-125095000D02*
X175768000Y-122555000D01*
X160248000Y-122275000D02*
X160248000Y-125375000D01*
X160248000Y-125375000D02*
X161798000Y-125375000D01*
%TO.C,P3*%
X128244000Y-74015000D02*
X128244000Y-77115000D01*
X131064000Y-76835000D02*
X153924000Y-76835000D01*
X153924000Y-76835000D02*
X153924000Y-74295000D01*
X153924000Y-74295000D02*
X131064000Y-74295000D01*
X129794000Y-74015000D02*
X128244000Y-74015000D01*
X128244000Y-77115000D02*
X129794000Y-77115000D01*
X131064000Y-76835000D02*
X131064000Y-74295000D01*
%TO.C,P4*%
X175768000Y-74295000D02*
X157988000Y-74295000D01*
X155168000Y-77115000D02*
X156718000Y-77115000D01*
X157988000Y-76835000D02*
X175768000Y-76835000D01*
X157988000Y-76835000D02*
X157988000Y-74295000D01*
X156718000Y-74015000D02*
X155168000Y-74015000D01*
X175768000Y-76835000D02*
X175768000Y-74295000D01*
X155168000Y-74015000D02*
X155168000Y-77115000D01*
D12*
%TO.C,R6*%
X142221200Y-82548400D02*
X148761200Y-82548400D01*
X148761200Y-79808400D02*
X142221200Y-79808400D01*
X142221200Y-79808400D02*
X142221200Y-82548400D01*
X149531200Y-81178400D02*
X148761200Y-81178400D01*
X141451200Y-81178400D02*
X142221200Y-81178400D01*
X148761200Y-82548400D02*
X148761200Y-79808400D01*
%TO.C,D4*%
X170680000Y-102299500D02*
X170680000Y-98414500D01*
X168410000Y-98414500D02*
X168410000Y-102299500D01*
X168410000Y-102299500D02*
X170680000Y-102299500D01*
%TO.C,JP1*%
X155986000Y-117926000D02*
X155686000Y-117626000D01*
X156736000Y-118126000D02*
X156736000Y-120126000D01*
X152636000Y-120126000D02*
X152636000Y-118126000D01*
X156286000Y-117626000D02*
X155686000Y-117626000D01*
X152636000Y-118126000D02*
X156736000Y-118126000D01*
X155986000Y-117926000D02*
X156286000Y-117626000D01*
X156736000Y-120126000D02*
X152636000Y-120126000D01*
%TO.C,R5*%
X114073000Y-82455000D02*
X114073000Y-88995000D01*
X114073000Y-88995000D02*
X116813000Y-88995000D01*
X116813000Y-88995000D02*
X116813000Y-82455000D01*
X115443000Y-89765000D02*
X115443000Y-88995000D01*
X115443000Y-81685000D02*
X115443000Y-82455000D01*
X116813000Y-82455000D02*
X114073000Y-82455000D01*
%TO.C,R3*%
X133394200Y-102338200D02*
X126854200Y-102338200D01*
X134164200Y-103708200D02*
X133394200Y-103708200D01*
X126854200Y-105078200D02*
X133394200Y-105078200D01*
X126084200Y-103708200D02*
X126854200Y-103708200D01*
X133394200Y-105078200D02*
X133394200Y-102338200D01*
X126854200Y-102338200D02*
X126854200Y-105078200D01*
%TO.C,R1*%
X131446600Y-109963200D02*
X131446600Y-116503200D01*
X134186600Y-109963200D02*
X131446600Y-109963200D01*
X132816600Y-109193200D02*
X132816600Y-109963200D01*
X132816600Y-117273200D02*
X132816600Y-116503200D01*
X134186600Y-116503200D02*
X134186600Y-109963200D01*
X131446600Y-116503200D02*
X134186600Y-116503200D01*
%TO.C,D1*%
X175141000Y-110795000D02*
X175141000Y-114680000D01*
X177411000Y-114680000D02*
X177411000Y-110795000D01*
X175141000Y-114680000D02*
X177411000Y-114680000D01*
%TO.C,sensor_out*%
X121606000Y-107950000D02*
X121606000Y-107265000D01*
X121606000Y-108635000D02*
X121606000Y-108510000D01*
X122996000Y-108635000D02*
X122996000Y-108510000D01*
X122909276Y-108635000D02*
X122996000Y-108635000D01*
X121606000Y-107265000D02*
X122301000Y-107265000D01*
X121606000Y-108635000D02*
X121692724Y-108635000D01*
X121606000Y-108635000D02*
X122996000Y-108635000D01*
%TO.C,D2*%
X158250000Y-98414500D02*
X158250000Y-102299500D01*
X158250000Y-102299500D02*
X160520000Y-102299500D01*
X160520000Y-102299500D02*
X160520000Y-98414500D01*
%TO.C,C2*%
X145113000Y-107288200D02*
X145113000Y-108784200D01*
X146314000Y-107288200D02*
X146314000Y-108219200D01*
X144673000Y-103668200D02*
X144673000Y-108828200D01*
X146874000Y-104929200D02*
X146874000Y-105208200D01*
X146234000Y-104213200D02*
X146234000Y-105208200D01*
X146274000Y-104244200D02*
X146274000Y-105208200D01*
X145313000Y-103757200D02*
X145313000Y-105208200D01*
X145434000Y-103793200D02*
X145434000Y-105208200D01*
X146634000Y-104595200D02*
X146634000Y-105208200D01*
X146714000Y-107288200D02*
X146714000Y-107802200D01*
X145073000Y-103705200D02*
X145073000Y-105208200D01*
X145954000Y-107288200D02*
X145954000Y-108472200D01*
X145033000Y-103698200D02*
X145033000Y-105208200D01*
X146274000Y-107288200D02*
X146274000Y-108252200D01*
X146674000Y-107288200D02*
X146674000Y-107853200D01*
X146474000Y-107288200D02*
X146474000Y-108074200D01*
X145554000Y-103834200D02*
X145554000Y-105208200D01*
X146314000Y-104277200D02*
X146314000Y-105208200D01*
X145153000Y-103720200D02*
X145153000Y-105208200D01*
X145954000Y-104024200D02*
X145954000Y-105208200D01*
X146074000Y-107288200D02*
X146074000Y-108397200D01*
X145874000Y-107288200D02*
X145874000Y-108516200D01*
X145674000Y-107288200D02*
X145674000Y-108613200D01*
X145233000Y-107288200D02*
X145233000Y-108759200D01*
X145714000Y-107288200D02*
X145714000Y-108596200D01*
X146754000Y-104748200D02*
X146754000Y-105208200D01*
X145394000Y-103780200D02*
X145394000Y-105208200D01*
X146154000Y-107288200D02*
X146154000Y-108343200D01*
X144913000Y-107288200D02*
X144913000Y-108813200D01*
X145193000Y-103728200D02*
X145193000Y-105208200D01*
X146514000Y-107288200D02*
X146514000Y-108033200D01*
X145674000Y-103883200D02*
X145674000Y-105208200D01*
X144993000Y-103692200D02*
X144993000Y-105208200D01*
X145754000Y-103919200D02*
X145754000Y-105208200D01*
X144833000Y-103675200D02*
X144833000Y-108821200D01*
X144793000Y-103672200D02*
X144793000Y-108824200D01*
X145474000Y-107288200D02*
X145474000Y-108690200D01*
X146394000Y-104347200D02*
X146394000Y-105208200D01*
X146634000Y-107288200D02*
X146634000Y-107901200D01*
X145273000Y-107288200D02*
X145273000Y-108749200D01*
X144993000Y-107288200D02*
X144993000Y-108804200D01*
X145834000Y-103958200D02*
X145834000Y-105208200D01*
X146794000Y-104805200D02*
X146794000Y-105208200D01*
X147154000Y-105571200D02*
X147154000Y-106925200D01*
X144953000Y-103687200D02*
X144953000Y-105208200D01*
X145434000Y-107288200D02*
X145434000Y-108703200D01*
X146234000Y-107288200D02*
X146234000Y-108283200D01*
X146074000Y-104099200D02*
X146074000Y-105208200D01*
X144713000Y-103669200D02*
X144713000Y-108827200D01*
X141828225Y-104773200D02*
X142328225Y-104773200D01*
X145634000Y-107288200D02*
X145634000Y-108630200D01*
X146194000Y-104183200D02*
X146194000Y-105208200D01*
X145514000Y-107288200D02*
X145514000Y-108676200D01*
X145634000Y-103866200D02*
X145634000Y-105208200D01*
X144633000Y-103668200D02*
X144633000Y-108828200D01*
X146354000Y-107288200D02*
X146354000Y-108185200D01*
X145834000Y-107288200D02*
X145834000Y-108538200D01*
X145514000Y-103820200D02*
X145514000Y-105208200D01*
X146114000Y-104126200D02*
X146114000Y-105208200D01*
X146794000Y-107288200D02*
X146794000Y-107691200D01*
X146194000Y-107288200D02*
X146194000Y-108313200D01*
X146114000Y-107288200D02*
X146114000Y-108370200D01*
X144873000Y-107288200D02*
X144873000Y-108817200D01*
X144913000Y-103683200D02*
X144913000Y-105208200D01*
X145914000Y-107288200D02*
X145914000Y-108495200D01*
X146034000Y-104073200D02*
X146034000Y-105208200D01*
X146034000Y-107288200D02*
X146034000Y-108423200D01*
X145794000Y-103938200D02*
X145794000Y-105208200D01*
X145594000Y-107288200D02*
X145594000Y-108646200D01*
X145273000Y-103747200D02*
X145273000Y-105208200D01*
X146554000Y-104505200D02*
X146554000Y-105208200D01*
X144873000Y-103679200D02*
X144873000Y-105208200D01*
X146434000Y-107288200D02*
X146434000Y-108112200D01*
X146914000Y-104997200D02*
X146914000Y-105208200D01*
X145354000Y-103768200D02*
X145354000Y-105208200D01*
X146834000Y-104865200D02*
X146834000Y-105208200D01*
X145233000Y-103737200D02*
X145233000Y-105208200D01*
X144753000Y-103670200D02*
X144753000Y-108826200D01*
X145354000Y-107288200D02*
X145354000Y-108728200D01*
X146514000Y-104463200D02*
X146514000Y-105208200D01*
X147194000Y-105730200D02*
X147194000Y-106766200D01*
X146154000Y-104153200D02*
X146154000Y-105208200D01*
X145874000Y-103980200D02*
X145874000Y-105208200D01*
X145994000Y-104048200D02*
X145994000Y-105208200D01*
X146594000Y-104549200D02*
X146594000Y-105208200D01*
X145033000Y-107288200D02*
X145033000Y-108798200D01*
X145754000Y-107288200D02*
X145754000Y-108577200D01*
X142078225Y-104523200D02*
X142078225Y-105023200D01*
X146954000Y-105070200D02*
X146954000Y-107426200D01*
X146434000Y-104384200D02*
X146434000Y-105208200D01*
X145914000Y-104001200D02*
X145914000Y-105208200D01*
X145594000Y-103850200D02*
X145594000Y-105208200D01*
X145193000Y-107288200D02*
X145193000Y-108768200D01*
X146554000Y-107288200D02*
X146554000Y-107991200D01*
X146594000Y-107288200D02*
X146594000Y-107947200D01*
X146874000Y-107288200D02*
X146874000Y-107567200D01*
X147234000Y-105964200D02*
X147234000Y-106532200D01*
X146354000Y-104311200D02*
X146354000Y-105208200D01*
X146394000Y-107288200D02*
X146394000Y-108149200D01*
X145113000Y-103712200D02*
X145113000Y-105208200D01*
X145073000Y-107288200D02*
X145073000Y-108791200D01*
X145994000Y-107288200D02*
X145994000Y-108448200D01*
X145474000Y-103806200D02*
X145474000Y-105208200D01*
X146754000Y-107288200D02*
X146754000Y-107748200D01*
X145313000Y-107288200D02*
X145313000Y-108739200D01*
X145714000Y-103900200D02*
X145714000Y-105208200D01*
X145794000Y-107288200D02*
X145794000Y-108558200D01*
X145153000Y-107288200D02*
X145153000Y-108776200D01*
X147114000Y-105443200D02*
X147114000Y-107053200D01*
X146914000Y-107288200D02*
X146914000Y-107499200D01*
X145394000Y-107288200D02*
X145394000Y-108716200D01*
X145554000Y-107288200D02*
X145554000Y-108662200D01*
X146714000Y-104694200D02*
X146714000Y-105208200D01*
X146474000Y-104422200D02*
X146474000Y-105208200D01*
X146994000Y-105150200D02*
X146994000Y-107346200D01*
X147034000Y-105237200D02*
X147034000Y-107259200D01*
X144953000Y-107288200D02*
X144953000Y-108809200D01*
X147074000Y-105333200D02*
X147074000Y-107163200D01*
X146674000Y-104643200D02*
X146674000Y-105208200D01*
X146834000Y-107288200D02*
X146834000Y-107631200D01*
X147253000Y-106248200D02*
G75*
G03*
X147253000Y-106248200I-2620000J0D01*
G01*
%TO.C,R10*%
X165375000Y-92929064D02*
X165375000Y-91474936D01*
X163555000Y-92929064D02*
X163555000Y-91474936D01*
%TO.C,U1*%
X135332000Y-97002000D02*
X135332000Y-98652000D01*
X145612000Y-93352000D02*
X135332000Y-93352000D01*
X145612000Y-98652000D02*
X145612000Y-93352000D01*
X145672000Y-90862000D02*
X135272000Y-90862000D01*
X135332000Y-93352000D02*
X135332000Y-95002000D01*
X135332000Y-98652000D02*
X145612000Y-98652000D01*
X135272000Y-90862000D02*
X135272000Y-101142000D01*
X145672000Y-101142000D02*
X145672000Y-90862000D01*
X135272000Y-101142000D02*
X145672000Y-101142000D01*
X135332000Y-97002000D02*
G75*
G03*
X135332000Y-95002000I0J1000000D01*
G01*
%TO.C,SW1*%
X174569000Y-83173000D02*
X174569000Y-81673000D01*
X173319000Y-79173000D02*
X168819000Y-79173000D01*
X168819000Y-85673000D02*
X173319000Y-85673000D01*
X167569000Y-81673000D02*
X167569000Y-83173000D01*
%TO.C,D3*%
X163330000Y-98414500D02*
X163330000Y-102299500D01*
X163330000Y-102299500D02*
X165600000Y-102299500D01*
X165600000Y-102299500D02*
X165600000Y-98414500D01*
%TO.C,R7*%
X150977600Y-98195000D02*
X150977600Y-98965000D01*
X150977600Y-106275000D02*
X150977600Y-105505000D01*
X149607600Y-98965000D02*
X149607600Y-105505000D01*
X152347600Y-98965000D02*
X149607600Y-98965000D01*
X149607600Y-105505000D02*
X152347600Y-105505000D01*
X152347600Y-105505000D02*
X152347600Y-98965000D01*
%TO.C,GNDA*%
X133290000Y-82881000D02*
X133985000Y-82881000D01*
X133290000Y-84251000D02*
X133376724Y-84251000D01*
X133290000Y-84251000D02*
X134680000Y-84251000D01*
X133290000Y-84251000D02*
X133290000Y-84126000D01*
X133290000Y-83566000D02*
X133290000Y-82881000D01*
X134680000Y-84251000D02*
X134680000Y-84126000D01*
X134593276Y-84251000D02*
X134680000Y-84251000D01*
%TO.C,OP2_out*%
X131639000Y-94157000D02*
X131725724Y-94157000D01*
X131639000Y-92787000D02*
X132334000Y-92787000D01*
X132942276Y-94157000D02*
X133029000Y-94157000D01*
X133029000Y-94157000D02*
X133029000Y-94032000D01*
X131639000Y-94157000D02*
X131639000Y-94032000D01*
X131639000Y-93472000D02*
X131639000Y-92787000D01*
X131639000Y-94157000D02*
X133029000Y-94157000D01*
%TO.C,C1*%
X122325113Y-99612000D02*
X122325113Y-98362000D01*
X122125113Y-96282000D02*
X122125113Y-95147000D01*
X121805113Y-99259000D02*
X121805113Y-98362000D01*
X123206113Y-99883000D02*
X123206113Y-98362000D01*
X121885113Y-99326000D02*
X121885113Y-98362000D01*
X123326113Y-99895000D02*
X123326113Y-94749000D01*
X123086113Y-99865000D02*
X123086113Y-98362000D01*
X121725113Y-96282000D02*
X121725113Y-95458000D01*
X122245113Y-99569000D02*
X122245113Y-98362000D01*
X122525113Y-99704000D02*
X122525113Y-98362000D01*
X121245113Y-98573000D02*
X121245113Y-98362000D01*
X121045113Y-98127000D02*
X121045113Y-96517000D01*
X121085113Y-98237000D02*
X121085113Y-96407000D01*
X123006113Y-96282000D02*
X123006113Y-94794000D01*
X121925113Y-96282000D02*
X121925113Y-95287000D01*
X122525113Y-96282000D02*
X122525113Y-94940000D01*
X121565113Y-96282000D02*
X121565113Y-95623000D01*
X122645113Y-99750000D02*
X122645113Y-98362000D01*
X121285113Y-98641000D02*
X121285113Y-98362000D01*
X121325113Y-98705000D02*
X121325113Y-98362000D01*
X121965113Y-96282000D02*
X121965113Y-95257000D01*
X122325113Y-96282000D02*
X122325113Y-95032000D01*
X122846113Y-99813000D02*
X122846113Y-98362000D01*
X121445113Y-98876000D02*
X121445113Y-98362000D01*
X122205113Y-96282000D02*
X122205113Y-95098000D01*
X121645113Y-99107000D02*
X121645113Y-98362000D01*
X122045113Y-96282000D02*
X122045113Y-95200000D01*
X122725113Y-96282000D02*
X122725113Y-94867000D01*
X121325113Y-96282000D02*
X121325113Y-95939000D01*
X123286113Y-96282000D02*
X123286113Y-94753000D01*
X123526113Y-99902000D02*
X123526113Y-94742000D01*
X123046113Y-96282000D02*
X123046113Y-94786000D01*
X122886113Y-99823000D02*
X122886113Y-98362000D01*
X122485113Y-99687000D02*
X122485113Y-98362000D01*
X122565113Y-96282000D02*
X122565113Y-94924000D01*
X122005113Y-96282000D02*
X122005113Y-95227000D01*
X121365113Y-98765000D02*
X121365113Y-98362000D01*
X121605113Y-96282000D02*
X121605113Y-95579000D01*
X122805113Y-96282000D02*
X122805113Y-94842000D01*
X122725113Y-99777000D02*
X122725113Y-98362000D01*
X122365113Y-99632000D02*
X122365113Y-98362000D01*
X123246113Y-96282000D02*
X123246113Y-94757000D01*
X122605113Y-96282000D02*
X122605113Y-94908000D01*
X123446113Y-99901000D02*
X123446113Y-94743000D01*
X121005113Y-97999000D02*
X121005113Y-96645000D01*
X122685113Y-99764000D02*
X122685113Y-98362000D01*
X122445113Y-96282000D02*
X122445113Y-94974000D01*
X121565113Y-99021000D02*
X121565113Y-98362000D01*
X122085113Y-99471000D02*
X122085113Y-98362000D01*
X121725113Y-99186000D02*
X121725113Y-98362000D01*
X122685113Y-96282000D02*
X122685113Y-94880000D01*
X121965113Y-99387000D02*
X121965113Y-98362000D01*
X122765113Y-96282000D02*
X122765113Y-94854000D01*
X123406113Y-99900000D02*
X123406113Y-94744000D01*
X122285113Y-99590000D02*
X122285113Y-98362000D01*
X123366113Y-99898000D02*
X123366113Y-94746000D01*
X122045113Y-99444000D02*
X122045113Y-98362000D01*
X121845113Y-99293000D02*
X121845113Y-98362000D01*
X123126113Y-96282000D02*
X123126113Y-94772000D01*
X121845113Y-96282000D02*
X121845113Y-95351000D01*
X121485113Y-96282000D02*
X121485113Y-95717000D01*
X126080888Y-99047000D02*
X126080888Y-98547000D01*
X121125113Y-98333000D02*
X121125113Y-96311000D01*
X122445113Y-99670000D02*
X122445113Y-98362000D01*
X121885113Y-96282000D02*
X121885113Y-95318000D01*
X121925113Y-99357000D02*
X121925113Y-98362000D01*
X122125113Y-99497000D02*
X122125113Y-98362000D01*
X121765113Y-99223000D02*
X121765113Y-98362000D01*
X122005113Y-99417000D02*
X122005113Y-98362000D01*
X122245113Y-96282000D02*
X122245113Y-95075000D01*
X123246113Y-99887000D02*
X123246113Y-98362000D01*
X122165113Y-99522000D02*
X122165113Y-98362000D01*
X121405113Y-98822000D02*
X121405113Y-98362000D01*
X121525113Y-98975000D02*
X121525113Y-98362000D01*
X121685113Y-96282000D02*
X121685113Y-95496000D01*
X121445113Y-96282000D02*
X121445113Y-95768000D01*
X121605113Y-99065000D02*
X121605113Y-98362000D01*
X122365113Y-96282000D02*
X122365113Y-95012000D01*
X122085113Y-96282000D02*
X122085113Y-95173000D01*
X126330888Y-98797000D02*
X125830888Y-98797000D01*
X122165113Y-96282000D02*
X122165113Y-95122000D01*
X122926113Y-96282000D02*
X122926113Y-94811000D01*
X123006113Y-99850000D02*
X123006113Y-98362000D01*
X123486113Y-99902000D02*
X123486113Y-94742000D01*
X122966113Y-96282000D02*
X122966113Y-94802000D01*
X121245113Y-96282000D02*
X121245113Y-96071000D01*
X120925113Y-97606000D02*
X120925113Y-97038000D01*
X121405113Y-96282000D02*
X121405113Y-95822000D01*
X121645113Y-96282000D02*
X121645113Y-95537000D01*
X122405113Y-96282000D02*
X122405113Y-94993000D01*
X120965113Y-97840000D02*
X120965113Y-96804000D01*
X122805113Y-99802000D02*
X122805113Y-98362000D01*
X122485113Y-96282000D02*
X122485113Y-94957000D01*
X121165113Y-98420000D02*
X121165113Y-96224000D01*
X121205113Y-98500000D02*
X121205113Y-96144000D01*
X121765113Y-96282000D02*
X121765113Y-95421000D01*
X121285113Y-96282000D02*
X121285113Y-96003000D01*
X122886113Y-96282000D02*
X122886113Y-94821000D01*
X123046113Y-99858000D02*
X123046113Y-98362000D01*
X123126113Y-99872000D02*
X123126113Y-98362000D01*
X121805113Y-96282000D02*
X121805113Y-95385000D01*
X121525113Y-96282000D02*
X121525113Y-95669000D01*
X122405113Y-99651000D02*
X122405113Y-98362000D01*
X123166113Y-96282000D02*
X123166113Y-94766000D01*
X122645113Y-96282000D02*
X122645113Y-94894000D01*
X121365113Y-96282000D02*
X121365113Y-95879000D01*
X121685113Y-99148000D02*
X121685113Y-98362000D01*
X123166113Y-99878000D02*
X123166113Y-98362000D01*
X121485113Y-98927000D02*
X121485113Y-98362000D01*
X122846113Y-96282000D02*
X122846113Y-94831000D01*
X122926113Y-99833000D02*
X122926113Y-98362000D01*
X122605113Y-99736000D02*
X122605113Y-98362000D01*
X123086113Y-96282000D02*
X123086113Y-94779000D01*
X123206113Y-96282000D02*
X123206113Y-94761000D01*
X122765113Y-99790000D02*
X122765113Y-98362000D01*
X122205113Y-99546000D02*
X122205113Y-98362000D01*
X122966113Y-99842000D02*
X122966113Y-98362000D01*
X123286113Y-99891000D02*
X123286113Y-98362000D01*
X122565113Y-99720000D02*
X122565113Y-98362000D01*
X122285113Y-96282000D02*
X122285113Y-95054000D01*
X126146113Y-97322000D02*
G75*
G03*
X126146113Y-97322000I-2620000J0D01*
G01*
%TO.C,R11*%
X170535000Y-92929064D02*
X170535000Y-91474936D01*
X168715000Y-92929064D02*
X168715000Y-91474936D01*
%TO.C,R9*%
X158475000Y-92929064D02*
X158475000Y-91474936D01*
X160295000Y-92929064D02*
X160295000Y-91474936D01*
%TO.C,C5*%
X113785113Y-96242000D02*
X113785113Y-95782000D01*
X114905113Y-99664000D02*
X114905113Y-98322000D01*
X114665113Y-96242000D02*
X114665113Y-95014000D01*
X113945113Y-98981000D02*
X113945113Y-98322000D01*
X115065113Y-99724000D02*
X115065113Y-98322000D01*
X114545113Y-99482000D02*
X114545113Y-98322000D01*
X114225113Y-96242000D02*
X114225113Y-95311000D01*
X115426113Y-99818000D02*
X115426113Y-98322000D01*
X114585113Y-96242000D02*
X114585113Y-95058000D01*
X115105113Y-99737000D02*
X115105113Y-98322000D01*
X115466113Y-99825000D02*
X115466113Y-98322000D01*
X113745113Y-96242000D02*
X113745113Y-95839000D01*
X113505113Y-98293000D02*
X113505113Y-96271000D01*
X114745113Y-96242000D02*
X114745113Y-94972000D01*
X114105113Y-96242000D02*
X114105113Y-95418000D01*
X113985113Y-99025000D02*
X113985113Y-98322000D01*
X115786113Y-99860000D02*
X115786113Y-94704000D01*
X114345113Y-99347000D02*
X114345113Y-98322000D01*
X113625113Y-96242000D02*
X113625113Y-96031000D01*
X115506113Y-99832000D02*
X115506113Y-98322000D01*
X115666113Y-99851000D02*
X115666113Y-98322000D01*
X113865113Y-98887000D02*
X113865113Y-98322000D01*
X113665113Y-98601000D02*
X113665113Y-98322000D01*
X114825113Y-96242000D02*
X114825113Y-94934000D01*
X113345113Y-97800000D02*
X113345113Y-96764000D01*
X114585113Y-99506000D02*
X114585113Y-98322000D01*
X114505113Y-96242000D02*
X114505113Y-95107000D01*
X115025113Y-99710000D02*
X115025113Y-98322000D01*
X114065113Y-96242000D02*
X114065113Y-95456000D01*
X114745113Y-99592000D02*
X114745113Y-98322000D01*
X114145113Y-99183000D02*
X114145113Y-98322000D01*
X114705113Y-96242000D02*
X114705113Y-94992000D01*
X114385113Y-96242000D02*
X114385113Y-95187000D01*
X115266113Y-99783000D02*
X115266113Y-98322000D01*
X114465113Y-99431000D02*
X114465113Y-98322000D01*
X114385113Y-99377000D02*
X114385113Y-98322000D01*
X115626113Y-99847000D02*
X115626113Y-98322000D01*
X115706113Y-99855000D02*
X115706113Y-94709000D01*
X115266113Y-96242000D02*
X115266113Y-94781000D01*
X113465113Y-98197000D02*
X113465113Y-96367000D01*
X114785113Y-99611000D02*
X114785113Y-98322000D01*
X114265113Y-96242000D02*
X114265113Y-95278000D01*
X115426113Y-96242000D02*
X115426113Y-94746000D01*
X113905113Y-96242000D02*
X113905113Y-95629000D01*
X115346113Y-96242000D02*
X115346113Y-94762000D01*
X114265113Y-99286000D02*
X114265113Y-98322000D01*
X114025113Y-99067000D02*
X114025113Y-98322000D01*
X115506113Y-96242000D02*
X115506113Y-94732000D01*
X115185113Y-96242000D02*
X115185113Y-94802000D01*
X113825113Y-98836000D02*
X113825113Y-98322000D01*
X113865113Y-96242000D02*
X113865113Y-95677000D01*
X114185113Y-96242000D02*
X114185113Y-95345000D01*
X113585113Y-98460000D02*
X113585113Y-96104000D01*
X114705113Y-99572000D02*
X114705113Y-98322000D01*
X114905113Y-96242000D02*
X114905113Y-94900000D01*
X115346113Y-99802000D02*
X115346113Y-98322000D01*
X114865113Y-96242000D02*
X114865113Y-94917000D01*
X115586113Y-96242000D02*
X115586113Y-94721000D01*
X115826113Y-99861000D02*
X115826113Y-94703000D01*
X114105113Y-99146000D02*
X114105113Y-98322000D01*
X114185113Y-99219000D02*
X114185113Y-98322000D01*
X115306113Y-96242000D02*
X115306113Y-94771000D01*
X113985113Y-96242000D02*
X113985113Y-95539000D01*
X113785113Y-98782000D02*
X113785113Y-98322000D01*
X114985113Y-96242000D02*
X114985113Y-94868000D01*
X113625113Y-98533000D02*
X113625113Y-98322000D01*
X113905113Y-98935000D02*
X113905113Y-98322000D01*
X114225113Y-99253000D02*
X114225113Y-98322000D01*
X115586113Y-99843000D02*
X115586113Y-98322000D01*
X113665113Y-96242000D02*
X113665113Y-95963000D01*
X114345113Y-96242000D02*
X114345113Y-95217000D01*
X114145113Y-96242000D02*
X114145113Y-95381000D01*
X113385113Y-97959000D02*
X113385113Y-96605000D01*
X114425113Y-99404000D02*
X114425113Y-98322000D01*
X113305113Y-97566000D02*
X113305113Y-96998000D01*
X115546113Y-96242000D02*
X115546113Y-94726000D01*
X115546113Y-99838000D02*
X115546113Y-98322000D01*
X115746113Y-99858000D02*
X115746113Y-94706000D01*
X115386113Y-99810000D02*
X115386113Y-98322000D01*
X115866113Y-99862000D02*
X115866113Y-94702000D01*
X114945113Y-96242000D02*
X114945113Y-94884000D01*
X115906113Y-99862000D02*
X115906113Y-94702000D01*
X115185113Y-99762000D02*
X115185113Y-98322000D01*
X115145113Y-99750000D02*
X115145113Y-98322000D01*
X114825113Y-99630000D02*
X114825113Y-98322000D01*
X113745113Y-98725000D02*
X113745113Y-98322000D01*
X114065113Y-99108000D02*
X114065113Y-98322000D01*
X114425113Y-96242000D02*
X114425113Y-95160000D01*
X115386113Y-96242000D02*
X115386113Y-94754000D01*
X115226113Y-96242000D02*
X115226113Y-94791000D01*
X114625113Y-96242000D02*
X114625113Y-95035000D01*
X113945113Y-96242000D02*
X113945113Y-95583000D01*
X114025113Y-96242000D02*
X114025113Y-95497000D01*
X115466113Y-96242000D02*
X115466113Y-94739000D01*
X114785113Y-96242000D02*
X114785113Y-94953000D01*
X114665113Y-99550000D02*
X114665113Y-98322000D01*
X114505113Y-99457000D02*
X114505113Y-98322000D01*
X115306113Y-99793000D02*
X115306113Y-98322000D01*
X115666113Y-96242000D02*
X115666113Y-94713000D01*
X115145113Y-96242000D02*
X115145113Y-94814000D01*
X113425113Y-98087000D02*
X113425113Y-96477000D01*
X113545113Y-98380000D02*
X113545113Y-96184000D01*
X115626113Y-96242000D02*
X115626113Y-94717000D01*
X114985113Y-99696000D02*
X114985113Y-98322000D01*
X114625113Y-99529000D02*
X114625113Y-98322000D01*
X115025113Y-96242000D02*
X115025113Y-94854000D01*
X113705113Y-98665000D02*
X113705113Y-98322000D01*
X114305113Y-96242000D02*
X114305113Y-95247000D01*
X118710888Y-98757000D02*
X118210888Y-98757000D01*
X115105113Y-96242000D02*
X115105113Y-94827000D01*
X114305113Y-99317000D02*
X114305113Y-98322000D01*
X114865113Y-99647000D02*
X114865113Y-98322000D01*
X115065113Y-96242000D02*
X115065113Y-94840000D01*
X115226113Y-99773000D02*
X115226113Y-98322000D01*
X113705113Y-96242000D02*
X113705113Y-95899000D01*
X118460888Y-99007000D02*
X118460888Y-98507000D01*
X113825113Y-96242000D02*
X113825113Y-95728000D01*
X114945113Y-99680000D02*
X114945113Y-98322000D01*
X114545113Y-96242000D02*
X114545113Y-95082000D01*
X114465113Y-96242000D02*
X114465113Y-95133000D01*
X118526113Y-97282000D02*
G75*
G03*
X118526113Y-97282000I-2620000J0D01*
G01*
%TO.C,sensor*%
X111418200Y-106151180D02*
X117888200Y-106151180D01*
X117888200Y-104890000D02*
X117888200Y-111010000D01*
X111418200Y-105238236D02*
X117888200Y-105238236D01*
X111418200Y-105808826D02*
X117888200Y-105808826D01*
X111418200Y-104890000D02*
X111418200Y-111010000D01*
X111418200Y-105580590D02*
X117888200Y-105580590D01*
X111418200Y-106950000D02*
X117888200Y-106950000D01*
X111418200Y-105922944D02*
X117888200Y-105922944D01*
X111418200Y-106835888D02*
X117888200Y-106835888D01*
X117888200Y-106310000D02*
X118163200Y-106310000D01*
X111418200Y-106607652D02*
X117888200Y-106607652D01*
X111418200Y-104890000D02*
X117888200Y-104890000D01*
X117888200Y-108310000D02*
X118235283Y-108310000D01*
X111418200Y-111010000D02*
X117888200Y-111010000D01*
X111418200Y-108950000D02*
X117888200Y-108950000D01*
X111418200Y-106721770D02*
X117888200Y-106721770D01*
X117888200Y-107590000D02*
X118235283Y-107590000D01*
X111418200Y-106037062D02*
X117888200Y-106037062D01*
X117888200Y-109590000D02*
X118235283Y-109590000D01*
X111418200Y-106379416D02*
X117888200Y-106379416D01*
X119098200Y-104890000D02*
X120033200Y-104890000D01*
X111418200Y-105010000D02*
X117888200Y-105010000D01*
X117888200Y-105590000D02*
X118163200Y-105590000D01*
X111418200Y-105352354D02*
X117888200Y-105352354D01*
X111418200Y-106265298D02*
X117888200Y-106265298D01*
X111418200Y-105466472D02*
X117888200Y-105466472D01*
X111418200Y-105694708D02*
X117888200Y-105694708D01*
X111418200Y-106493534D02*
X117888200Y-106493534D01*
X120033200Y-104890000D02*
X120033200Y-105950000D01*
X117888200Y-110310000D02*
X118235283Y-110310000D01*
X111418200Y-105124118D02*
X117888200Y-105124118D01*
%TO.C,OP1_out*%
X131639000Y-100370000D02*
X133029000Y-100370000D01*
X131639000Y-99685000D02*
X131639000Y-99000000D01*
X131639000Y-100370000D02*
X131639000Y-100245000D01*
X132942276Y-100370000D02*
X133029000Y-100370000D01*
X133029000Y-100370000D02*
X133029000Y-100245000D01*
X131639000Y-100370000D02*
X131725724Y-100370000D01*
X131639000Y-99000000D02*
X132334000Y-99000000D01*
%TO.C,R2*%
X129335200Y-116350800D02*
X129335200Y-109810800D01*
X127965200Y-109040800D02*
X127965200Y-109810800D01*
X126595200Y-109810800D02*
X126595200Y-116350800D01*
X127965200Y-117120800D02*
X127965200Y-116350800D01*
X126595200Y-116350800D02*
X129335200Y-116350800D01*
X129335200Y-109810800D02*
X126595200Y-109810800D01*
%TO.C,v_d_out*%
X140943276Y-118922000D02*
X141030000Y-118922000D01*
X139640000Y-118922000D02*
X141030000Y-118922000D01*
X139640000Y-118922000D02*
X139640000Y-118797000D01*
X139640000Y-118237000D02*
X139640000Y-117552000D01*
X139640000Y-118922000D02*
X139726724Y-118922000D01*
X139640000Y-117552000D02*
X140335000Y-117552000D01*
X141030000Y-118922000D02*
X141030000Y-118797000D01*
%TO.C,GNDD*%
X168850000Y-105374700D02*
X169545000Y-105374700D01*
X170240000Y-106744700D02*
X170240000Y-106619700D01*
X168850000Y-106059700D02*
X168850000Y-105374700D01*
X170153276Y-106744700D02*
X170240000Y-106744700D01*
X168850000Y-106744700D02*
X170240000Y-106744700D01*
X168850000Y-106744700D02*
X168850000Y-106619700D01*
X168850000Y-106744700D02*
X168936724Y-106744700D01*
%TO.C,R8*%
X177186000Y-105883064D02*
X177186000Y-104428936D01*
X175366000Y-105883064D02*
X175366000Y-104428936D01*
%TO.C,GNDA*%
X133290000Y-88519000D02*
X133290000Y-87834000D01*
X133290000Y-89204000D02*
X133290000Y-89079000D01*
X134680000Y-89204000D02*
X134680000Y-89079000D01*
X133290000Y-89204000D02*
X134680000Y-89204000D01*
X134593276Y-89204000D02*
X134680000Y-89204000D01*
X133290000Y-89204000D02*
X133376724Y-89204000D01*
X133290000Y-87834000D02*
X133985000Y-87834000D01*
%TO.C,R12*%
X165375000Y-106837564D02*
X165375000Y-105383436D01*
X163555000Y-106837564D02*
X163555000Y-105383436D01*
%TO.C,R4*%
X121893000Y-88995000D02*
X121893000Y-82455000D01*
X119153000Y-82455000D02*
X119153000Y-88995000D01*
X119153000Y-88995000D02*
X121893000Y-88995000D01*
X121893000Y-82455000D02*
X119153000Y-82455000D01*
X120523000Y-81685000D02*
X120523000Y-82455000D01*
X120523000Y-89765000D02*
X120523000Y-88995000D01*
%TD*%
D13*
%TO.C,P1*%
X138938000Y-123825000D03*
X141478000Y-123825000D03*
X144018000Y-123825000D03*
X146558000Y-123825000D03*
X149098000Y-123825000D03*
X151638000Y-123825000D03*
X154178000Y-123825000D03*
X156718000Y-123825000D03*
%TD*%
%TO.C,P2*%
X161798000Y-123825000D03*
X164338000Y-123825000D03*
X166878000Y-123825000D03*
X169418000Y-123825000D03*
X171958000Y-123825000D03*
X174498000Y-123825000D03*
%TD*%
%TO.C,P3*%
X129794000Y-75565000D03*
X132334000Y-75565000D03*
X134874000Y-75565000D03*
X137414000Y-75565000D03*
X139954000Y-75565000D03*
X142494000Y-75565000D03*
X145034000Y-75565000D03*
X147574000Y-75565000D03*
X150114000Y-75565000D03*
X152654000Y-75565000D03*
%TD*%
%TO.C,P4*%
X156718000Y-75565000D03*
X159258000Y-75565000D03*
X161798000Y-75565000D03*
X164338000Y-75565000D03*
X166878000Y-75565000D03*
X169418000Y-75565000D03*
X171958000Y-75565000D03*
X174498000Y-75565000D03*
%TD*%
M02*
